<mxfile host="drawio-plugin" agent="Mozilla/5.0 (Windows NT 10.0; Win64; x64) AppleWebKit/537.36 (KHTML, like Gecko) Chrome/111.0.0.0 Safari/537.36" modified="2025-02-26T00:08:22.569Z" version="22.1.22" etag="B-I9xbOjSxhD3o_tif4k" type="embed">
  <diagram name="Page-1" id="5f0bae14-7c28-e335-631c-24af17079c00">
    <mxGraphModel dx="1907" dy="1297" grid="1" gridSize="10" guides="1" tooltips="1" connect="1" arrows="1" fold="1" page="1" pageScale="1" pageWidth="1100" pageHeight="850" background="none" math="0" shadow="0">
      <root>
        <mxCell id="0" />
        <mxCell id="1" parent="0" />
        <mxCell id="88" value="" style="rounded=1;whiteSpace=wrap;html=1;fillColor=none;dashed=1;strokeWidth=2;" vertex="1" parent="1">
          <mxGeometry x="-40" y="371" width="1090" height="229" as="geometry" />
        </mxCell>
        <mxCell id="101" value="" style="rounded=1;whiteSpace=wrap;html=1;fillColor=none;dashed=1;strokeWidth=2;shadow=1;strokeColor=#10739e;" vertex="1" parent="1">
          <mxGeometry x="-80" y="-120" width="1160" height="1600" as="geometry" />
        </mxCell>
        <mxCell id="100" value="" style="rounded=1;html=1;fillColor=none;dashed=1;strokeWidth=2;labelBackgroundColor=default;strokeColor=#6600CC;" vertex="1" parent="1">
          <mxGeometry x="-50" y="-50" width="1100" height="380" as="geometry" />
        </mxCell>
        <mxCell id="90" value="" style="rounded=1;whiteSpace=wrap;html=1;fillColor=none;dashed=1;strokeWidth=2;strokeColor=#0000CC;" vertex="1" parent="1">
          <mxGeometry x="-50" y="1050" width="1090" height="290" as="geometry" />
        </mxCell>
        <mxCell id="89" value="" style="rounded=1;whiteSpace=wrap;html=1;dashed=1;strokeWidth=2;fillColor=none;fontColor=#ffffff;strokeColor=#0000FF;" vertex="1" parent="1">
          <mxGeometry x="-60" y="640" width="1090" height="360" as="geometry" />
        </mxCell>
        <mxCell id="5" value="" style="image;sketch=0;aspect=fixed;html=1;points=[];align=center;fontSize=12;image=img/lib/mscae/Cache_Redis_Product.svg;" vertex="1" parent="1">
          <mxGeometry x="770" y="150" width="107.15" height="90" as="geometry" />
        </mxCell>
        <mxCell id="6" value="" style="image;sketch=0;aspect=fixed;html=1;points=[];align=center;fontSize=12;image=img/lib/mscae/Docker.svg;" vertex="1" parent="1">
          <mxGeometry x="30" y="1390" width="50" height="41" as="geometry" />
        </mxCell>
        <mxCell id="10" value="" style="verticalLabelPosition=bottom;verticalAlign=top;html=1;shape=mxgraph.infographic.shadedCube;isoAngle=15;fillColor=#d5e8d4;strokeColor=#82b366;fillStyle=solid;" vertex="1" parent="1">
          <mxGeometry x="220" y="20" width="260" height="270" as="geometry" />
        </mxCell>
        <mxCell id="31" value="" style="dashed=0;outlineConnect=0;html=1;align=center;labelPosition=center;verticalLabelPosition=bottom;verticalAlign=top;shape=mxgraph.weblogos.json" vertex="1" parent="1">
          <mxGeometry x="80" y="892.6" width="70" height="75.8" as="geometry" />
        </mxCell>
        <mxCell id="34" value="" style="outlineConnect=0;dashed=0;verticalLabelPosition=bottom;verticalAlign=top;align=center;html=1;shape=mxgraph.aws3.topic;fillColor=#5294CF;gradientColor=none;" vertex="1" parent="1">
          <mxGeometry x="252" y="403" width="70" height="184" as="geometry" />
        </mxCell>
        <mxCell id="47" value="" style="outlineConnect=0;dashed=0;verticalLabelPosition=bottom;verticalAlign=top;align=center;html=1;shape=mxgraph.aws3.topic;fillColor=#5294CF;gradientColor=none;direction=west;" vertex="1" parent="1">
          <mxGeometry x="400" y="390" width="70" height="190" as="geometry" />
        </mxCell>
        <mxCell id="49" value="Approve topic" style="whiteSpace=wrap;html=1;rounded=1;arcSize=50;align=center;verticalAlign=middle;strokeWidth=1;autosize=1;spacing=4;treeFolding=1;treeMoving=1;newEdgeStyle={&quot;edgeStyle&quot;:&quot;entityRelationEdgeStyle&quot;,&quot;startArrow&quot;:&quot;none&quot;,&quot;endArrow&quot;:&quot;none&quot;,&quot;segment&quot;:10,&quot;curved&quot;:1,&quot;sourcePerimeterSpacing&quot;:0,&quot;targetPerimeterSpacing&quot;:0};" vertex="1" parent="1">
          <mxGeometry x="520" y="425" width="120" height="30" as="geometry" />
        </mxCell>
        <mxCell id="50" value="" style="startArrow=none;endArrow=none;segment=10;sourcePerimeterSpacing=0;targetPerimeterSpacing=0;rounded=0;entryX=0;entryY=0.75;entryDx=0;entryDy=0;" edge="1" target="49" parent="1" source="47">
          <mxGeometry relative="1" as="geometry">
            <mxPoint x="470" y="510" as="sourcePoint" />
            <mxPoint x="550" y="440" as="targetPoint" />
          </mxGeometry>
        </mxCell>
        <mxCell id="57" value="Subscription Topic" style="whiteSpace=wrap;html=1;rounded=1;arcSize=50;align=center;verticalAlign=middle;strokeWidth=1;autosize=1;spacing=4;treeFolding=1;treeMoving=1;newEdgeStyle={&quot;edgeStyle&quot;:&quot;entityRelationEdgeStyle&quot;,&quot;startArrow&quot;:&quot;none&quot;,&quot;endArrow&quot;:&quot;none&quot;,&quot;segment&quot;:10,&quot;curved&quot;:1,&quot;sourcePerimeterSpacing&quot;:0,&quot;targetPerimeterSpacing&quot;:0};" vertex="1" parent="1">
          <mxGeometry x="50" y="425" width="160" height="30" as="geometry" />
        </mxCell>
        <mxCell id="58" value="" style="startArrow=none;endArrow=none;segment=10;sourcePerimeterSpacing=0;targetPerimeterSpacing=0;rounded=0;entryX=1;entryY=0.5;entryDx=0;entryDy=0;" edge="1" target="57" parent="1" source="34">
          <mxGeometry relative="1" as="geometry">
            <mxPoint x="270" y="510" as="sourcePoint" />
            <mxPoint x="240" y="440" as="targetPoint" />
          </mxGeometry>
        </mxCell>
        <mxCell id="44" value="Rest API" style="shape=hexagon;perimeter=hexagonPerimeter2;whiteSpace=wrap;html=1;size=0.25;fillColor=#fff2cc;strokeColor=#d6b656;" vertex="1" parent="1">
          <mxGeometry x="120" y="110" width="120" height="90" as="geometry" />
        </mxCell>
        <mxCell id="68" value="" style="verticalLabelPosition=bottom;verticalAlign=top;html=1;shape=mxgraph.infographic.shadedCube;isoAngle=15;fillColor=#d5e8d4;strokeColor=#82b366;" vertex="1" parent="1">
          <mxGeometry x="220" y="676.5" width="260" height="263.5" as="geometry" />
        </mxCell>
        <mxCell id="70" value="" style="shape=image;verticalLabelPosition=bottom;labelBackgroundColor=default;verticalAlign=top;aspect=fixed;imageAspect=0;image=data:image/png,iVBORw0KGgoAAAANSUhEUgAAAMgAAADICAYAAACtWK6eAAAACXBIWXMAAAsTAAALEwEAmpwYAAAgAElEQVR4nO1de1Bb15m/7XTSbifNZttOOm2ns5PNpJvpdjt9zG4ync5mup10Ou12uttpZyeddGOnfiVOHDuOjR9gjMEYA8Y2GAw2AgF6IQmEQAgkJMRLIEC8BUgCjF+YlwAnTpP4xd352HHX1T0Cce+VzrnS+c38/vEYON93vu/ee875zu9jGAoKCgoKCgoKCgoKCgoKCgoKCgoKCgoKCgoKCgoKCgoKCgoKCgqKTULXY/6BvKM6+VKbVn6xWVWX21ThzLbIPFmNsjHK//cB+CS3qcIJPgJflTkNSbo+8/dowMUYtC7zdy61VKpT6/Ln3laeePg/xQdZSv4+eEeR+iC1tmD2UoumQt9vfR73/FLwgNajfULWrs89bswNbJEdogkRoYfC1pLDbIrxwkJJW1W2w+H4HA1WwgGTVNKuz9mvzbhL3xLRfVMeqDz9aXG7tggeTrjjgAIBhav2jwe0mZ/QxMD7CZmgz/pY3VX73zRICYHWoX0y21LSvLUkvE8p+H/vadPZFHMum9F0kc1pucxe6JCzBZR/5QPwSU7LZTajqYBNMZ9n92lPslvC9vFhNt+u7HB4HE/ijo+4BuyqHNaf+WijCdutPM5m2otYzbCBbbxiY61X7ZQ8fNA43cSqhwzsaVshu1t1fMNEOVKdc0fvbnwBd5zEJZQ9tb9+V3Xy/noTdMiQySoHq2gyROiBoBjUswmG0+smyT5N+j1td+MvcMdLXEHZVbt1V/mx1VCTAp9Q6uFqmhhRelMqh6rYvdq0kEnyZnnyqsplehV33MQFtD3ml3crUh6GWl+cbSlmLdP0Myran5GNV2xrvg+1ToEzKK3b/BPc8RPT0PY0/ON7mvR7qAnYWZHEakYM9K2BeX2lGq5id5QnIpPkfe3pu/WDTd/GHUcxiWQ2+bPJNeeXUY5/R3OCrfaaaHIQsvlQPW5i31alIJMEDhZhLnHHU8yh0KGpRDn8LWUya/Q3YA8KSvtf+aBuoiHkTtfl1soy3PEUU4Bv1+3yRM6iHF7l+rE6GpyEJmjVWB27vYz7ubVDnrSqcZlfwh1XMYMUY94i50kkO8hWDOiwBwGlfV0fyPsq2deLEzhJcqIufw53XMUE5M6qNNRrOt2ST4NTIgma2pCL/NSCEnrc8SVpaD2OJ/epT91FrTvMU1bsE09pD8sH5ikL+6biGHJXq9Zd+0XccSZZFDiUJtSTR9arpsEpsQS93K1EvkUKHepq3HEm2YtOO8qSOAvzg9UZ2Ceb0s7LBweqTnESBCoi1N319Gxks8hqKPYFO/N1WQKr9RhpgEo0SSs9NWtzGDyvcL03Ik/ZWAXU7aAcedJyAfskU9oF+eBEYx5nXuHWp7Lb9HvccScZJBnO3Q524rayo2wtPRCMiQPEbfKjnCQ5Zji/jDvuJAG4S45azOW1l2KfXEq7KD4431aCXLCXtFdl4o4/oqH1NH4Zdcdjj/rE2mUdGqCxkaSN003IWq296vT7hgHH07jjkFjk2SpaUE8WOI3FPamUdlF9UOrWIN8i+c0KK+44JBKaHvO/bJdz63aOGrNpcMZogh4yZHLme7v86CqI++GOR+KQUV90jbu7kUCLEWO8mHELYrcyo/7SJO54JAqKrprtqIK207aL2CeR0h5RH6RbCzjzDrFQ4ap5A3dcEiP2driKq0yyszyRrZ+00ACN8SStn7KwO8uTkIoo9GIVwzAgjIxarF3sLMc+eZT2qPgg31mGXLAXt+kKmXhGlbvh6yhB6b2Vqax1mgZo3CTotB2pigJC2aou29eYeMU5a1k36vtTMaDHP2mUbDR9oBisQl6syrOVdzDxCI3L9NM3So9wHJJsOkuDM06TM7HuDCceIEbU3eafMfEG6DHBcUbJYapOEses8dWzW0u5ulonTRdvMPGEcqfhfdSiLLv5EvZJosTrgyx7IXLBLncaEph4QKnD8QVUm4JdimNxe43Wds3Bumbdi/1zA2NA12xvAP4N97isGNgw1RTqeu4n583mzzOxjsIWtQ71hIArmbgnJ9q0X2tZHV4YMXo/9H412E+TdyafGVr0mOD/4B6nNcos7KpAvkWKWioVTCxD39P0DyBkHGz4fn06a7kaX3q6bTec97wrkxsuPr1LE79ovdFxD/d4rVEkxML7+nROguwqT17VuozPMrGKHItsmPNkkB2MOyX25mutqxMrEz8N12/+gP/n8fYm0Qwb1mIjOF7OWuV9TKz280B1gTrRkIt9MqJNz+KoerP+G17w1OAetzXKPF5/jhMvEENql+k3TKzhuPFCALXHbfSZsU9ENAlvAs+8Z9Otya7fvv5l+7UW7OO3RpGgufwn1FlZTW6AiSXIOqrSUYuuc60y7JMQbfbO9vHe0++55Z7DPX5rlAl9EpHbvh3VyUysqCO+pznF6ekByt+NV+LvGu3A/LCLry8H5gYHcY/fGmU2TtvWekwGxw/0iTG7zE8xUke+XdmAegKU9mqwOx8HhxZG7Hx9OTg/3IZ7/FYMLO5RId8iFx1qIyNlaHos3wWp+2DDDlafxu50miDSYgKiWSjEFnQ6ZqSKTHPxRLBRW0pAHbEGu8NpgkiLOo9xLXaC4ymrUTbGSBGK7to/oNQR063x3baAfmLZefsuDaHKCDGm6jK9xkgJcFUylDpi3UQj9iClCSJNmiYa2e1lXFXGo9VnP5DU9dySdl0BalF1oUOO3cm4Sd8gdkH+yw2pyqjPYaSA6rGmr7yrSnuAVEe8Io16K9dsz+JIYKxiPOB/w7vsf210aTxlYGG4q+V6+4NYSpDWGx0POma6PhbDLmuUCDG0R5PKSZB3lGn3q7ubvsKQjlxbeSsqw8v6KyVRQDge8G8NZdv0yvTTEKRNV5slmyCO620PhxdHq7yL0y88/rsnb0/+aGhhxNp8rfUh7nmwbsCyfi3yLZJnU9gYklHlNr+EUu5OrD2D3akbsetW98rE0sS3wrFzdHE8j2+S4EwQOIn3BXzfXO9vTC1Pfc91q2cZ93xYN+BhYxYnzraVHoUF+4sMqUg3FV7nbOvKEtYU9HA7dN3AmXXPwNthM7YOzA93SSlB4LNxmp3+Qjh/xx/wP9V9q3ce97xsqMqIKH7NMBddYUiEsqv2LZQqRaatELsz16N7rv+ah/U8sVl74ZITlK1LIUGgQNIf8H9nM38LkqSH8NqvjCa0KmNZZ80uhjh1RP2ZPyPVEafIVUfsme27NTMzw7vLav/84JAUEmRwYaiTz9/zE54k5hCqjId02R9BTDKk4FKLphy1aIKrk7idGIrwnQ0BIMRuWItIIUF8y77X+f5Nz7znSdetniXc87VZVcZLbZWXGRJQN2D75m4FQh1Rm0asOiJcYZ38YPJ5obaPLXkTpJAgfO6fPA7/bf9zxF77nbaz+7QnOQmyW5HyUNVX8w0GN841yXtR34GglIfdeQjarjpWvSsT/ymG7aOB8VOkJwjstolhq3d54jf2aw4ir/0qQ6gynreV8/q0FA3a3sZXUOqIcFUSt9NCcTQwniGW/UMLww7SEwS42QV6KIwtedOEnAFFkkl1OSxKiFDlMv47gwsnai/MBw8KlPEM3nrsDhNzsRoK7Tc7P5VCgoj5UBhY4Le9HWnWeNGqjGl1F2cYHKjoqjmEWhzlOMhUR+y42fmp0EX54xhdHMvlMw4cCQJnGmLZ7Q/4n+LzYIgGs5uLkAt2ubMquqqM2s7OvzmgPf1p8EB2VRxbU8bD7ahgwmfBeiUkmwXI8Diu8yvJwHVQOB4YTxTL/vGAfyuJn1rmK1b2LUUyJ0EOVJ7+FBQ9mWihwKGuRmVqcbcKu5NQHJwf6hYzOVpvdNznOxZcCQKHmrDQFssPA/PDLtzzimKRS4F8ixS1aDRMNFDXb30epY74PqHqiLA9CZI5Ytg+vuz/AxT7CRkPzlosGLtv2fcrMXwxvTL9dJuAB0VEVRmrTiFVGdVu83NMpHGmsWSUk6Gyg2tKeLidgyIc5olht2/F91s+pSUkJcijJBFxm7sI9/yiqBmpQaoy5lhLB5lIQttt/i+UOmIqoeqIHTNdnzhY4SUHvmXfvwl9c5CSII+SBGwS6hcP63kCNj9wzzOKKebznDiF2FW6akV5OCBx3JjLUUcE5Tujn0x1RNi3F2rz1J2pr3Xc7PpErDGRkCBA2InaqPQ9HIwvetNxz3NIVUY594zuWE3uEhMJlLTrMlGLn9w2MtURO2dcd4TazLLsZ6EUXsxxkZIgj4o1xXjDds647uCebxTPthQjF+ylHYZURkw0uZv+FpTskOqI0+QtzIFjAW+WULuhP4fY4yIpQYDQn0Son0YD4xdwzzeKEJtvq7iqjPs06fdqOmq+xIiFC3ZlE/IApo/Ma7TwjS2kjP1RX45IdHkiLUHARqE7W555z5NirdHEpqxXjXyLFDiUJkYMgHIdSh0RlO5wGx+KgwvDTiE2w2dH50zPB5EYG2kJAuyc6f6Qz6UxKZyLAA8ZMjkJsl2euKrttnyfEYrT5ktTwb8cFO5A6Q634SjCCa9/2f+yEJs9i6NlkRofiQkChC1bIT6bWJn4KYmn60DtqJHdIuPuvmY1FPuE2MxUdptfR6kjniJYHREu9wg9AAM5nHhLEDj0E3pvpGum+zbu+Q/Fk5YLnDiG2FY4a//Iy1hQqgPFOs6rqSyRNU2Sq444sjiqEzLJke7kRGqCiOG7oQhsaoipyrijPJGTJInVZz/kpcooa9OdQy1u4IojbmPX42Z6/+FYbJKcIPDmFLIW8S1N/hL3/K/HvPZS5IK9pL0qc1OGwoV3VC/zdzWprIXQbV1g+03nXUYARpfGcyI9RpITRIzD1TZSr+ZCndY0qDKe4CRIgj7r4029RUDnFJVpFQN67Eaux4H5YbeQyXXd6l2K9wTpnu1dEOLD/vmhftxxsB7L+tCqjHJnVfgPBsgoTpZJoOnN+JLvON+JnVia+HE0xkh6gsBOFKgr8h3jaGAsG3ccbMQD+gxOghypzgmv8kLdY/otKsMUg2S/PYATKxM/5DuxI4uj2miMkfQEAY4sjsr5jtG/7H8Zdxzw1fbV9ta/sqGBebYKjvj0fl06dqM2IiyuGQFwzboXozFOKSRIz6x7Vkj9WrMI1wIiTZRUUEGz0rKhgfu1GXeDfxBW/7gN2oiuW728e2fDhapIlJVINUGgH3u4Or4oSEH8GopsUYt1Zj1o3LU/5Lx6ZAdZo4/McnaxrtVCH5BojVMKCQL0B/y/4zvOgfnBPtzxEI4KCkpLS91d/+2QhkEZMKfyUXsSuzHhcGRhVMF3Qj2Lo+pojVMqCeJZHJORetgqFuHYIjjey7sMoRVQcm3ljuAfgMaJuA0Jh6ByyHdC++YHR6M1TqkkSN/cIO/rqZ7FsXO44yEcnkDcOsxvVppDGnbSVHiTs3CRSF9B35JvO8nnH1JLEFB1Z3hibNm7G3c8hMO8djknQTLqL02HNCyp+vwK93BQh92QcCikgrfjZqdoV2o34uD8SAvfcYIyZLTG6bzZ9We+44RyH9zxEA6hLWBwvKcY8xZDGnZQl8UpL6n01GA3JBxO3pl8hu+E8hWB40P4nOM7TvfcgF8K2+ZXlq/8Pe54CIfqIQP3wLAq56OQhu1RcrvTVntN2A0Jh0JKtaN5jwG6yvIdZzQlP2Hbm+EJEIPAHQ/htnHjbEqpT4Wu59ujSrsf/AOkClEHc7M9Bh9HtC/68NGlAtG6aI5RSIKMLVz9Ou544Jsg72lO3YvJTywh6onRThAoCIQT53DHB/83mhsJQhNk6s7U13DHQ0Q+sZIM525zFumD0likQ1NNvhMarVP0xzm0MNwc7vgGF4Y7oj0+OE1neALWg7jjgW9N1rqLdOilwNnm7SzHbkg4FCKC1oJJkaNvftADT9v1PlX65gbGcYwNBLoZnpj6YOrbuOMhHF5worZ5i6Y3Vah40iKNg0LvyuTP+E4obGniGjfsFg0tDLePL/l2+lamv+9f8f9gfMm/C/4Np5RO54wr9KfGBgAVedzxEA5BMpdzUGhXNYY0rLTDkM5ZtEigkhc4HvC9w3dCSW51jItCDgrHl3z7cY8/HEKjWU6pSWf14ZCG6dymF1HKD7X+BuzGbEQob4jVW3A4CDpXTBTbY0eboCeNUuzRuxtfWNc4lMQofKvhNmgjQoEc7wkNjBXiHn8stY0YWfAYcI9/I+a2l3CSA3QYNjQut6nCGfyD7+tPYTdoI/bPDQ3wnVD/sv/XuMdPGoXIkfZFsfiTL+ESIOdFYFNsXCen7Db9nnMnpPggqyT8ym3Xre7bfCcUpG7s11qIvwUXLTZfa30oRP6nk1C198f7qqNiXOUyhfdQQDXoPFyThd2w9Wi76lgVIuXvnuu/htsGUuie6w+91Rnewwa7DesRdKWD4/uQPjv84sySdl0BZ7FenMAqh6qwG7ceQZGd98QGxgpwj58UQjsDvn70Lft+hXv86xHER1Bvj5K2quywjdR6tE/s13Dvpu+tTGOt07E5sZMfTD7fdI1M8eVoEqoK/Lf9z8Xkg2YaLdbwfmXGpyCWuClDi9u1RahMK+yqwG9oCPbPDYwxAtA723cdtw242TvXx/vzCtA3NzCJ24ZQLHCWId8esjbd5nfsIKMO6898FPzLdpYnsvVTFuzGogglI5spAgyGN+Ddi9sGKR+4OljH50htpGOesrA7y5OQa49Nvz0eQdllegul/HDaVojd4FD0Lvtf4zvBkFzRvHNBGqFjrZAHjG/Z9zpuG0Ixo6mAE8cQ22WdNbsYIUg3FV4P/sVbZAlrtfS4jRb7SitgdHEsF7cNuAiyoUJ8Nzg/0oLbBhQhVrcg2pdnmIuuMEJR5Ta/tE1+lPPLjxrPYDdc7LvUjz4T4NYfbjtw+E3I2wNAqt/giCI4fiGmVV2mFxkxgKryBcKld9zGo+hb8r0qxN6xgDcJtw3R5njAd0SIz8YD/q24bdiMDm++XWFjxILW0/jld1UnOddx96hPsI1XbDG3mwXone27gdsOKRwMPkLfXL8Ptx3BhNjcgxCHA+2FWreD9wU7JIrb9BdQmXiho5TIU3UhF6geXfohdUdG7LISf8D/HSG+mlia+BaJp+fnEQWJmz4UDBfQgSfJcI7Ts3Bb2VG2boK8noUji55KoTZHo+MUbo4FvJtrP4YA+Bq3HaiehNvLEGvn6rO3GZb5DBMJqHpMr6Fq6E8S2PW27YbznhCF8kcYmB/qxW1LpDgwP9wl1D+eec+T0CEXty3BTGvI427ryhLYCqdR0Pp0Q2Q2XPZztn1LElgtgeonnsBYuVB7YVer+1bvPG5bItEuQkjFLslvD53HuBaTwXGa3VjMW7QvbGjdTf+8oyxpNfiPHySwRVvr9fYHQuSAHlcKJHULkw/BFrBJqF+8H3q/ikvwYrPVujvkSauanrrvMtEAKGAjFz+9GuzOCebwoqdODJu9K1efdd7s+igGkuMT2IAQwydDiyP1uO0JZnGPErkwL3SoeN843TRqxju+BAp0wYPYrTrONl5pwu6kxwntwKBSVwy74fdI+U0CyeFdnH5BFF8sTX6XtFZrEHsQg8FxuU+dflfrcfCWpuWFko6qU6hMPddajN1RYleoBmtVQQ8/3DZtltCDEbZjxfJDz6z7Jm6bgnnGcRn59pB3VCczOAAqdMGDeaP0CJEt28TYznwEKMkgte4IxYG5wUExFuQkb38b/Q3sn0qPcJLjuDGXd+9KwVD3mn6zteQwZ1AnGnKxOyyYcOgn5CIQCtDViuTDRBjb2JI3VUybJz+YfJ5Em4/Xn+PE4daSQ6zCafwPBidyLKXDnNea7OCaMDBupwWzd67/qtj2Q8DA7yXP1r5psR8ILMt+lsRLZZphw1rMcT73rfI+Bjeq3fbn3ixP5mz77tens5artpjSz1oP3iXvQRJ2uUBRRMilJ6ntWlmu2tj9+lOc5NhVnryqdRmfZUhAYYtah1ocXepWYndgMKHVwVjAF1peUuATFu5U4Njpct50fTQW8GYJLVkPhfHAeGK020SEw8KucuTCvKilknfXY9Fh9ps/D6p0nCxWHGPNU1bsTgxm87WWVX/A/0okfQJi1O65/iuRbK0ABYLuuYEJuMkXSVv8Af8r4DPc8xbMhqkmdlfFMU5yJOgyPwbhEYYkVHTWHkBlcnbzJeyORBGu1op1YLbRtjA82SGQxVjctlxvf9A3N+CFxbcYVQIbwbs4/QKp15Cz7IXIt0dFp3EvQyLS6gpmOdu+JYeJ7XMo5sFZuJhYmvjxaGA8A9obwD0M162eZQhAKDuHp/T/sXUV/g3qpUAlZGhh2AEJAe0RojlW7+L0Cx03u6LWAXgzhNaAW0u512jTTYU3GFKh7TG/DOcgwYM+ZjqL3aGh2H7TeXdqeep7uH1HGkhODutVO5tYm8OJMzgH0brNP2FIxrkmuQv12gNFO9xODUXoky700lAsAT494e1qJWBuUKwY0CE/rXJtFe0M6ajps37jbeWJh8GD31uZSrQqY9tN510h0qWxApAObbvRcQ/3fFhD0DJtY99FXKN9R5H6QNVlC9nOjihcaq0sQWX4xc4y7A5ej/ZrjlWxT56lBBBuIF3l/gKiryBQ1qa/yEgFoFQH7XSDjdgBqoyTZKoyPiLs9Q8vjpiZOMNIYKyCxHMO62M0TcI12kROchypzrkDV8IZKUHpqt2JUmXMsBVgd3Q47Jl1z8TDugTK1sFW3P62hsFTlnwW2XWgq3YrI0WcMhddRaky6glVZQym43rrQzjDYGIUUJUL28u4/WwNg/rRWnaLjLute7rh8iQjVWh7G/91uxzxSjRmY3f4Zgv/YmkrGN4aJBYdWtfhIUMmJ462y4+u6nrMP2CkjAt2hQO1qJL3kanKuF5ZB6iAwMk4I1FM3pl8BtZXpC/ErUEsdWuQC/OCZqWFkTqqx5q+glJlfEedwjZOk3U9N9xSj5HFUbkYkkLRwszMzBdBfYTEexzWDQgx8rYqhZMce9Xp9w0DjqeZWICsTXcOebDTXoJ9Aviy9UbHA3gai33nQuzT8OEFT2MrgbpV1jB5rlWGfHvInVWnmVgBy7KfSTKcu41SZaz1N2CfBKGfXtD2WEhfErHhXZrY5p7tn4pkJbE1CoTYQHUWOGY4v8zEGlQu06uoXYiTljzsEyEW4UkN97+9y963InUvAwW4bw5/E9ZIUFuG2w9WkZjakMuJF4ghlavud0wsIqtR5uXsY8tAldGIfTJET5br7Q9g9wu+/b1LE78XUzQBytx9S77tI4ujWqgIJk1+xyoCK0cMa7ERHC9nLCUeJlah6274J7QqYwb2CYk0Yeeoc8b1ESTN4Pxwm2dx9PL4km8/fJpBDZg/4H8JxOmAcM/dv+x/eTzgf2N80ZsOiTC4MNwBn01QREj6ibdVBB7QZ3CSY1f5sVV1d33E7/BgxcVmVR2ylqZXjX1SKMnwweVutDpikUNTxcQ6QOHuPc0pTg/2t5TJbANhqoyU9qj7wHzFyr6pSEb2Mq91136RiQeUdhhSUU+Isy3kqTJS2qPqgzPNl5Bvj3JndSITT0gxXpCMKiOlPSo+qPHVs2+UcoUIU+vy55h4g8pl+hVKlTHFfJ4GZJwm5THTWRalaaB2mX/OxCNyrKWDSFXG4Wrsk0UZXR8oh6rWStc5n91WeQ8Tr9C6LM++WXGccz13v45MVUZKe2R8MG1n92lPcpLjLUXKQ0NPo2iK9JJEUYtGg9zScyloQMZJUl4MoY54ubWyjIl3gALeQV0WV5WxgkxVRkq7qD6on7SyOyuSOMlxSJ9FnjoiLpR31uxDPUGym4toQMZ4UmbaLiLfHhWdxogIcEsWaXUXZ1A7GAZCVRkp7YJ9UD1uWuvhETzv6fVF13DHI5GqjKgOQUl1OTQYYzQhjxqzOfO9rfQo+eqIuHDeVt6JfN0O6rBPJqVdVB+U96PVEfNsFS2445BYgDLe24oTD4Kd9m5l2pqiHg3S2EhUSwh1xD3K1AdVg5ZncMch0Shu011GPVnynWSrMlLaw/ZBXnsodURdHu74Ix6gkBdKlRGU9WggSjsZTRONa3MZPL9Hq85+KDl1RFxQdtZuQ6oyNklDlZHSHtIH6Sh1RJmE1RFxIcNcdAV1H1k/VksDUKJJqAuhjpjZUOzDHW+Sg7bP9CNQzgt25mFjFvaJprSLqI6YuKrttkS1c1bMIN+usMWCKiOlnS3pVSMX5vnNqnrccSZZKIdNf4dSZQSlPXo9VzqJ1zDVxO5WHeckxz5N+j2zy/wU7jiTNEra9TmoJ09G00XsE09pD8sHJ63chTmwtMOQjju+YgJJ1edXkDsfg1U0SAlP1IpB3doluOD5O16Tt4Q7rmIGqm7TL6BGJ9jJUCZNixnJLkbciTjzADlRbW/9K7jjKi70tEAlHg6fcAcDpf2vfFA30YhUZQcWtWi0uOMp5gCXZxKrz36IcvjeyjSqhkJQktZ469k9mhPI5EiqOb8CPSxxx1NMAroJoXa1Ht1ABD1X3MER79R6jGtzgXyQqdPv6/rMMdOpi0goe2p/DRqtqAmAC1Zr4nME92OPVVqu2tiCDjlS1wr4ZnnyKqwlccdPXKCi07gX1fvwEQ9UZbBaTw32oIkXVnpq2Pf16SHnA07LFZ01u3DHTVxB7qx+dXdFCufuyF8oO8gm1p1ZmzzcARSr1Awb1m4FogpL/7KJokh9UOkyvYo7XuIScDUTRI1DJsljF65yWoppoaMIn1G60Vr2jONyyEX4X73JtZmf6NymF3HHSVyj3Gl5JrPhcv96T7HgPfiD1afXmtJnN19i89pL176dKbk+yG0vWfNRujV/rYfLn+RczQAU4RD3bJN8xDLopLcDSUGZ07gfdknCmUDKyPngPU36vXJnzW7c8UARovdIcbu2aK/65D2aBNF9EOxRpd0vdKirY6Y1c6wnSlFLpeJIVc6dcD+9KDfvg9eLE9ij1Wc/uNRaWRI3zW1icW5qa9IAAAB8SURBVCGf36w0Q8EjbDfSRBD2MNghT1qFNsxQ+qNxmV/CPb8UIgJKHDRd5l+CekahQ1WTZy9vO2MpGcpqlI1Rcn1wxlIyBD4CX8na9bnQp4MKK1BQUFBQUFBQUFBQUFBQUFBQUFBQUFBQUFBQUFBQUFBQUFBQUFAwm8T/AsSw1AD1u4oiAAAAAElFTkSuQmCC;" vertex="1" parent="1">
          <mxGeometry x="380" y="800" width="70" height="70" as="geometry" />
        </mxCell>
        <mxCell id="71" value="" style="shape=image;verticalLabelPosition=bottom;labelBackgroundColor=default;verticalAlign=top;aspect=fixed;imageAspect=0;image=data:image/png,iVBORw0KGgoAAAANSUhEUgAAAMgAAADICAYAAACtWK6eAAAACXBIWXMAAAsTAAALEwEAmpwYAAAgAElEQVR4nO1de1Bb15m/7XTSbifNZttOOm2ns5PNpJvpdjt9zG4ync5mup10Ou12uttpZyeddGOnfiVOHDuOjR9gjMEYA8Y2GAw2AgF6IQmEQAgkJMRLIEC8BUgCjF+YlwAnTpP4xd352HHX1T0Cce+VzrnS+c38/vEYON93vu/ee875zu9jGAoKCgoKCgoKCgoKCgoKCgoKCgoKCgoKCgoKCgoKCgoKCgoKCgqKTULXY/6BvKM6+VKbVn6xWVWX21ThzLbIPFmNsjHK//cB+CS3qcIJPgJflTkNSbo+8/dowMUYtC7zdy61VKpT6/Ln3laeePg/xQdZSv4+eEeR+iC1tmD2UoumQt9vfR73/FLwgNajfULWrs89bswNbJEdogkRoYfC1pLDbIrxwkJJW1W2w+H4HA1WwgGTVNKuz9mvzbhL3xLRfVMeqDz9aXG7tggeTrjjgAIBhav2jwe0mZ/QxMD7CZmgz/pY3VX73zRICYHWoX0y21LSvLUkvE8p+H/vadPZFHMum9F0kc1pucxe6JCzBZR/5QPwSU7LZTajqYBNMZ9n92lPslvC9vFhNt+u7HB4HE/ijo+4BuyqHNaf+WijCdutPM5m2otYzbCBbbxiY61X7ZQ8fNA43cSqhwzsaVshu1t1fMNEOVKdc0fvbnwBd5zEJZQ9tb9+V3Xy/noTdMiQySoHq2gyROiBoBjUswmG0+smyT5N+j1td+MvcMdLXEHZVbt1V/mx1VCTAp9Q6uFqmhhRelMqh6rYvdq0kEnyZnnyqsplehV33MQFtD3ml3crUh6GWl+cbSlmLdP0Myran5GNV2xrvg+1ToEzKK3b/BPc8RPT0PY0/ON7mvR7qAnYWZHEakYM9K2BeX2lGq5id5QnIpPkfe3pu/WDTd/GHUcxiWQ2+bPJNeeXUY5/R3OCrfaaaHIQsvlQPW5i31alIJMEDhZhLnHHU8yh0KGpRDn8LWUya/Q3YA8KSvtf+aBuoiHkTtfl1soy3PEUU4Bv1+3yRM6iHF7l+rE6GpyEJmjVWB27vYz7ubVDnrSqcZlfwh1XMYMUY94i50kkO8hWDOiwBwGlfV0fyPsq2deLEzhJcqIufw53XMUE5M6qNNRrOt2ST4NTIgma2pCL/NSCEnrc8SVpaD2OJ/epT91FrTvMU1bsE09pD8sH5ikL+6biGHJXq9Zd+0XccSZZFDiUJtSTR9arpsEpsQS93K1EvkUKHepq3HEm2YtOO8qSOAvzg9UZ2Ceb0s7LBweqTnESBCoi1N319Gxks8hqKPYFO/N1WQKr9RhpgEo0SSs9NWtzGDyvcL03Ik/ZWAXU7aAcedJyAfskU9oF+eBEYx5nXuHWp7Lb9HvccScZJBnO3Q524rayo2wtPRCMiQPEbfKjnCQ5Zji/jDvuJAG4S45azOW1l2KfXEq7KD4431aCXLCXtFdl4o4/oqH1NH4Zdcdjj/rE2mUdGqCxkaSN003IWq296vT7hgHH07jjkFjk2SpaUE8WOI3FPamUdlF9UOrWIN8i+c0KK+44JBKaHvO/bJdz63aOGrNpcMZogh4yZHLme7v86CqI++GOR+KQUV90jbu7kUCLEWO8mHELYrcyo/7SJO54JAqKrprtqIK207aL2CeR0h5RH6RbCzjzDrFQ4ap5A3dcEiP2driKq0yyszyRrZ+00ACN8SStn7KwO8uTkIoo9GIVwzAgjIxarF3sLMc+eZT2qPgg31mGXLAXt+kKmXhGlbvh6yhB6b2Vqax1mgZo3CTotB2pigJC2aou29eYeMU5a1k36vtTMaDHP2mUbDR9oBisQl6syrOVdzDxCI3L9NM3So9wHJJsOkuDM06TM7HuDCceIEbU3eafMfEG6DHBcUbJYapOEses8dWzW0u5ulonTRdvMPGEcqfhfdSiLLv5EvZJosTrgyx7IXLBLncaEph4QKnD8QVUm4JdimNxe43Wds3Bumbdi/1zA2NA12xvAP4N97isGNgw1RTqeu4n583mzzOxjsIWtQ71hIArmbgnJ9q0X2tZHV4YMXo/9H412E+TdyafGVr0mOD/4B6nNcos7KpAvkWKWioVTCxD39P0DyBkHGz4fn06a7kaX3q6bTec97wrkxsuPr1LE79ovdFxD/d4rVEkxML7+nROguwqT17VuozPMrGKHItsmPNkkB2MOyX25mutqxMrEz8N12/+gP/n8fYm0Qwb1mIjOF7OWuV9TKz280B1gTrRkIt9MqJNz+KoerP+G17w1OAetzXKPF5/jhMvEENql+k3TKzhuPFCALXHbfSZsU9ENAlvAs+8Z9Otya7fvv5l+7UW7OO3RpGgufwn1FlZTW6AiSXIOqrSUYuuc60y7JMQbfbO9vHe0++55Z7DPX5rlAl9EpHbvh3VyUysqCO+pznF6ekByt+NV+LvGu3A/LCLry8H5gYHcY/fGmU2TtvWekwGxw/0iTG7zE8xUke+XdmAegKU9mqwOx8HhxZG7Hx9OTg/3IZ7/FYMLO5RId8iFx1qIyNlaHos3wWp+2DDDlafxu50miDSYgKiWSjEFnQ6ZqSKTHPxRLBRW0pAHbEGu8NpgkiLOo9xLXaC4ymrUTbGSBGK7to/oNQR063x3baAfmLZefsuDaHKCDGm6jK9xkgJcFUylDpi3UQj9iClCSJNmiYa2e1lXFXGo9VnP5DU9dySdl0BalF1oUOO3cm4Sd8gdkH+yw2pyqjPYaSA6rGmr7yrSnuAVEe8Io16K9dsz+JIYKxiPOB/w7vsf210aTxlYGG4q+V6+4NYSpDWGx0POma6PhbDLmuUCDG0R5PKSZB3lGn3q7ubvsKQjlxbeSsqw8v6KyVRQDge8G8NZdv0yvTTEKRNV5slmyCO620PhxdHq7yL0y88/rsnb0/+aGhhxNp8rfUh7nmwbsCyfi3yLZJnU9gYklHlNr+EUu5OrD2D3akbsetW98rE0sS3wrFzdHE8j2+S4EwQOIn3BXzfXO9vTC1Pfc91q2cZ93xYN+BhYxYnzraVHoUF+4sMqUg3FV7nbOvKEtYU9HA7dN3AmXXPwNthM7YOzA93SSlB4LNxmp3+Qjh/xx/wP9V9q3ce97xsqMqIKH7NMBddYUiEsqv2LZQqRaatELsz16N7rv+ah/U8sVl74ZITlK1LIUGgQNIf8H9nM38LkqSH8NqvjCa0KmNZZ80uhjh1RP2ZPyPVEafIVUfsme27NTMzw7vLav/84JAUEmRwYaiTz9/zE54k5hCqjId02R9BTDKk4FKLphy1aIKrk7idGIrwnQ0BIMRuWItIIUF8y77X+f5Nz7znSdetniXc87VZVcZLbZWXGRJQN2D75m4FQh1Rm0asOiJcYZ38YPJ5obaPLXkTpJAgfO6fPA7/bf9zxF77nbaz+7QnOQmyW5HyUNVX8w0GN841yXtR34GglIfdeQjarjpWvSsT/ymG7aOB8VOkJwjstolhq3d54jf2aw4ir/0qQ6gynreV8/q0FA3a3sZXUOqIcFUSt9NCcTQwniGW/UMLww7SEwS42QV6KIwtedOEnAFFkkl1OSxKiFDlMv47gwsnai/MBw8KlPEM3nrsDhNzsRoK7Tc7P5VCgoj5UBhY4Le9HWnWeNGqjGl1F2cYHKjoqjmEWhzlOMhUR+y42fmp0EX54xhdHMvlMw4cCQJnGmLZ7Q/4n+LzYIgGs5uLkAt2ubMquqqM2s7OvzmgPf1p8EB2VRxbU8bD7ahgwmfBeiUkmwXI8Diu8yvJwHVQOB4YTxTL/vGAfyuJn1rmK1b2LUUyJ0EOVJ7+FBQ9mWihwKGuRmVqcbcKu5NQHJwf6hYzOVpvdNznOxZcCQKHmrDQFssPA/PDLtzzimKRS4F8ixS1aDRMNFDXb30epY74PqHqiLA9CZI5Ytg+vuz/AxT7CRkPzlosGLtv2fcrMXwxvTL9dJuAB0VEVRmrTiFVGdVu83NMpHGmsWSUk6Gyg2tKeLidgyIc5olht2/F91s+pSUkJcijJBFxm7sI9/yiqBmpQaoy5lhLB5lIQttt/i+UOmIqoeqIHTNdnzhY4SUHvmXfvwl9c5CSII+SBGwS6hcP63kCNj9wzzOKKebznDiF2FW6akV5OCBx3JjLUUcE5Tujn0x1RNi3F2rz1J2pr3Xc7PpErDGRkCBA2InaqPQ9HIwvetNxz3NIVUY594zuWE3uEhMJlLTrMlGLn9w2MtURO2dcd4TazLLsZ6EUXsxxkZIgj4o1xXjDds647uCebxTPthQjF+ylHYZURkw0uZv+FpTskOqI0+QtzIFjAW+WULuhP4fY4yIpQYDQn0Son0YD4xdwzzeKEJtvq7iqjPs06fdqOmq+xIiFC3ZlE/IApo/Ma7TwjS2kjP1RX45IdHkiLUHARqE7W555z5NirdHEpqxXjXyLFDiUJkYMgHIdSh0RlO5wGx+KgwvDTiE2w2dH50zPB5EYG2kJAuyc6f6Qz6UxKZyLAA8ZMjkJsl2euKrttnyfEYrT5ktTwb8cFO5A6Q634SjCCa9/2f+yEJs9i6NlkRofiQkChC1bIT6bWJn4KYmn60DtqJHdIuPuvmY1FPuE2MxUdptfR6kjniJYHREu9wg9AAM5nHhLEDj0E3pvpGum+zbu+Q/Fk5YLnDiG2FY4a//Iy1hQqgPFOs6rqSyRNU2Sq444sjiqEzLJke7kRGqCiOG7oQhsaoipyrijPJGTJInVZz/kpcooa9OdQy1u4IojbmPX42Z6/+FYbJKcIPDmFLIW8S1N/hL3/K/HvPZS5IK9pL0qc1OGwoV3VC/zdzWprIXQbV1g+03nXUYARpfGcyI9RpITRIzD1TZSr+ZCndY0qDKe4CRIgj7r4029RUDnFJVpFQN67Eaux4H5YbeQyXXd6l2K9wTpnu1dEOLD/vmhftxxsB7L+tCqjHJnVfgPBsgoTpZJoOnN+JLvON+JnVia+HE0xkh6gsBOFKgr8h3jaGAsG3ccbMQD+gxOghypzgmv8kLdY/otKsMUg2S/PYATKxM/5DuxI4uj2miMkfQEAY4sjsr5jtG/7H8Zdxzw1fbV9ta/sqGBebYKjvj0fl06dqM2IiyuGQFwzboXozFOKSRIz6x7Vkj9WrMI1wIiTZRUUEGz0rKhgfu1GXeDfxBW/7gN2oiuW728e2fDhapIlJVINUGgH3u4Or4oSEH8GopsUYt1Zj1o3LU/5Lx6ZAdZo4/McnaxrtVCH5BojVMKCQL0B/y/4zvOgfnBPtzxEI4KCkpLS91d/+2QhkEZMKfyUXsSuzHhcGRhVMF3Qj2Lo+pojVMqCeJZHJORetgqFuHYIjjey7sMoRVQcm3ljuAfgMaJuA0Jh6ByyHdC++YHR6M1TqkkSN/cIO/rqZ7FsXO44yEcnkDcOsxvVppDGnbSVHiTs3CRSF9B35JvO8nnH1JLEFB1Z3hibNm7G3c8hMO8djknQTLqL02HNCyp+vwK93BQh92QcCikgrfjZqdoV2o34uD8SAvfcYIyZLTG6bzZ9We+44RyH9zxEA6hLWBwvKcY8xZDGnZQl8UpL6n01GA3JBxO3pl8hu+E8hWB40P4nOM7TvfcgF8K2+ZXlq/8Pe54CIfqIQP3wLAq56OQhu1RcrvTVntN2A0Jh0JKtaN5jwG6yvIdZzQlP2Hbm+EJEIPAHQ/htnHjbEqpT4Wu59ujSrsf/AOkClEHc7M9Bh9HtC/68NGlAtG6aI5RSIKMLVz9Ou544Jsg72lO3YvJTywh6onRThAoCIQT53DHB/83mhsJQhNk6s7U13DHQ0Q+sZIM525zFumD0likQ1NNvhMarVP0xzm0MNwc7vgGF4Y7oj0+OE1neALWg7jjgW9N1rqLdOilwNnm7SzHbkg4FCKC1oJJkaNvftADT9v1PlX65gbGcYwNBLoZnpj6YOrbuOMhHF5worZ5i6Y3Vah40iKNg0LvyuTP+E4obGniGjfsFg0tDLePL/l2+lamv+9f8f9gfMm/C/4Np5RO54wr9KfGBgAVedzxEA5BMpdzUGhXNYY0rLTDkM5ZtEigkhc4HvC9w3dCSW51jItCDgrHl3z7cY8/HEKjWU6pSWf14ZCG6dymF1HKD7X+BuzGbEQob4jVW3A4CDpXTBTbY0eboCeNUuzRuxtfWNc4lMQofKvhNmgjQoEc7wkNjBXiHn8stY0YWfAYcI9/I+a2l3CSA3QYNjQut6nCGfyD7+tPYTdoI/bPDQ3wnVD/sv/XuMdPGoXIkfZFsfiTL+ESIOdFYFNsXCen7Db9nnMnpPggqyT8ym3Xre7bfCcUpG7s11qIvwUXLTZfa30oRP6nk1C198f7qqNiXOUyhfdQQDXoPFyThd2w9Wi76lgVIuXvnuu/htsGUuie6w+91Rnewwa7DesRdKWD4/uQPjv84sySdl0BZ7FenMAqh6qwG7ceQZGd98QGxgpwj58UQjsDvn70Lft+hXv86xHER1Bvj5K2quywjdR6tE/s13Dvpu+tTGOt07E5sZMfTD7fdI1M8eVoEqoK/Lf9z8Xkg2YaLdbwfmXGpyCWuClDi9u1RahMK+yqwG9oCPbPDYwxAtA723cdtw242TvXx/vzCtA3NzCJ24ZQLHCWId8esjbd5nfsIKMO6898FPzLdpYnsvVTFuzGogglI5spAgyGN+Ddi9sGKR+4OljH50htpGOesrA7y5OQa49Nvz0eQdllegul/HDaVojd4FD0Lvtf4zvBkFzRvHNBGqFjrZAHjG/Z9zpuG0Ixo6mAE8cQ22WdNbsYIUg3FV4P/sVbZAlrtfS4jRb7SitgdHEsF7cNuAiyoUJ8Nzg/0oLbBhQhVrcg2pdnmIuuMEJR5Ta/tE1+lPPLjxrPYDdc7LvUjz4T4NYfbjtw+E3I2wNAqt/giCI4fiGmVV2mFxkxgKryBcKld9zGo+hb8r0qxN6xgDcJtw3R5njAd0SIz8YD/q24bdiMDm++XWFjxILW0/jld1UnOddx96hPsI1XbDG3mwXone27gdsOKRwMPkLfXL8Ptx3BhNjcgxCHA+2FWreD9wU7JIrb9BdQmXiho5TIU3UhF6geXfohdUdG7LISf8D/HSG+mlia+BaJp+fnEQWJmz4UDBfQgSfJcI7Ts3Bb2VG2boK8noUji55KoTZHo+MUbo4FvJtrP4YA+Bq3HaiehNvLEGvn6rO3GZb5DBMJqHpMr6Fq6E8S2PW27YbznhCF8kcYmB/qxW1LpDgwP9wl1D+eec+T0CEXty3BTGvI427ryhLYCqdR0Pp0Q2Q2XPZztn1LElgtgeonnsBYuVB7YVer+1bvPG5bItEuQkjFLslvD53HuBaTwXGa3VjMW7QvbGjdTf+8oyxpNfiPHySwRVvr9fYHQuSAHlcKJHULkw/BFrBJqF+8H3q/ikvwYrPVujvkSauanrrvMtEAKGAjFz+9GuzOCebwoqdODJu9K1efdd7s+igGkuMT2IAQwydDiyP1uO0JZnGPErkwL3SoeN843TRqxju+BAp0wYPYrTrONl5pwu6kxwntwKBSVwy74fdI+U0CyeFdnH5BFF8sTX6XtFZrEHsQg8FxuU+dflfrcfCWpuWFko6qU6hMPddajN1RYleoBmtVQQ8/3DZtltCDEbZjxfJDz6z7Jm6bgnnGcRn59pB3VCczOAAqdMGDeaP0CJEt28TYznwEKMkgte4IxYG5wUExFuQkb38b/Q3sn0qPcJLjuDGXd+9KwVD3mn6zteQwZ1AnGnKxOyyYcOgn5CIQCtDViuTDRBjb2JI3VUybJz+YfJ5Em4/Xn+PE4daSQ6zCafwPBidyLKXDnNea7OCaMDBupwWzd67/qtj2Q8DA7yXP1r5psR8ILMt+lsRLZZphw1rMcT73rfI+Bjeq3fbn3ixP5mz77tens5artpjSz1oP3iXvQRJ2uUBRRMilJ6ntWlmu2tj9+lOc5NhVnryqdRmfZUhAYYtah1ocXepWYndgMKHVwVjAF1peUuATFu5U4Njpct50fTQW8GYJLVkPhfHAeGK020SEw8KucuTCvKilknfXY9Fh9ps/D6p0nCxWHGPNU1bsTgxm87WWVX/A/0okfQJi1O65/iuRbK0ABYLuuYEJuMkXSVv8Af8r4DPc8xbMhqkmdlfFMU5yJOgyPwbhEYYkVHTWHkBlcnbzJeyORBGu1op1YLbRtjA82SGQxVjctlxvf9A3N+CFxbcYVQIbwbs4/QKp15Cz7IXIt0dFp3EvQyLS6gpmOdu+JYeJ7XMo5sFZuJhYmvjxaGA8A9obwD0M162eZQhAKDuHp/T/sXUV/g3qpUAlZGhh2AEJAe0RojlW7+L0Cx03u6LWAXgzhNaAW0u512jTTYU3GFKh7TG/DOcgwYM+ZjqL3aGh2H7TeXdqeep7uH1HGkhODutVO5tYm8OJMzgH0brNP2FIxrkmuQv12gNFO9xODUXoky700lAsAT494e1qJWBuUKwY0CE/rXJtFe0M6ajps37jbeWJh8GD31uZSrQqY9tN510h0qWxApAObbvRcQ/3fFhD0DJtY99FXKN9R5H6QNVlC9nOjihcaq0sQWX4xc4y7A5ej/ZrjlWxT56lBBBuIF3l/gKiryBQ1qa/yEgFoFQH7XSDjdgBqoyTZKoyPiLs9Q8vjpiZOMNIYKyCxHMO62M0TcI12kROchypzrkDV8IZKUHpqt2JUmXMsBVgd3Q47Jl1z8TDugTK1sFW3P62hsFTlnwW2XWgq3YrI0WcMhddRaky6glVZQym43rrQzjDYGIUUJUL28u4/WwNg/rRWnaLjLute7rh8iQjVWh7G/91uxzxSjRmY3f4Zgv/YmkrGN4aJBYdWtfhIUMmJ462y4+u6nrMP2CkjAt2hQO1qJL3kanKuF5ZB6iAwMk4I1FM3pl8BtZXpC/ErUEsdWuQC/OCZqWFkTqqx5q+glJlfEedwjZOk3U9N9xSj5HFUbkYkkLRwszMzBdBfYTEexzWDQgx8rYqhZMce9Xp9w0DjqeZWICsTXcOebDTXoJ9Aviy9UbHA3gai33nQuzT8OEFT2MrgbpV1jB5rlWGfHvInVWnmVgBy7KfSTKcu41SZaz1N2CfBKGfXtD2WEhfErHhXZrY5p7tn4pkJbE1CoTYQHUWOGY4v8zEGlQu06uoXYiTljzsEyEW4UkN97+9y963InUvAwW4bw5/E9ZIUFuG2w9WkZjakMuJF4ghlavud0wsIqtR5uXsY8tAldGIfTJET5br7Q9g9wu+/b1LE78XUzQBytx9S77tI4ujWqgIJk1+xyoCK0cMa7ERHC9nLCUeJlah6274J7QqYwb2CYk0Yeeoc8b1ESTN4Pxwm2dx9PL4km8/fJpBDZg/4H8JxOmAcM/dv+x/eTzgf2N80ZsOiTC4MNwBn01QREj6ibdVBB7QZ3CSY1f5sVV1d33E7/BgxcVmVR2ylqZXjX1SKMnwweVutDpikUNTxcQ6QOHuPc0pTg/2t5TJbANhqoyU9qj7wHzFyr6pSEb2Mq91136RiQeUdhhSUU+Isy3kqTJS2qPqgzPNl5Bvj3JndSITT0gxXpCMKiOlPSo+qPHVs2+UcoUIU+vy55h4g8pl+hVKlTHFfJ4GZJwm5THTWRalaaB2mX/OxCNyrKWDSFXG4Wrsk0UZXR8oh6rWStc5n91WeQ8Tr9C6LM++WXGccz13v45MVUZKe2R8MG1n92lPcpLjLUXKQ0NPo2iK9JJEUYtGg9zScyloQMZJUl4MoY54ubWyjIl3gALeQV0WV5WxgkxVRkq7qD6on7SyOyuSOMlxSJ9FnjoiLpR31uxDPUGym4toQMZ4UmbaLiLfHhWdxogIcEsWaXUXZ1A7GAZCVRkp7YJ9UD1uWuvhETzv6fVF13DHI5GqjKgOQUl1OTQYYzQhjxqzOfO9rfQo+eqIuHDeVt6JfN0O6rBPJqVdVB+U96PVEfNsFS2445BYgDLe24oTD4Kd9m5l2pqiHg3S2EhUSwh1xD3K1AdVg5ZncMch0Shu011GPVnynWSrMlLaw/ZBXnsodURdHu74Ix6gkBdKlRGU9WggSjsZTRONa3MZPL9Hq85+KDl1RFxQdtZuQ6oyNklDlZHSHtIH6Sh1RJmE1RFxIcNcdAV1H1k/VksDUKJJqAuhjpjZUOzDHW+Sg7bP9CNQzgt25mFjFvaJprSLqI6YuKrttkS1c1bMIN+usMWCKiOlnS3pVSMX5vnNqnrccSZZKIdNf4dSZQSlPXo9VzqJ1zDVxO5WHeckxz5N+j2zy/wU7jiTNEra9TmoJ09G00XsE09pD8sHJ63chTmwtMOQjju+YgJJ1edXkDsfg1U0SAlP1IpB3doluOD5O16Tt4Q7rmIGqm7TL6BGJ9jJUCZNixnJLkbciTjzADlRbW/9K7jjKi70tEAlHg6fcAcDpf2vfFA30YhUZQcWtWi0uOMp5gCXZxKrz36IcvjeyjSqhkJQktZ469k9mhPI5EiqOb8CPSxxx1NMAroJoXa1Ht1ABD1X3MER79R6jGtzgXyQqdPv6/rMMdOpi0goe2p/DRqtqAmAC1Zr4nME92OPVVqu2tiCDjlS1wr4ZnnyKqwlccdPXKCi07gX1fvwEQ9UZbBaTw32oIkXVnpq2Pf16SHnA07LFZ01u3DHTVxB7qx+dXdFCufuyF8oO8gm1p1ZmzzcARSr1Awb1m4FogpL/7KJokh9UOkyvYo7XuIScDUTRI1DJsljF65yWoppoaMIn1G60Vr2jONyyEX4X73JtZmf6NymF3HHSVyj3Gl5JrPhcv96T7HgPfiD1afXmtJnN19i89pL176dKbk+yG0vWfNRujV/rYfLn+RczQAU4RD3bJN8xDLopLcDSUGZ07gfdknCmUDKyPngPU36vXJnzW7c8UARovdIcbu2aK/65D2aBNF9EOxRpd0vdKirY6Y1c6wnSlFLpeJIVc6dcD+9KDfvg9eLE9ij1Wc/uNRaWRI3zW1icW5qa9IAAAB8SURBVCGf36w0Q8EjbDfSRBD2MNghT1qFNsxQ+qNxmV/CPb8UIgJKHDRd5l+CekahQ1WTZy9vO2MpGcpqlI1Rcn1wxlIyBD4CX8na9bnQp4MKK1BQUFBQUFBQUFBQUFBQUFBQUFBQUFBQUFBQUFBQUFBQUFBQUFAwm8T/AsSw1AD1u4oiAAAAAElFTkSuQmCC;" vertex="1" parent="1">
          <mxGeometry x="380" y="146.6" width="68" height="68" as="geometry" />
        </mxCell>
        <mxCell id="77" value="" style="image;aspect=fixed;perimeter=ellipsePerimeter;html=1;align=center;shadow=0;dashed=0;spacingTop=3;image=img/lib/active_directory/laptop_client.svg;" vertex="1" parent="1">
          <mxGeometry x="210" y="1122.78" width="130" height="144.44" as="geometry" />
        </mxCell>
        <mxCell id="83" value="" style="shape=image;verticalLabelPosition=bottom;labelBackgroundColor=default;verticalAlign=top;aspect=fixed;imageAspect=0;image=data:image/jpeg,/9j/4AAQSkZJRgABAQEASABIAAD/4QAiRXhpZgAATU0AKgAAAAgAAQESAAMAAAABAAEAAAAAAAD/2wBDAAIBAQIBAQICAgICAgICAwUDAwMDAwYEBAMFBwYHBwcGBwcICQsJCAgKCAcHCg0KCgsMDAwMBwkODw0MDgsMDAz/2wBDAQICAgMDAwYDAwYMCAcIDAwMDAwMDAwMDAwMDAwMDAwMDAwMDAwMDAwMDAwMDAwMDAwMDAwMDAwMDAwMDAwMDAz/wAARCAIAAgADASIAAhEBAxEB/8QAHwAAAQUBAQEBAQEAAAAAAAAAAAECAwQFBgcICQoL/8QAtRAAAgEDAwIEAwUFBAQAAAF9AQIDAAQRBRIhMUEGE1FhByJxFDKBkaEII0KxwRVS0fAkM2JyggkKFhcYGRolJicoKSo0NTY3ODk6Q0RFRkdISUpTVFVWV1hZWmNkZWZnaGlqc3R1dnd4eXqDhIWGh4iJipKTlJWWl5iZmqKjpKWmp6ipqrKztLW2t7i5usLDxMXGx8jJytLT1NXW19jZ2uHi4+Tl5ufo6erx8vP09fb3+Pn6/8QAHwEAAwEBAQEBAQEBAQAAAAAAAAECAwQFBgcICQoL/8QAtREAAgECBAQDBAcFBAQAAQJ3AAECAxEEBSExBhJBUQdhcRMiMoEIFEKRobHBCSMzUvAVYnLRChYkNOEl8RcYGRomJygpKjU2Nzg5OkNERUZHSElKU1RVVldYWVpjZGVmZ2hpanN0dXZ3eHl6goOEhYaHiImKkpOUlZaXmJmaoqOkpaanqKmqsrO0tba3uLm6wsPExcbHyMnK0tPU1dbX2Nna4uPk5ebn6Onq8vP09fb3+Pn6/9oADAMBAAIRAxEAPwD9/KKKKACiiigAooooAKKKKACiiigAooooAKKKKACiiigAooooAKKKKACiiigAooooAKKKKACiiigAooooAKKKKACiiigAooooAKKKKACiiigAooooAKKKKACiiigAooooAKKKKACiiigAooooAKKKKACiiigAooooAKzfEnjDSvBemi81nUrDSLTeIxPe3KQRlj0G5iBk9h1rSooAzrPxdpWoQrJb6lYTxuMq0dwjKw9iDU9xrlnaW6yy3VvHEzrGrtIoUsxAVQc9SSAB3Jq1RQAUUUUAFFFFABRRRQAUUUUAFFFFABRRRQAUUUUAFFFFABRRRQAUUUUAFFFFABRRRQAUUUUAFFFFABRRRQAUUUUAFFFFABRRRQAUUUUAFFFFABRRRQAUUUUAFFFFABRRRQAUUUUAFFFFABRRRQAUUUUAFFFFABRRRQAUUUUAFFFFABRRRQAUUUUAFFFFABRRRQAUUUUAFFFFABRRRQAUUUUAFFFFABRRRQAUUUUAFFFFABRRRQAUUUUAFFFFABRRRQAUUUUAFFFFABRRRQAUUUUAFFFFABRRRQAUUUUAFFZ3izxdpngXw/c6rrF7Bp+n2a7pZ5Wwq84A9SScAAZJJAAJNeS65/wUC+Gmk7fI1LUNT3dfs1hIu36+YE/SplOMd2XGnKXwo9rorwS//wCCjnw8s7bzEj8QXLf8847NQ3/jzgfrXknij/gpJ4w8TaxJH4Z0HTbGyziPzo3urg47lgVQZ9Npx6nrWUsTTjq2awwtSWyPtaivjvQP+ChnjXw+wbxD4U069twuM24ls3z6lmMin8FFepeCv+Cg3gDxMoXUJNT8PzYUH7XbGSNmPUK0W/gerBaIYmlLZhPC1Ybo9yorK8LeOdF8cWzzaLq+matFGQHazuknCE9jtJwfY1q1umc7VtwooooAKKKKACiiigAooooAKKKKACiiigAooooAKKKKACiiigAoor5Z/bE/bXi0uzk8MeB9R82+kGL7VbWQbbZf+ecLjq57uvC9ASxOyJzUVdl06bm7I9j+PX7Svhz4BaHJJqFxHd6u8e610uGQefcE52luvlpkHLsMYBwGOFPx9rH7e3xN1TVJ57fXLfToZGyltBp8DRQj0UyIzkfVjXjlxPNd3EksrvLLKxd3dtzOT1JJ6k+tbPww8If8Jz8QdE0UyGBNVvYrVpB1QM2CR+Ga8+riJy1joelTw8ILXU9Dg/bc+LNyzCLxJLMQeRHpVo20e+Ia0fCX/BQH4jeHNbS51K+tNfsx8slpPaQwA9OQ8SKwb65HXg9vtTwN8O9G+Gvh6DTNFsbextIFA+RBvkPdnbqzHuTXyX/wUn8OaH4b8ZeHLrT7a2ttW1WKc3iwqEMyoV2SMB3ySM9T+FYRxEr7k0pU6kuRQNm2/wCCoWofbAZPB1m8JH+rXUWV8/7xjI/SvoX4D/tFeHP2gtDmn0a6RNRsFjOoaZLIv2qw8wuI2dQc+W5jk2P0by3H3kZV/NeKMlc4PT8BXqX7Ivxsg+Bfxgjv9Rku10XUbdrG9WOWQxxBmVkmMSna7IVwCQWVJJQv3iG6aWKlzWm9B1sJFx9xan6JUVwd9+0/8PdOtklk8X6GyyDIEVwJWH1VckfiKypP20fhjESD4qt+OOLW4P8AKOu72kO6PPVKb2TPUaK8t/4bT+GOP+Rqg/8AAS4/+N0N+2n8MU6+KYufSyuT/wC06Paw7oPY1P5X9x6lRXlf/DbPwvIz/wAJTFgf9ONz/wDG6cP21Phiw48Uw/8AgHc//G6PaQ7oPY1P5X9x6lRXl3/DaHwy/wChpgH1tLgf+06X/htD4Y5x/wAJVbgjnm1uP/jdHtYd0Hsp/wAr+49QorzJP2yPhm4yPFlkPrDMP/ZKng/a4+G9wcL4u0sf729f5rR7SPcXsp9mejUV5+v7VXw6cceMNE49Z8Up/ao+HQz/AMVhonH/AE3o549w9nLsd/RXnMn7XHw3iJB8W6Ycegcj9Fo/4a4+G5Gf+Et0z8n/APiaPaR7h7OfZno1Fecj9rj4bn/mbtL/APH/AP4mmH9r74agn/irdO4/2ZP/AImj2ke4ezn2Z6TRXmp/bC+Gg/5m2w/79y//ABNC/tg/DVzx4ssf+/Uv/wARR7SHcPZT7M9Korzlf2uPhuy5/wCEt0z8d4/9lpjftf8Aw1U4Pi7TR/wGT/4mj2ke4ezn2Z6TRXmTftkfDJT/AMjbYn6RSn/2SmTfto/DCBSW8WWhwM4W3nY/kEo9pDug9lPsz1CivFNe/wCCgfwz0iJWttT1DVmJ5W1sJFK+580IPyJrJ/4eS/D4nAtfEp/7dIv/AI7UutDuUqFTsfQNFeBx/wDBR34eueYfEKH3s0/pJUg/4KMfDsjrrv0+xD/4qj20O4ewqdj3iivBh/wUZ+HZHTXh/wBuS/8AxdJ/w8a+Hn9zX/8AwCX/AOLo9tDuHsKnY96orwmD/gop8OpZNrtrkI/vPZAj9GJqxN/wUI+GkVrJIuoalI6DIiXT5Nz+wyAPzIp+2h3D2FT+Vnmf/BTv4opnQPB0BDOD/a13xyv3ooQDn3lJH+4a+Tofmrr/AI/fE6b9oH4zatrtlYXghumSO2t0QyyRRIgRd23IBONxHQFiMnrXKvo+oaSoa70zUoUHJLWzgD9K8mvWUpt3PYoUJRglY7r4V/CZfGU32y8DLp8TYCjgzH09h717doug2miWaRWttDDGgwqomK5f4YSi08B6UNpjLQByGGDk88/nXTf2yqKe2PWvCxVaU5W6I9zC0HGKfcm1C0juY2VkV1wQQe9eUfFL4ZwRQPfWESxMnMsS8Aj1HvXpd3rKugHUVkarMlxEykhtwIPHtWWGnKnK6Np0FKNpHhWj63f+ENZg1DTLu5sb61O6K4t5DHJHxg4I55BIPsTX3V+zN+2No/xvhttJ1DbpnikR/NARiG9IB3NCfoMlDyMnG4AmvhTVbUw3kygnCuwH51katd63YWFxP4b1ZdB8SQxM2l6m1qLpdPugp8qcxEqJAj7W2EgNjGRnNfS0cQ4vTY+axOHUvde6P1qorjvgp8btE+OnhCLU9JnTzlVReWbN++spCPusPTIOG6Ng46EDsa9ZNNXR4zTTswooopiCiiigAooooAKKKKACiiigAooooAKKKKACvGf2lf2x9K+At/HpNpZjXNfdRJLbrN5cdmhGVMjYJ3HghAM7eSVBXdo/tN/tPaf8BNCEEAiv/El7GTaWZPyxDp50uOQgPQdWIwMAMy/B2o3F/wCMvEdxe3TzX2palO0kjbcyTyMcn5R3JPQCuXEYjl0judeHw/N70tjvfjH+2H42+NGknTp5rfSNNkyJbbTVaMXKnIxI5YswwSNoIU9wcDHlsWnlwB8x+nSvdvhX+w14s8arHcanHF4dspMHddfNOV9ogeP+BEV7fov7J3wz+E2nJca6Yr2VR80+p3OxGPsgIX8MGvMrYiMU51ZWXduyOuEoJ8kFd9krnxKmiFxghSfrWjo2m3Gk3kN5bmaG5tpFmilQENG6nIZT6givs66+OHwn8Fx+VYWlhN5YwBZaaD/48VA/Wse//bK8LwDba+HryUDoWjiSvncTxZllF8sq8fvv+R7mFyTMq2sMNO3pb8zzaL/gpTrmjaGLK98OW95q23y0vYmcJIegZogpIPsDg+1cjB+zL8SPj1qNz4x1WC4ubq/GYRdSCIiPqAisflWvYLH9qXRfEfi3TIJ/D9npdnPcKk91LsPlqT1OBxzgZ96+g/t6+WpQqUIypHTHtRlOdYTHuVXDSvy6dR5nhK+XKNKdDkc9e5+dGv8Awz1Xwxqc9je6df293bHEkRhYlfToOh7HvWafCF9NLgWF7k8/8ez/AOFfX3xH/ajtPh18XbuKxs01sGxihuTHcBFhmV3O3ODk7WGR24qof26YsZbwqxx6Xi//ABNYYri/LKFWVGtVSlHff9EdVDh7NK1ONWlh24tX3S/PU+UV8B6mUBGm6kR7WsmT+lI3w51sqSui6uTntZyYP/jtfWaft4QKv/IsXA9heL/8TTv+G8LfH/Is3X/gWv8A8TXO+NspX/L5fc/8i/8AVvOOmGf/AIEj5GbwJrMKZbSNUX62kn+FIPCOpxn/AJBepAHn/j1k/wAK+uo/28bd/wDmWbr/AMDF/wDiaX/hueBvu+Gbn/gV2v8AhUf67ZV/z+X3S/yBcM5xs8M//AkfJEHgPVblgV0rUmwOgtHP9KtD4Ya8eRo2q4Hf7JJ/hX1cv7dETj5fDUv1+1j/AOJqWL9uBHI/4p2UZ7/ah/8AE0LjjKf+fy+6X+QPhnOF/wAwz/8AAkfJEnw11oZJ0jVT3P8Aokn+FRj4b63JgrourOvr9ikyf/Ha+xof2zYp/wDmAyD/ALeR/hV/Tv2s4r1yDosqgf8ATwD/AEq1xplD/wCX34P/ACMZZDmsFeWHf3o+K5PhrrgfnRtVHHe0k/wqJ/hvq8ak/wBl6jk+ts+f5V93W/7SdpOBnTbrJ6jzFIFbfh34tweJZSI7G4QD+JnXH6V10uLMsqtRhWV35M4K2ExlKPNVotJeZ+e8fw01kkY0bVGA7i0k6/8AfNS/8Kp15UJGh6t1B/485M/yr3L/AIKIf8Fuvg1/wTN8beGvDnjz/hI9U13xFELxrHRLWO5l0yy3lPtU+50CqWDbVGWbYxA45+sPBvjTTPiF4R0rXtDvINS0bW7OK/sLuFt0d1BKgeORT3DKQR9a+odGrHDwxTVoT+F2etux5dTESjZyha/n/wAA/OBPhV4j25XQdax6myk/+JpD8KPES8nQNZ4/6cpcf+g19L/Dn/grz8EPij+3H4j/AGe9P8RXMHxA8OStaZu4BDYapdxjM9rbTFv3k0XIZSFyVbbu2mrv/BRv/gqh8Lv+CXHhvwnqnxO/4SR7fxjezWVimjWAvJE8lA8sjguuEUMvTJJYYBrq/s3GKpGm4PmkrpW3QPFzTScNz5c/4VV4hWL/AJAOs4Hf7DLj8PlpyfCjxAeRoWskn/pyk/8Aia+j/wBtT/gsN8FP2Dfg34A8deNdT1y70X4nIs/h5NH043VxdwGFJjOUYrtjVJY85OcuAATnE37U3/BXT4NfskfsmeD/AIzeIdT1bUfCnj9LaTw7Bptl5l/qqzxCYFInKbdkZ3NvK7cY6kA1DK8VNxUI3cnZabvsOOInJpRp7nzT/wAKo8QI3/IB1gH/AK8pf/iaafhb4gijBOh6vjHB+xS//E1+gn7P3x/8K/tQfBnw58QPBGpxaz4V8VWa3un3aAqXQ5BVlPKurBlZTyrKQelfN/7T/wDwXJ+A/wCyb+1/4b+CfiTVdWvPFuuXFvaXkul2q3Vn4fmuHVLeO7fcCjOXU7UViqkFgARnGlgq9So6UE3JXvo+m5McXKV0oarzPCB8OddOFOiatuP/AE5ycf8AjtRN8N9ZcsP7H1X5e/2OT/Cv0w8S+J7Hwhod/qmqXMFhpul28l3d3U7hIraGNS7yOx4CqoJJ7AV8n/8ABPP/AILc/BP/AIKYfFLxT4N+H1x4gs9d8NRG9ih1mzS1/tqyD7DdWuHYsgYrlXCuA6krycFLA1qlOdWGsYWu7bX7jWOdrqH4/wDAPn6H4Yay5+XRtWY44xZyfr8tLL8MtaRtp0fU8ds2kmR+lfWv/BSb/gpd4D/4JffAOHx546tda1OLUNRj0nTdL0mJJLvULhlZyF3sqKqojszMwAAxySBXefsu/tR6D+1/+zj4P+KHg+K+Hh7xpYLqFpHfIIbmEFirRyKCwDq6spwSMjgkVy1lKnh/rMvgva9uo1i27Pk0fmfAx+HesZx/ZGrfX7HJx/47Sf8ACstflcBNC1ps9xp8p/8AZa/TaPWJWkAa3AHqJM/0r4b/AOCjn/Bw98Ev+CdPxJl8C39t4g8d+ObNEe/0vQRF5ekhxuVLieRlRZCMHy13MARkDIp5VCWZVPZYP3pdkmWsVOT5Y07v1PNo/hT4kJ/5F/Wz/wBuEv8A8TSn4R+JAf8AkX9aH/bhN/8AE17x/wAE3P8Agt38G/8Agpd4c8RSeHZdW8JeIfCFk2p6xomuoiT29mv3rqN0ZkliHAJU5UkZUZGZ/wDgmZ/wWi+Ff/BVPxf480b4e6f4q0648CmGV21m2jhXUrWV3SO4h2OxAJjOVfaw3Lx1x34nKsXQ51Vi1yb3VrX7kPFyV7w231PCl+CPiiRMjw5rhXr/AMg+bH/oNV2+FPiRH58P63kH/nxlwf8Ax2vZv29P+C5/wq/4J5/ta+CvhH400nxZeal4vtre8n1PToIpLPRoZ52giaUM4dssjEhASFGeelXP+CkP/Bcj4M/8ExviHo/hHxvB4s1vxPrNh/akdhoNlFO1vbF2jSSV5JI1XcyOAAScKTgDGZpZZiarpxpwbdT4dN/QcMRUk0ow3PCv+FV+JHTB8O67juf7Pl/+Jp2lfCTW7rXLW1udF1m3SeZUklNjKBGvdslcDj9awLP/AIO9v2eJL6FbnwR8W7S0Z1WS4bT7NxCpPLlVuckDrgc8V9Iftif8F1Pgj+xV8c/hx8P/ABG/ifVtY+JNvZ31vJpVkksGlWl3II7e4uTI6FVdsnagZgqkkdM9GIyDMKMlTq0pRlJO11a9t7ehX1idNpzp/iM07w7F4dtFs9M06e2ghG0Klu2WPqTjJJ9avL4d1GdPlsL/AA3GfIb/AAr6L/aH+PGgfsv/AAQ8WfELxU9zF4d8GaZPq2otbQ+dN5MSlmCJxuY9AMjJPUV+bVt/wd+fs2z3LKfBvxiWMdH/ALKsTu/D7XmvGwPDeJxkn9XvNrfS56UM5qVI3p0dF5n0ifDuowqQLG9Jz08hv8Kjm8Paq3A0/UenP+jv/hUf7AH/AAXb+B//AAUW8U+LNG8KDxT4av8AwdpD69fL4ks4rWNrCNgss6yRyyLiMsu4MQQGB55x5F4p/wCDrz9lTw/qc8Fn/wALL12OGRoxc2Ph9RDMAcb1MsyEqeoyAcV1R4Sx7rOgoPnW6tqhxzevdxVHbzPVZtH1VT82n6gc+lu/+FVrrSNTSIsbDUFXHJNu/H6V0X7On/BcT4CftMfsv/Ef4t6RqniHSfC/wniWXxLHqultDeWYdS0WxFLLIZNpVQjHLcHFfLWo/wDB4R+zvb6g0Vv4C+MN1bq2BP8A2fYR7h67TdZ/A1WH4Sx9apKjRg3KO6s9PUP7aqyv+528zqPEVlNZ38olhmiJdiDIhXIz7iseWEEkqQc88c4r7W/Yr/4KBfB//gpF8GpfGfw61WLV7Cyl+zapp9/aiHUNHmIyI7iFslSRyrAsjAHaxwcdV4n+Efwu8fyGK+0jQ1nccPEv2WUe+V215mJxMMLXeGxElGa0s9H9zPPliHVblyPztqfBng3xlrPw41+LVND1C50y9h6SwtjIyDtYdGUkDKkEHHIr6z/Z8/4KEWGvrZ6P43VNOv8ACwjVkAFtct03SqAPKJ4yRlMkn5AMVU8f/wDBOfTLyJ5/C+u3FozDKW96omiP0dcMB9Qa+dvil8B/Enwiu/L1vTZLeEttjuUPmW8v0ccD6HB9q7qOLS+FmMo0qq8/xP0vjkWVFZWDKwyCDkEetLXwV+yl+2BqPwAsrvRdbW/8QeHrm8+0WiAxJLoqGNFeGABF8yMury4lYtvnk/ebNiJ9pfDP4s+H/i/oA1Lw/qMV9ApCyqAVlgb+66H5lPB6jBxkEjmvXp1Yz2PNq0ZQep0dFFFaGIUUUUAFFFFABRRRQAUUUUAFeKftM/tfWXwc8zR9GSHU/EpX51Y5gsARwZMfebphARxySOAzf2q/2nH+Gmzw14c/0nxVfqATGvmGwVvunb3lbqq9h8xGCobi/gV+xzFAV8RePJTd3Lk3P2GWTcqsTuLzsT87Z5I6eua4MXjYUla+p00qOnPLb8zyn4X/AAA8X/tLeJptd1KWeCyvJjJdareAkzn0jXjdjGBjCgADgDFfR+i+Dvh5+ybpC3D+X/aLL/r5gJr+5PcIB90eygD1Ncz8Yf2vYNFDaR4OSGVox5b3+0eTDjjES9Gx69PrXz5rfiOfV9Rlury4lu7q4OZJpXLux+tfjnEniXh8JJ0MD+8n3+yv82fo+RcB4vHpVcXenT6L7T/y+f3HsnxB/bQ1rXRLBoNqmjWzZAmkxLcMPX+6v6/WvINY1+58QXjXWoXVxfXLHmSeQyN+Gen4Vky6iAeo56YFc14x+LGheBYnfU9RihMa7mjQ72HufT8a/Hcy4jx+Yz/2mo5dl0+SWh+wZPwvg8FFRwlKz77t/Pc66a4XoKqT3jLjDEeuK+OfjH/wWc+F/wAPdSms9LmOvXkRKsLVzIqn0LICv/j1eN65/wAF5vMkIsvCqhe3mM4r1cHwbn2JgqlLDSs+6t+Z63tMLB2nWin5yX6XP0he4BBDscEYOatadrd/ZWbW0Gs6xBaN1t47+VIiPTaGwPwr8vZP+C7upj73hfSwB1LTyLS/8P2dSkQ7fDvh1fd79xj9K9XD8DcU0nejQlG/ZpfqFT+zaytOtTdu7X+R+oVuq20arEgVefu8UG7btnj1NfllP/wXb8RQruj0bwxtzjH29v6ir+i/8FzPFeqziKHwxoNzIxwFh1KPcT9CK0h4bcTVPe+ru/qjOeJy+G+Jh97/AMj9P3u2K/e60wXLKRnOTXwdpf8AwVC+KUNlHc6h8D/GzWsy745oNLnkikHYq6phh7g09/8Agr34lswfN+D3jON16h9NuRj/AMcrKt4c8TQly/VJfgTDHZdK6jiab/7eX6n3jDK2OtTea2Dgk/jXwJH/AMFifEVw5WH4R+LXcdl0y6bH/jlT/wDD3jxaiZ/4Ux47b3XRbrH/AKBXO/D3iZf8wc/uK+tYC13iaf8A4Gj70WZ8dSParVvdMvBORXwNbf8ABXXxk68/A74ht7rotyf/AGSp4/8Agrn4yyd3wM+IQ/3tGuB/7JTj4dcTvX6nP7v+CZzxWXvT6zT/APAkfoFa3PQhunpWxpmourcMcjr71+dSf8FePG6MpX4HeOQD03aVcA/+gVq6T/wVn+JN5IgtvgJ4+mVjyV0q4P8A7JXQvD/iOHxYWX4f5nBW+qTVo4in/wCBo/SDTtVaRlBOAOfwruvCPjPT/Bnh7U9c1i5Sy0jQrObUb65c4SC3iQySOfYIpP4V+Zmjf8FRvite3CJB+zt8TrlicbYdInJH5pVX/gqZ+018dNZ/4JE+ILyH4VeMvB//AAmmtxaBrX2iyc3Njo+wyvI6qCUSaRUiLHjBYH7wr3+F+Bc5nmtCji6EqcJSScnayXXqfF8T4ejTwkpQqwl5KSb+4/PTxb4Z+JP/AAW//az+P3xV0b7Gq+HNHuvFbW15OVMOmW2I7WxhGDmUwqMDgEq5Jyef1j/4NNv295Pjp+yxrfwU12787X/hHKk2ktI+XuNGuHYovv5E29PZXiFfm7+wH/wbW/G/9un4AaD8TrTxj4O8AeG/E/nGyt9VW9OoyRRytF5jQpGFCMUJXL8rg966T/gjF+z98Y/2CP8Ag4H0/wCHUeg6tqs2gXN/4f8AFdza2sqWU2jvEWS/LMAFhLLbyoWPJ2qMk4r+ys8xGXYzKp4DDTj/ALPbkVrNJaO789z8fxVaNSnyLofGH7S3xA1mf9sT4leI9Oub631uDxpq2rw3dqzLcWcqX00omVl5UoRu3dsZr6Q/4Kkf8FdF/wCCpX7JnwHsNdtbi2+JHw8XVLfxTIIgtpqLyR2qQ3cJB6yiJ2dMDYwIHykV6L/wSf8A2c/Fmn/8HCd9oPivwNq7acNa8V22vwX+mSG0NlPbXsbeYWXYYpBIgBzhg4xnIrz7/gt1/wAEYfEP/BNz47jUPBGl6vr3wi8dXmzw5NBE9zNpV1IeNLmIBJcE/umP+sXA5ZWr0KGd4KpisNSr25oQTjK/921n6HfiasPaxT3S0PYv+C9viA+IP+Ccf7BAkIZ5PARkLE88WWnr/wCy1U/4LE+Mf7R/4I4fsBwAkpJ4bu3LdsxW9pFj+ddf/wAHDP7L/jr4U/sG/sVadd+HtTuH8IeFh4b1YWts1x9i1Jraz227bAcOzJIq/wB4oQKp/wDBaP8AY3+Jnww/4I2fsY2OpeF9Wn1HwLYXWn6/b2ls9zLpM95HFNDHKqAlThGQnoHXbnJGfHwOPoQWDnzq6qTe/rr+Rlh68Y+zd9ub9Tw//gln/wAF8vFX/BMP9nH4mfD+20mTxKmuRG/8F+cwNt4f1WQhJnlUnJt2UiXYoOZIscCRmHxp4A8b6t45/ae8PeItZ1K81fXdZ8WWeoX9/cuXnvLiS8jd5XJ6szEmv1V/bD/4N2fiN+0t+yt+y741+GmhWWn+Pbvwdovh7x7pN2yWT2Z8lNmpSBsZeJGKTKPnIRCASGrz7/gsR/wTQ8SfAr/gpl+zV8O/hn4N1zXtEg8J+HNG0y7sdPdxqE9nfSi6mmdQVWTkSyFj8quCeBXdh8+y116lSjG06qd9drL9WYPEUuaUkrXuffv/AAdeft3T/s7/ALGWm/CjQbzyPEPxiuJLe/aN8SW+jW+1rjpyPOdoovdTKK/ILwT4O+J3/BEz9or9m34561Hax2njDToPFNvDaTMxn0qYiO6sphgYkNtKrEDIBkTnKnHuX/Bav4WfGX/gpH/wXxvvhVZ6DqWlPJNaeGPCtxqNpcLp0GmpD58t8ZFRgYS7zyMyg44XqMVQ/bQ/4Nhvjz+y7+yp4k+I2pfEDwn4+i8D2YuZ9D0kX010LQMolaDzUAxGpLlQB8qNjkAVlkWIy/CYGOBqTivbJud1ve6il2tuc9KrTp0vZ9WfbH/B3d4x03xj+w18D9X0y5S703WfFf2+znjOVngk02V0ceoKup/GvsX/AIIGShv+COvwJAOcaNcf+l1zX42fEXwh8cf23v8Ag3c+GRn8B+LdUb4F+OJrC3mGnytcajoJs2EV1HHt3yRwPIICyggKin+FseFfs9/8FjP2w/2b/hd4f+GXw98Ta1pugeGUa00zS4vCNvdzxK0jSFMvbtIxLu3XnnFfMY7h6tjsieW4epBThVk3d20sjVQvQUE9n/mf1iw/LOrHkZr+Wz9sj4AePf8Agkb/AMFTPEPj74yfCnTvjT4D13XtR1K0n8QQPLo/ie3vGdlYz7WWO6jEg+RwSrr90qVNfvX+x74m/aM+MX/BPXwPrvjC00jwx8YtX8PvLexazAbbbeFpBBLNBEv7nenlO0YGV3EYByK/Fj4jf8FK/wBvP/gmR8T/AB34U+PegTfE7TvFcUsLWHjbSX1jw1MzMStxYyRBY2iwceSDtwQGRWHHx3hrQxtHE4qjUSXLpdyS5ls3FinanFSUk77pbq3c+yP+CL/xS/Yl+Ptx8Y9d+CngTV/hf8YNW8G6hb6j4U1jU5LqNdPdC0v9nEuUeLzFj3gBXX5flVTX5hf8EXP+Cu0P/BIr4peMfEd14IfxvYeMNIh02S1i1MWEts8UvmI4do3BHLArgdQc8V7x/wAG2v8AwTt+J/xs/bP1H45N4evPCnhDwhpermzuJrF9PtNZ1G+tJreOztlYAGFPPZ2K5VAiLnLCk/4Nhf2ONU8T/wDBSb4g6d8SvhpbanpXgfw1e2GrW3iPQ1ubbTdSN1AkabZkKCb5JcY52hiOK/SK+NwmFeLWKl7ePLG/vXenS/kZUpx5Jw7nzd/wVD/4KdD/AIKl/tpaJ8TofCH/AAhMNhYWOiwWB1L7e7rDcSSeY0gRBkmUjAXgKOTX0L/wdA+I7O0/4K7aNc6zayajpdj4P0J7y0jk8p7mDzZnliV/4SylgG7E5qX/AIOP/wBiPxL4d/4KueE7P4bfDAWml+ONE0uDw9a+G9GWC11K9SV0mQLCoQShipbOCFKseOatf8HR/wADviJ4P/4KE+FfiFqfg28m8Oaj4X0m3tr4Wxu9Oubu13Ge1kZeMhmAKNjchyMg1tRzehVxWXzwtPlgqdRWvtfZN99dzpw8rRtfpp+B0P7Hv7a37A/7Q/7T3gH4cWP7Ek9hP411200SC+u/FU2oC2eaQIskkJf51BILDPTPWuc/4OXXgsP+C1vh6zs4o7a20rQPDdrBHGoVI1FxIVAHYAEAfSuf8A/8HDnx+8NeJtPPw++AXwN8PXSSotvb6B8OpY55zkDy0KPuy33Rt55rqf8Ag56+AHxU0/8AbU8KfGy88IarYaB4r8J6OUu7WB7iHRtSt4y01nMwBCSI5BXdgMOmcMBdD2sM4oTrRcI8s0uaanq4taa6bmNO8ZtOV7rz8u5/Rp8VvhpoPxo+Huu+EfFOmW2teHPEljLpuqWFxny7y3lQpJG2CCAVJ5BBHUHNfzS/8HNf7D3wn/4J8/tC/DfQfhD4SXwjp+t+GLjUtQiW+ubtbiZbkxo2Z5HKkKpHBAOan/Zw/wCDiH9ur43/ALQXgnwvpOu2/imfVtbsrKTTbXwbalruN5kR1dki3ICpbL5G0ZORjNfQn/B5L8D/ABV4m+KvwT8U6PoGparo11p174bE9nbtORftcJJFbkKCQ0iudg/iKsB0r5rI8Hi8pzeKr1ElLmej0+ZlQcqcuVP7j6zj/wCCb3wM/Yl/4JTfFj4n/DbwdLofivxb8E7xb/UZtUubuWSK400TugEjlVDSbSdoH3R24r8KP+CeH7T3wI/ZyPia4+N3wK/4XY2pRWq6LG2uPpqaUU8zziQv394aPGQcbPev6Wfj1+z545+If/BGDXPhnpem/wDFwtQ+EsWgLp0koUm+GmpE9vu6biwZAem7HOK/mq/Y7/aE+JH/AAT48TeKIE+BPhXxRr16YrWVPHfgibU59FkhL7lhRwPLYlsNxztX0rq4TxeIxDxU6zc5Skkves2ltZnVhqilGUZS/M/Uu7+MvwM+N/8AwbgftLeNvhD8F7f4Jafq17Do2oafHdm9OpXMFxZmKXzjgsoE5UDA2kN618Qf8E6/E/7DOkf8E+fik/7QNjeX/wAaILy6bw7Bbm/S7uITaoLVbZ4f3Cnz/M3mXgcE5GBX2h8PPjJ+0j/wUt/4IP8A7Sa+KvhrpdoLO6s08J6boPh46N9rt4JI7i9MFuBmXywikYGWJdQSVxXxb+xl/wAENvE/7bn/AATC+KHxS8PaVrlv8SvCPiTy9D0u5jeGPxFYQWqvd28UbAEz75AUbu0Rj6tkenllV0o4mOJqOm/ax+0m9tLtPVXdmwTjGF1Lr/l31Pcf+DRrwH48i/aJ+K/jqK1voPhvF4UOkajdMpW0vNSM8UlvEnZ5I4xMxx9xZOcbxn9b/E3i+R55Dk5yR14IzX5Sf8G2v/BRXxP8I/g/8T/hH4v0fUE+G/gyxuPEsGumxaOLw5cmVEns7mQL1mZtyK3zBo3HQ/L9ueE/21vh/wDGKMy6D4hsb6BjzLBMsqr9dpO38a/mPxuxeJlnkp1I6JLVar5va5+neH+UTxMalVR5tf07bntOhfF7XfBl952maxd2u05MJfzIHHoUbI/LB969c8H/ALYHh/xhbf2P4xsYLNbpfLedk82ymz2cHJT6nI9xXzGdQTUYRNbTRzwuAVeNgwP5VSluWZuSK/Kct4uzDANKlO8ez1X/AAPkfZ5nwTl+PjacOWf8y0f/AAfmfQfxs/YSs9bsn1nwFNGvmJ5o05pd0E465hk/h9gTj3FfPXg3xh4k+AvxCF7YtcaVq2nv5c9tOjKJFyC0UqZG5DgcewIIIBHbfCL9oLXvg3eL9hmNzphbM2nzsTC47lO8be68eoNe8+IfC3g39tbwU1/YSLY6/aIF8wqBc2bdklH8aHsfyNftfDPG2HzFcsXaa3i9/l3PyDiDhXG5TK+IXNSe01t/28uh6P8As8ftEaR+0R4MGpWUE+lahBJJDeaXdSxtc2pWRkD/ACMwaKQKHjfglWAZUcPGnoFfmh4o8OeK/gH44khjvL7w5r9kG+y39qEZlyCBLH5itG689HVlPRlIyD9lfs4ftj6P8db8aPdWkui+II7dZfLldDb3zZfesDbtxZQoZlZQQHG0vtcr+lYXGQrRumfF4jCSp6rY9looorsOQKKKKACiiigClrviTTvC9mLjU7+y063LbfNup1hTPpliBmvL/jn+1z4f+HHhvZoV9p/iPxDenyrK0s51uERzwHkKE4AyMLkMxwBgZZfkv9sP4gSfEn9oPXZPNley0mb+zbVWIxGsXyvtx2aQSMD1wwr0b9jn4Jw2ES+L9ZjRcAnTo5Bwi95j+u38/SvJzLNIYWk5y+R3YfCc7Vz0T4IfBxfAEd5408aXSXPia+DXdzPcEbLENyQO2/1xwPuivOvjx+0dd/EmaTTtNaSz0FDjAO2S9939F9F/P0qr+0F8dJPiBqn2DT5GTRLR/kxwbtx/G3+yOw/GvLbydn6V/NXGPG9bE1JYbDS0+0118l5H7fwfwXGko43HK8t4xf2fN+f5Es9xtjJGV/Gub8ZfEDS/BGmtd6rex2kIBxuOXkx/dHevOf2p/wBsXw3+zN4WurrUry3N1DGWKFsiPjjcBySeyjk14Z+yp+wD8dP+C2OpxeLvFOoal8I/gJM+Yr10xrHiiIHkW0ZwI4T08xvk9BIc48PhLgbMc/neiuSkvim9l6d35H6HnGbYDJsOsRmMrX+GK+KX+S838rnP/Hf/AIKhap8SfHafD74L+Htc8b+LL1jCmn6Fbtc3BOcZdkB2j1xgDuwr5y/4KD/ssftI/CKL4eaV8V59P0jX/i3dPBo/hW11ITXFqA8UYe5WPKDLzKvLuchs4xiv6Nv2Pv2I/hN+wF8N4/Cvwp8IadoFqQBd323zdQ1Jxj95cXDfvJW47naOwA4r8sP+DlnWo/hn/wAFKP2WPG+tMbfwxZRIJrlx+7hMGqRSzE/SN1b6Cv6O4b4TyTJ3y4WkqtSKbc5au6XRbI/IcR4gZlm2LjhaVqNF391bv1e7PRvgb/wRq/ZR/ZR8FWfhnxx4B1H4u+OLCJF1vWL7UJ7e0e6KgyJbwxyIqxKTtGQScck13y/sXfsfabFm3/Zg8HvjtPLJIfzZzXUeO/FFj4r8U6pq2nahY6jYajcPc211bXCyxTxudyurAkEEEHNcvfa9Fbg5niB93A/rX4nmXinxNPFVFCryxTdlyrRX03Ptcr4CwFahCdXmcmk370lq99E9C3pv7On7KOhoZIP2W/hqCP8AnpZxyH/x5TW38SP2f/2WNDk0iL/hl74X3keq6dHfu66ZbweSXJGz5Y8nGOvFeda74+s7G1bzL61QEcfvlH9aXVvjroHjS10jydW09nsdPjtXBuFyrLnIx9a85+KXE8Yyft3ra3urT8D0peF+XyqU5qlJx15vel2069zRv/2SP2O/ECMLn9l3wgm85It7iSDn22MuK5Dxb/wTO/Yi8c27wzfATUtAMg2+fpPiC6SSL/aXMpGR7iugtfFNpdqBHf2MgP8AdnTP86si584YSRGPs4Nc3/EWuLYarEffFf5Gr8M8mT0jKL8py0+88g/Yg+M2vf8ABHz/AIKreEv2a7PxnrXjj9n/AONdlFf+ERrLh7vw7cT+YERW6AebG0bqoCtuVtoOc/sw+vSA4KqSOOVr+e79qXXP+Ft/8F0f2SfDeiSLeat4Z1DTlulhbc1uq3j3JDY6bY1diOwr9+ri5BlcgjknGK/o7Ls5xOOyrC5jV9ydWN2vO+5+D8S5TDB4+eHWvLpfv5vz7mymruAcKn4LQ+sykjkY+g4rEa84AzSvd54OSRVPGVv52fP/AFePY2f7Zl/vD8qP7Zl/vD8qxXveSaVLrLZ61DxdX+ZgsPHsa0mtSDGWH5Uf2xOOjVlFyT14qRWweKaxdZ/aY/YR7Gn/AGnOf4zUUk7Sg7m3bhhgeQR6GvLfiJ+2b8Kfg/41h8N+KviD4X0LXZyqi0vLxUeMt90Oekef9sivTLW4jvbWOaGSOaGZQ6SRsGV1IyCCOCCO4qXWqS3k38zSrg6lGMZ1abipaptNJrum9x808dravLNJHDDChd5HYIkSKMkk9FUAfQYr4L8W/wDBa/xF8RvFup2/7Of7NvxF+O2gabO9nN4ut5E0nRtQkiYqwtZpVLXCK2QHGF9Mjmu4/wCC8njDVPBn/BKX4rS6VdT2VxfwWWmSywyFH8i4vYIZlBHIDRuynHZjXivh3xvd+DvDOiaXpd1cWdhoun21pZ29vMYYbWOOJVVERcKqjHQCvn+I+KaOSUYVqlN1JVG0le21r3Z9dwjwbPOYzqJpcumt/wBD2z9gn/gsFov7X/xn1b4S+NPh/wCLfgr8Y9JtDfN4X8RgN/aNsv3pbWYKvmhepUqDjJG4AkfXstqJwFkSOWMMHCugYbgcg4PcHkHtX4m/tPfEXWfEH/BXz9hzW2vZm1iLxNNpL3e797LayPGrws3VlKySDB/vn1r9woIP9KGRwG4r38nx8cywVHG04uPtFte9rOx8/wAS5TLK8bLCT3XbVHxZ+1Z/wVyb4c/tA6j8H/g98KfEvx5+JGgRRz69b6VKltpfht3+aOO6unDKsuMNsAyPXOQPMLz/AILleO/2a/iv4d0j9pj9n/Wfg/4N8VXCWNv4zsdXXV9LsLhz8q3RRB5ak9TnIHO0gEj5i/4JPfErWX+CHxM1831yNV8a/E3X9R1a6R9st7ILnYpZupCgYAPTJ9a6/wD4KafEu913/gm38Z9I1U/2jYz+HpJVjuD5nlypIjI4z3VgCD2r5HF8b0sPnn9jxo3SlyOV9bvql6n3mG8P3VyZY5Jax5r3d9r+nyt8z9dLnXbLT9Dl1ee/s4tKhtzeyX0k6rbJAE3mYyE7Qm35t2cY5r4H8Xf8Fx/H/wASbzULz9nL9lf4n/HPwFp08luPGUUo0rTdWaM4kNisiF7iMEEB1xuI4FfOX7bnj/xFoX/Bp38LbiXVL0Ta3o/hvTdTkWVhJd2Mk4BhZs5KsiopHcDHQ19B/Bv406p4O+Hfhmy0y/uLOx0vS7WCzt4JDFDbxrEoVERcKoA7AYr2eJ+KMNw/GnKvTlUdRtJJ2slbd/M+a4a4PxGcU6lShJe4+t+voeyf8E5P+CvHgP8A4KManr/heHRPEPw6+Kfg1Sdd8F+JLfyNSskyFMkeQC8YYgHgMu5cqMgn6L+LPxa8OfAf4ba14x8Za3Y+HfDHh61a81HUbyQJDbxKOSfUnoFGSxIABJxX5BftAfEa7u/+C/H7HXjfT0j0/wAQ+KEvPDWu3duojbV7VVcKs2PvkJIRk9lX+6K9N/4Li6ldfGD/AIKN/s5/CrVJBf8Aw/0rSdS8daxocw3Weq3UEix2puI+kqI/RGyp3Nkc16VPOMNWy6OawuqTi5W6q269dDz58NYhZtHKmrVG0t9NfPsX9X/4LpftD/tAakL/APZr/Y98beNvBDMVsvEniSR9Lg1KMdJIkwqhCMEZc8HoOla1n/wUe/b9s1E97+xt4TilblhF4mAk+mQx5rsIv2sfFt/aLBNrF0kMahI44CIo41AwFUKAAAOgHSo/+Fk6pr8ZkGqagX7/AOkPx+tfm2L8U6Kbjg6Mvm7X+SP0rD+F1ek74pQt6yf46HC6p/wXj+OvwDR774y/sZfETRNCjP77U/D95/aCQDuzZTbjHq4+tfTf7Cv/AAWe/Z+/4KM3o0PwL4uWDxb5Zlfwvr9v9h1MhRljHGxKTbec+UzYAycV5foHxo8YeDG3afrd5sxnyZ286KQdwVbIxXyt+3Z+xP4D/bBlj8Y6Bo0Hwl+NujTC+0rxb4YH2NZbpPmRp40xzuA/eLhx6kcV6GUeJmAqPkxcJUm+u6PMzXw1r2bw0V5Wl+admvk2fsxdXixoWeREjiUncxCrGoHJ9AAK/Of4zf8ABxt8PbT4van4J+CXwv8AiN+0PrOl3DQX974TstulCZeCq3G1jLgjG8LtOOGNeFD/AIKl+Nv2tv8AgjB8ZPB/jFn8PfHfwjqmnfDXxNNaHyvtq6hdxW638e37vnQGcNjjcrEYDAD1f4K67Zfs3/CvS/A/ga3tPDHhzSIlhjt7CNYTMyjBkkZQGd2PJZiSSa+h4i4pw2T04uunUlO9knZNLrfs7ng8KcB4vNvaStZQfK07rXr9x1Ol/wDBWz9qjXrMXWnfsE+O1QfNH9r8V2kLrkf3XQMDj2rM8T/8F2/iv8HdO+0/F39iT4z+HdBRv9Jv9NaHV4IADy5AQLgdeWFW4fiXqusEt/al+5HJIuH4/WtHTfjb4t8HXCyWniPVYCOdrzmRG9trZBFfJUvFmhC3Ph5KPlK/6H2FbwnqLSMot9ndP79fyPoX9hf/AIKefA3/AIKE6FPN8KvFmn3OsafH5l9oF1ALHWdOGcEvbthioPG9Nyf7Ve/GXzUeOTbJG4wysu5W+oPFfjj+2V+yh4Z+PWpWvxQ8BywfB39ozwy5v9C8YeHVFpb6tcKOIL6FfkKyfdMmP4sMGUla+2P+CPH/AAUiP/BSL9lb+39csIND+Ing++fw74z0uIbUttRiHMsa9o5R8wGTtO5cnbmvu8q4jwubUXisFNvl+JO91f8AQ/Ns/wCGMXlVXlrwai9n0+/qfWdhptvZbhbWtrbs/BMMKxlvyAr4x/bL/wCC6nwU/ZT+If8AwgOkRa98ZPicJdg8K+CrMalPbTA8LNKP3cbg9VBZ17qK8y/4KaftV/ED9rH9oi4/ZQ+BXiSLwcthYLqPxZ8fq5A8J6c4GLKJwQRcSKeQpDfMqgr85GF8DNC+G/8AwT98Av4Q+Avh210WR02ap4wv4Vn17X5P4pXlYZjUnkIuFHYCpzziHBZZTVfMKj5n8MVrJ/Lp6vQ7OHuEsVmcrUoc34JLvKVtL9Ek2dlpH7fv7dnxcVtQ8K/sgeGPB2jN80P/AAm3jFbe6kU8jMa7GU+xWsnxd/wV0/ax/ZgZ774vfse3Wq+HIBm41XwFr66r5K/3vLw5wP8AaIHvXN6h4r1jxZeG4vdS1PUriT5mea4eRifxNaGiePtd8EzLNZ6hf2rqdxVZWGfqM1+fS8V4RnzUsN7vnLX8j9Kj4Ue7aUoX7JSX/k3N+nyPp/8AYL/4K+fBL/go15th4G8Rz6d4ysUL3nhTXYfsGs2oH3isRJEqjnLRFsd8V9Iyb4cMCAAewxivx4/a6/Z98KftfXlj4mEB8BfFfQpFudD8caAPseo2dwnKNKUx5q7uoPIGcGvr7/gkF/wUO1z9rXwZ4m+HXxRitLD44fCaWOy8RpAAkGuWzj/R9UhA42ygfOBwH9AwA++yHibB5zSlUw14zj8UXv6ruj874n4LxuTKNWrH92+vY+vIrKxtra5txptgLW+ZnuYlt0CXDN95nXGGJ7k5zXxJ+1j/AMG+3wH/AGktVuvEXgxNU+CnjyZzMNX8KyGG3mkJzmW1yI2yeu3aa+4nfmntbNJETtIHrjivbp4qrBt3ununqmvO58rQr1KElUoScJLqnY/CT47fB39qz/gkjNLqfjXRR8VPhhbN83i7wvG0kttH2a8tT8ye7Y2/7Veq/syft9eCf2mNAhuNO1G28xwNzocKhPZ1PzRn68e9fsKl15UbW8yJNbyqUdGUMHUjBBB4Ix2Nfl3/AMFKv+DeOy8Y+J774t/st3lt8O/iRHuub3w1G3k6N4gbO5gg+7BI3pjy2J6L1r43PPD3J82i6mDSw9by+CT819n1R+qcN+KOJpSWHzte1p7c60nH5/aXkzsHQFQwIZWGQQcg1o+CvHGpfDnxJBq+jXTWt7Bxnqkq90cfxKfT8q+D/wBjz/goFquleObz4ZfFLRdQ8I+OtEl+zXulX8ZikWQcExA9R329McgkV9q2Oow6taR3FvKk0Eo3IynIIr8Hx+W5hkmO9hiU4VI6p9/NPqj9rnQw2MwynFqrRqLR9H5NdH5M+t/7U8NftpfDJopo0sdcsFyyg5lsZSOGXu0Tfr06ivj74pfC+XS7+50DXraWOe0njmjkileGSKWKRZYLmCVCHjkSREkjljZXjdFZWVlBHQ+DPFuoeAvEsGq6XcNb3cB6j7si90Yd1NevfEK60r9ojwImoWyrDq9mCAp+9DJjJjPqrdvzr9Z4W47U5KOJ0f2v/kl+qPwviTgapg6j+r60n8P91/yvy7M9V/Y9/bL/AOF+XGp6Br+lyaH4h0eSOK2nlnhMHiSLyEke4t1Ri6FXMiPG6qcxll3Icj3uvyouDNaTsElvbG5jJAltp5La4t3HG5JEKvG4PIZSGBGQQRmv0i/Z0+I1z8V/gj4b12/ltZtUu7NE1F7a3NvA92n7udo4mkkaOMyKxVWdyFK5Ynmv3LC4hVY3X/Dn5Pi8M6UmmrfodrRRRXUcgVwf7TXxFn+FfwN8QazZttvooBBbMGAMckrrGrjIOSm/fjvtrvK+S/8AgoZ8cbLWRbeBNNLz3FndJd6lKpwkbBCEhH94/PubsMKOTuCxUkoxbZcIuUkkeH/AT4cL8RPGkUM4Y6dZ4mvGHdc8J/wI8fTNeyftDfFJtOso/DWmMsQaMG6KcCKPosQ9Mjr7fWqXw7tbb4K/Cd7udR9skXz5V6GSRh8ifhwPzryLU9cuNbv57m4fzJ7hy7sTzk1/N/iHxY6s3QoS0ei9Nm/n+R+28E8MKU1Xrq6j/wClf8Aa0x389RXi/wC2H+1zpn7NngyVjLG2rzxMYYyfueh+v6DrXdfGr4u6Z8EfhpqvibVpVW30+EuiFsGV8fKg+p6185f8EnP2Ide/4Ky/tHTfHH4o2kg+DvhG+I0zTpl/d+Kb6NsiLaetrCQDIejsAnQPXyHAvBtXPsZafu0Yazf6LzZ+nZxn2EyTCPG4pcz2hH+aX+S6/cdr/wAEyP8AgkJqP7a3ifS/jv8AtC20z+DhIL3wx4QugR/a/O5Lq6U/8sDwVQ8yYyflwG/YRGS3tYra2ihtrO3RY4oIlCRRIowqqo4AAAAA4GKLyQLtQIiRxqFjRBtVFAwAAOgAr5x/4KM/8FMfh1/wTO+DTeJ/Gt297qmobotD8PWjr9v1qcD7qA/cjGRukb5VB7kgH+lVy04Qy7L42px0UV1/z8z+cczzPF5xjJY3GS5py6dEuy7WPo6OSSThQTjrgdK+Yf8Ago98Cv2dv21vhOvgn41eLfCGlxWNwbrT75/EdrYahpE+3aZImd+MjhlYFWHBFfAEX7M37ZH/AAWe0eLxt8YviS37NHwT1TE2leF9OM0V5eWx5VmhVkkkypHzztznKxgVo6X/AMG7X7I3hW3W31LXPi9431EkLJdm+t7GKRj1bAi3fqa+zyrgnEykpOpaa6RTlb1e3qrnNRw751yN3XZfqflz8L/2VNY8V/tS/FPwT8N/HF9rHhPwDqU9nYammo+WmoW6ztHFMuw7DuC5+Xj0r1f/AIYN+JSg+Zr2qy7O/wDajHP/AI9Uv/BN7QNN+EP7T3x10LSUuRpOj6g2nWQlffIIYruZEDsAMttAycDJr7Cl8WRySdQDjnmv5r8TuJMxyziGtgMNCLjC2vKt7a/if2d4ZZXRnkNKtV1k3K7b835nxld/sFfECfl9R1GTAx82pE/1qnqn/BOf4g2kME1vqUiGeMPsbUSCvJHb6V9rJr/nN8oZs/3Rk/pWpfXU66fYYt7kBrUMCY2HVm9RXwlHjnOub4Y2/wAOh91XwGE0hpr5/wDBPgSX9hT4pWmduuXUYUdV1Nq8y/aG+G/xP/Z68E/21e+J9WhthOkC+VqrbmZs9g2ccHmvvz46/F6P4SeB77V5o2lmjAjtrcDmeZuFQfU/kM1xH7K//BMW+/av8QWnj744fb7vQbz99DpAuHtmvF6qq7eYoR7fM1f0N4N8M8QcWSnj68KcMLSdnJwXvS/lj3ffoj8o8Sc0y7J8K6NOT9tNe7aT083v1+81f+CPX7RH7D37AWt23xV8b/Fnxb41+M2p6f5byTeGrxrXw4ZkxOkPysZZiPkMxb7uQoGST976t/wc/wD7I1nEfK8UeMrsjtD4WuQT/wB9YrD8HfsIfsu+ELeKKH9nL4eXDRADdeLNdE/UyOcmu70/4F/ATQowbH9m74MqV6b/AA/C+B+Ir98xvh57aabU7JWXwJW8lzH8pVantajq1E3J+Z57qX/B1Z+y5Z7vJh+KF76eV4fRM/8AfUwqt4c/4Ovf2YNS1JLe/svijo8Ltj7VcaHFLGvuRFMzY+gNfS/we+DngHxHbXGsSfCL4LeD/CelZ+16k/hazGcfwR7l5b+XueKrePviN+znqIl06D4HeD/FFo2Y5bi58O2Fuso7lQY936CvE/1DpyquhQpznJb8rTS9XtfyuQ3FtxjTbfk9j0T9lX9vz4O/tuaGbz4W/EDQPFjRrumsoZjFqFqP+mltIFlX67ce9ettcmA8Hrz0r8nv2mf+CMPwX/ag1FfFn7MupX/7P/xr0oG707ToLl7bTtSlX5gkbq2YHPZozj1THNd//wAEhf8AgrB4x+L/AI81j9nX9oSxfw/8e/BO+GKe4QQf8JNDEPmJUfL9pVcMSnyyod69Gr5bP+E6uAi5xvpvGStJfLqvNaBTpc0bx3W6e5+k0WrAnkflV611BSwbBwDXJQ3Tg9WOfetK2klGDh8CvjFMmdFJan4lf8FDvhLr/wALv2qPGWm61pmpXcmuatNf2N21u8qalDM5dSjYIYjO0r1BXGK/Vn/glr4H8TfDT9iPwhpHi2O9ttRiWWSC1uyfNs7Z3LRREHkYU8A9AQO1e0Rqtw6ebGkhQ7l3qGKH1Gehq4ZierE5rSnCndyjuz7zivxDxGdZPhsorUox9jb3t27KysunnufKX/BeW1Oo/wDBKD4sFRkwQ6fMfYLqNqTXzZZ3wms7dySA0SH/AMdFfS3/AAXFvBD/AMEnvjaxJITRYm47EXcGK+UNLu92hWHJ5tYW69cxrX5h4pX9hhfWX6H2/gvTVShiI+a/I8s/az+HnxGf9oP9n34pfDfwJe/Ea8+E3iltWv8AR7S6jglmi/dkDc543FGG4A4OMivsGb/gsZ+0WbKV7X9hvx8Lgq3lGXxXaLGGxwWJj6Z615DYkynKlgy8ghsVekuJ9gDXE5A7eYSP515PD/ibXyvBU8F7CM1DZttPe57/ABJ4YYbNcbLFzqWbt0elvRo8c/4J1fBPxp+zP+zGugfEPSRoPiq+1vUNXubE3Ec7QC4m3ruaNmUE8nGcjvVr9v24GsfsTfFW33BvM8N3ZH4Ln+lei6jeGEEDt1zXkn7Y+o/aP2TfiTF/f8O3ij1P7o18zTzSeYZ/HHyXK51FKy6ao+zhkUMHkzwkXdRptfdE7D/gpZCrf8GoXwvVFH7nR/CRwOw82IV1fgLWf+KQ0gdAbKD/ANFrXO/8FDLRrj/g1G8AqQf3Xh/wq/PbFxB/jVvwRJjwfpPPSxg/9FrX6P4wRvRwnrP9D8x8F8OnSxUfNfqcF47xqH/BY39iaXdlU8Q6kuM9xBuFeqf8FRNYJ/4LZaH5jZh0j4T+Ug9DNqBJ/PbXjmt3Jf8A4K/fsWAHp4o1Afna16N/wVXvWg/4LUyxjcT/AMK2ssYPGBdy5/U161G64Gi1/JL/ANKOKhhIT8TIUJbf/aXN6DWPkBBGDXzL4d+C2k/t6f8ABTLxr4T+IPjPxHpXgL4b+G7K6i8P6brT6auq3E3JdnVgdq7ssV5PyDIGa930vUTHEpzkAdqo+JvgN8P/AIm+JYPEOueCfDWp67HAtt/aFxZhp3jUnajHOGA9weOOlflPDGd4fKcXPEYiDleLSta6btrqfr/F/DVfH4VYajPl95NvySZU+APwr0D9mb9q7WfB/wAK/FuseLPhdd6I95q+n6hqj6onhLVVlRYY4Lpic+fG0heEksnlBj1Fe7XflGRuQST0xXH+Gbaz8IaLFYaXY2Om2UA+S3tLdIIk+ioAB+VeW/tcftmaN+yz8Nb/AFrU7u2N6kRFhYbwZ76c8IiL1OTjtXLmOLrcQZopYalaUrLTd+btpc+fo5PTyjB8tWp7sU223/Wh438TvDy2fxm+Pur6eoGmP4p+H9lqDJ91rv7TPKA3+1sAPrX0jD4mdckHPbrXEeI/2R/FH7MX/BA/UfHPj+3mt/iX8RfH+kfETxLHMpWbT42uY0tbZgfumODaSP4WkYdq07PUPNKlSCJAGB9cjNfaeIuXTwscHTk78sOW/mrXH4TYyGaYbGVYK371tLyaVvyIfhR+yj4b/wCCmH7fX/CqfH/ifxhoXhLQPBMniKHT/D+sHTZdZu2u0h+dgDuWKPJwBn5h2rFb9mkf8E2/+Ck3iX4E+GPHuveOfh5rng6Pxhp1rq+oC+v/AArcLc/Z3tpXGMLIPmXIXI28ZBJn8efs+eBfjPqdlf8Aifw3BqupacjRWt7HfXVncW6N95Vkt5I22nuCa6H4U/A7wR8BrO/TwZ4W0vw/JqzK9/cxNJPd3zLnb5s8rPI+MnALYGelFXjDKIcM/wBj+xbquNr2VlK9+a97nBiOAs5/1t/thV0qKfw3d+W1uW22/wDmdXrl6bi3aJmyrdq80/4I/wDx1t/2Uv2v/wBujUzIo0LQPCtn4ykhb/V/aoo5D+bM+Per/wAffjJovwL+H2peJ/EV7HY6Zp8TOxZgGmOPljQd3Y4AA9a80/ZE/Zt8T3n/AARG/bE/aP8AEFpLput/HTTTLo1sch4tFs5xh8EfdkJcD1WIHo1dvhLl1eUq+IatTaUfJu99PQ8nxoxWGjhMPgLr2kpp+i1V/m2dj+wrYaj4N/ZtfVdVuprrxV8U9Qk8X+Kb2Qky311OzOiuepVFY7R0G41v/Hb46ab8BPhfrPi3VnIsdGhMrID8079FjGe7MQPxqH4LajHefB/ws0JHktpNqUx0x5S4ryH/AIKXWcUv7O+m6hexmfQdE8UaTf65EELh7BblRNkdwARmvjaiebcRKni3pOpb0V7WXy0P0OeApZJkUp4WF/Zwvtu0t/M7T9nD/glZ+1Z/wUz8FWXxG8ZfFOT4CeD9djW78P6JYwTS6jJasMxzPEjx7AykEGRyzA52qCKh+M/wq/aB/wCCOXjnw5B8XPFkHxh+Bviy+TSLbxjHCyXvh67k/wBWl0rFmVWxxuZ1YA4YEbT+3vh3V7DX9DsNQ0me3udJv7WK4sZrcgwywOgaNkI4KlCMY4xXxz/wcPeJdE0T/gj98WbLWmt2uPEK6fpWjQOAXutRe+haFIh1LgI78cgIx6V+8Vcqy6tSeWyoRVOzSslded99D+XaHGebxzCOM9q27rTo03tY+fLi+USfKQy9cg8HPevIbD4sv+yt/wAFe/2dfiNby/ZtN8fTy/DrxJjgXMNwQLYv6lJXQgn/AJ5iuw8Px3OjeFtItbln+021hbwz56+YsShs/iDXz5/wUEmafWPgQIMnUB8UNGNrj727zl6fpX4ZwDiJ4fiOlSpu6k5Rfmtf8kz+mOPsup4jhvESqraPMvJqz/4B/Qg8vkzEMMshI256n0r8Q779vr4vaH+1ff65c+KPEdl4rg11rY+G555FiK+eUSx+yE4KFSFGFzzuBzzX7W6nd/6dNyeZG/nWJd+ENE1DxRFrdzomjT6xbDEOoy2MT3cI/wBmUrvH4Gv3vEwhJ2bas+h/K/Dmb0svdR1qEavPG3vdPTRnSJeNcWyM8XlSsisyZzsJAyv4HimpdNbuGQ4I/I1SlvQgxnk1C100uMD8qylU7Hhqj3PlH/grz/wSR8Of8FK/hqNe0EW/hv40eF4TJoOtx/umvNnzC0uGHJjY/dbqh9sivza/YN/bJ1nw7471T4UfFK1udB8eeGp2s9RtLxPLkkdDtaQD+8ONwHDAhhX7rw3T2riRScrX51/8F9/+CXk/7Rnw7f4/fC22ew+MXw4txeXkVmmJPEVjCNzDA+9PEoJU/wAaBkOflxz5xk2Gz7B/UcVpUj/Dn1T7N9mfccE8W1MlxHsKvvYepo12815o15MRAMvzxsMgg8Y9au+EPGknhHWVnXcbab5LhB/EueD9RXy//wAE4/20rL9qT4QWyzOsWtWEYjuoN2fLcD5lHfBHzL7HHavf5ZSjcAH29a/mTG4XE5fipYesuWcHZn9DVKNOtT5X70JK6fRp7P8ArZnTfFfSU+2Jqdq26O5x52OmezD6ivpL/gmBq8x+Hfi/TLnUPtkkOuC+tofI8v7FbS2sEax7tx3kzQXD5wuPMC4ONx+W9K1n7bpUmnzsWCKTF9P/AKxrvf2FvHkvhH9p3RbNdOF5H4hjutIuLoyxx/2cnlNciQ7iCwaS2ii2pk7plOMKSP6B8MeJ/rdN4Gs/eitPNdvkfgXiRwu8LFY2ktL2fr0fzWjP0Dooor9gPx4z/FviSDwb4V1PV7oO1tpVpLeShBlikaFyB74Br87Ph3HN8SvitNqeolZpZ7iTUbo7cB3Zix47ZY9K+rf+CgnxM/4Qv4J/2RDIFvPE04tcBiGWBMPKwx1/gQg9pDXzF8E2XRdGutRbjzM8+iqK+V4xzJYPLpzTs5aL57/hc+k4Vy94rHRSWkdX/Xqavx38UG71OHTUb91aLvkAPVz0/IfzrzxpijE89Ks61q0mrarNcTMTJO5c59681/af+MVt8BvgN4m8V3Lqv9l2btFk43yn5Y1/FiK/kbGVJ4zFclNXcnZL8Ef1VlGBVDDwpff+rPk79rb/AISP/go5+3Z4J/Zt8CXEy2t3dBtbvIcsljbrh7mdiO0cecZ/i2jvX74/Cz4U+HP2efhN4d8C+ErGHS/DnhSwi06wtY1AEcaLjJx1ZjlmPUsxJ5Nfm5/wbH/sez+CfgV4n/aM8W27N4r+L07w6Q8y5kt9Iikb51J5H2ibc/ukcdfpRqetw2ME9zczR29tbo0s0srhUiQDJZieAAAST0AFf1VlOUQyPLKeW0/jteT7ye5/OPGeeSznNp1IfwqfuwXkuvzep51+2p+194R/YY/Zw8RfEvxrdCHSdCgJht1YCfU7luIbWEHrJI2APQZY8A1+CPwv8T/HP9p39qTT/wBsn4p/CDVfH3hm7uni8K2M1u0mlaZHGx8owwfekigPIYrteTLkk1798RvEcv8AwcO/8FF7x7m8vbL9kT9nqcSXt0haNPElznBEfrLcldq90gBPBfn7j8ZfEldUaCGwtotK0bTYEstM021UR2+nWsYCxwxqOAoAFfs/hvwx+/WLxFNT01vfRNaJW+118l6nFgXGlKzXN3/yPnTW/wDgqR428bTNNf8AgHWrqZ+7Q3A/ADbx+FYOr/t/eP44TJp3wl1SZk+YM1vdNkjnptFe93niVnYgO4OfXrXGa74sbWfGtv4etp2M7x/ar+RXP+iQdFBPZpG4A9Axr+icHg8FTXLDDJJeciqmJlB2grI+fv8Ag168RJ4++If7TWuapptm13q+r2NzLFLCHELSS3kjIN3IAJ6e1frZJpOjg8aJo2fX7HH/APE1+CH/AAR1/wCChngj/glt8Z/jnoPxft/EOlXPiDUIDD9lsDcuksEtwHV1yCARIpVuQa+67j/g5U/ZmlyItQ8bsMcFtCKj9Xr+NuLMtx083xHJh5SjzOz5T2o051EnGVn62/U++7htPswfL0/T4h0Oy3QH9BXMeNfEOkaRpdze6iNPtLC0ga4nnnREjgjUEs7E8AAAmvhbWP8Ag49/ZyuIG8i+8YyyY4VdHKk/iXxXgnxq/ag+I3/BXG4HhTwtpur/AA7+CIdf7Y1W9/d3/iBAc+RGBxsOOQCRzye1eflXBWa5vioYOhQcU3rJqyiurZ6GGisNF4jETslt71232Wp5R+1V+0D4z/4KNfHnU9Z+Hvh2/f4YeE52sNHmtrMD7fJnD3Z6ZL4wo/hTHcmvoHwz+1J8Z4dEsbI+CLqSS1to4Nx0xxnaoXP3gO3avVvht8O9H+FHg7T/AA9oFlFp+labEIoYUGOnc+rHqTXTwSgEDP8AjX9x8OZRl+S5TRynDUIuNPq73cnvJ+p87js1niJupV1fn0PDbn9oH4/XuVt/CF4jjoVs1Xj/AIE9Y+s+Iv2tfHNt9m0HStVGoSf6qC0e3S4mxyVVdxOcA+9fSK3+1CGI+ucCvU/BXihv2cfhLc+M22J4o8TxPY+G4nGWt4ek14R6fwr6mrzTNoYamlRw1N1JvljG27fz2S1b6JHmvFyiuaKVzy8ftKa18bPhb4Ot9Rhm0m30bS4reXTGymy8UFZ5ZF7yFgc56c+pqDTNVSWUqWBYnoOcVw1zqDwzyS+YWklYu7E/eYnJY++STX5j/wDBR7/goB4l+JviLUNC8D6je2fgTRLk2F7qNlI0Z1a5H3vnXB8lTkADhiCTnIrizGvluR4ROraCk7JLrJ6vff1NKSqVm1SXRuy6Lqz9fNRuntAk0btFLGd8bq21kI6EH1FfOX/BW/4T67+0L8P9E+P3gae40343/BBYrq8vrEbbrVtMhbcl0Mfeltm+8DndEz9QMV+bv7Dv7aviz4CeKbee41TUtV8K3Ugj1PTZp2lHlk8zRBidsi9eOG6Gv2A+GPj5XTTfEOi3FveW1xEs8LFQ8N3DIvKMOhR1JUg9ia87H5RhM+y1zh8XS+6fZ+T/AOD0FHnwtWLraxl+Rp/smf8ABSHxV/wUG/Z+0jxYviQ+HLhFFjrOmaCFtja3sagSZkO59r8SLggYfA6V6ZprXy8t4o8XGXqZP7buQ3/odfl38QYLj/gkL+27H4s8OxXTfAn4tSl5bNcuukyBsyW//XW2L7kPV4GxyRx+g2jfFCG/tbe6tpori0u41limiYNHMjAMrqe4IIIPvX8pZ3kFTA1pQlTtZ29GfzT4l0+IMtzd1KeJqOjU1hZtJf3dO35Hs2hfFHx34O/eaV411efaciDVguoQP7HeA4H0YV7B8Cf207Hx1r8HhrxdYxeGvE1wdlrIjl9O1RvSJ25ST/pm/XsT0r5Z0/x7DcKMOMjn3pfEIs/F2lvbTfNv+ZXDYaNuoYHqCDyCOlfL1KbvpucHDfiBmmCrKGOm6tPrfdeae57N/wAFz48f8Ej/AI7ccjQEP5XUFfGvhrxCT4S0dhls6fb5J/65LX0H+1L4y1v9pr/gjd8f/CVwJtV8Y+G/C84cj5pdQhi2zxy47sUjYH1K+9fI/wADfGVl8RPgz4W1rTp0uLS+0q2ZZEORkRqrA+hBBBFfl/iXRc8Hh5taKUl+R/of4BYqhiKWJnTkmpKLXmtdTzX9u/4k/FOb4j/BnwP8JfEUfhvxD8SvER0KOaUIIHlk8tYvMZkbagZySQCa9Ztv+CLv/BRgDn44fC1SgOA9yx3YHtZfzrzL4sWV14j/AOCh37IGmaaDcaonxEgvhbpzIII3ieSQjqFCoxJ6cGv6AY7sm5fa3LMce+a+y4Cy3L1w/h5YjDQnKTlrKN3v3PC8UOIczwfEFWjhK8owSjom7fCvM/B39g740+KvjX+zHaaz4zu4L3xJBqd7pt3NHEsayGCYoDhQBnjqAM1e/avu2uP2bvHycDfoV0Bjv+7Nch/wT4Mdh8CNd0YEf2r4e8Ya1aapbZ/e2k322Q4deq5XGM+9a37Z/jOx8E/syeN77UZ4raF9Kmt4zI2PNlkUqiL6kk9BX4/j8DGnxTKjQhypVdEl0v0R+/5TVVbhmGIqzu3R1k315dbv1Pb/ANvu587/AINRPAjA5L+HvCyjnn/j6gpnhe7EfhjT1PVbOEe3+rWtH/goH8Nta8Nf8Grng/S72yuIr/RPDnhm5vYWX57eMXMLEsO2FZc+lc14P1KLXPB+k3dq6yW11ZQSxOh3B1MakEHvX2Hi2m6OGfS8v0PzHwOUZU8Xbuv1OF1Gf/jbp+xXIen/AAll+mfXNsQK9S/4Kxw7P+C2dgCGxd/DOI5zwdl03+NeP3F2+s/8Fgv2NdHsEa61Oz8UXWozwxjc8VssJ3yMOyhVY5P9017z/wAFmLOPwb/wVt+FWuaiy2eneLPA93o9pcynbFLdxXG8w7jxvKsuB3yK9zDQc+CoU4rVwlp8zynUjT8UVNuyVv8A02chFMLcA8fL+VeAfDr9pz9pX9p/4tfEHwx8DfgbpXjKx+HN59j1C8n1ARFSWdYz88kaln2MQq5IxzXv2qW7Wq4YbT6HrXV/8G4mo7f2tv2wtJjUvbpq+j33mj7u+RLnKfXg18V4eZRgcdiqscbSVRRimk723t0P0Hxcz3G5bltPEYKpyNytpbXTzPmfU/2Vf+Ck37Q9w2kWnw10r4ZWknyS3Ul/aWwAPBPmNLI/H+wpNfY3/BMb/g3D8Pfs2eO7D4ofHfxGPjD8U7ORbqxgmLy6Nokw5EiiX5rmVTyGcBFIyEyAa/SqTEUwFX4QDEDngV+1UMPgsFT9lgKEaS/urV/M/lzN+JczzK31uq5eV9Pu2Pkz/gupoH/CQ/8ABJr42jBZ7XQxerjkhop43z+lfnb8LdZOt/DDwzqOSft2lWs+T33RKT+tfqh/wU88GXPxJ/4J2fG/Q7G2kvLy+8GakIIUGWldYGcKB3OV6V+Un7FlnD8Uv2P/AIc6pp9yl0n9iw20zI27y5YxsZGx0YEdK/OPE+F8uw9V9Jtel1/wD9u8AcxhRniaFSVk7My/2hf2zPBf7Jekadc+Kp79ptXZ1tLazg8ySQJjcxyQAOQOT3rwq5/4KyeM/jPdJpPwd+DXi3xPqFw3lxOLOa8JJ6YjgQ9/Vq+vf2EvBNl47/4LZ2Xh3ULDTPEWk+F/hle3+oW15aR3UNhPNdQCEsHBCue3fBr9g9HsLbw5Zi30+2tbC3UYEVrCsCD8FAFejw5wdkdPLqGJx9B1as1zayajZvTReRxcc+KWa0s1r4LL5KMIPlTsm/PV36n4ffsY/wDBAn44ftyfEfTPH37YepXfhzwXp8wurTwNFOq32onOQkyxkraxHockysOPk61+xXxo+A+k/FT9l7xV8LrW0s9L0PXfDVx4ctLeCMR29lE9uYYlVRwFT5cDsFrupZhzVaW8XHBzmvtPrSgowoxUIR2jFWSPxPE4rE4uu8RiZuc31erPwY/YJ8ZatpXw11P4c+K4pLHxv8K9Ql8O6vZTDbLF5TlY2weSpAwG6EAete2avp1j4s0O/wBJ1eyh1HSdXt3tLu1lGUmicEMp+o/KvXP+Cx//AATV8V+LPGUX7RnwJtBJ8U9Btlg8S+HohhPG2noOgUfeuo1GB3dQAPmVc/Lf7Pf7UXhr9pHw4JdHnNlrNrmLUdFu/wB1fafMpw6NG2GODkZx25wa/GeOuFqmHxEs1wKbpSd9N4S3s+2uqZ/W3h1xnhc7wKwGKaVaEbNP7SWl1ffzR03wE1n9qD9ibwV/wiHwW+MPhDVvh/as39k6J4/0aW8m0GMknyYJ4zuMYzwpIUdlFVNc+DvxM/aP+K+i/EL9pL4pQfEvUfCDm48N+F9IsfsHh7Rbg4/0jygF82QYGCy54GWIGK7KC6ngxuJBHY9qkbWsKdx3Hoe1fPYnj7OKuGeGdRaqzkkua3r/AEz0KPhPkVLGLG06XvJ3tdtX9C9eXPnbnc5ZuSeteNeE/Cg/a6/4K8/AT4Z2C/a9P+Ht7J468SMvzC1jtgskSt6EuIl/7aiua/av/br0j4IvF4e8O2kvi34h6uwttL0SwU3ErTOdqb1TJJ3EYQfM1foB/wAEQf8AgmPrf7Dfwt8ReP8A4nOt38bvivsu9fLOH/sK0B3x2AYcbsnfJjjcFUZCAn6vwz4WrUKv9u46LjCKfs7/AGpNWvbsu58b4vcXYbD4OWS4aSlVnbms/hitbPzfbsfdd1eeZIScZY5OKqXOo7QRuwO9c1rnxc8LaJKyXXiPRIZVO0ob1CfxAPFM0rxxpPiwMdL1TTtRK9RbXKSkfgDmv0iVaDejTZ/NVJJuyK3xd+Mtj8JPBk2qXiGeUsIbS2DYa6mP3V9hxknsAa+UfGP7SfjHxVfPcT69fWaHlbexlNtDGPQbeT9SSTV/9vPx+6fEzS9IMriDTrAXBXOAXlZhn/vlAPxrwq88XxqnyvnjoDzV0MM6i9pL5H4f4m8T42li1gMDNwUUuZp2bb137I9u+FX7eOv/AAg8S20Hi2/uNf8ACF1KsdzcXGGvNIDHAmDgAyRA/eVskDkHjFfdGm6wkLQzxsk0MqhlZTuWRCMgj1BB/Kvx+8ZeIk1Cwlik5SVSjA8hgR0r9Gv2DfEl34p/Y7+H93fSPLONN+z73OS6RSPGhP8AwFV/KumpD2bTR9F4b55jMywdSjjnzSptWb3ad9/Sx+QX/BQn9n0/8Eh/+Cq1t4l8PwNafCb4vltUs0jGINPnL4ubb0AikcOo/wCeU2P4a+ydG1u38SaHa6jbMGgvIhKhz0z2/A8V7H/wWn/ZFg/bM/4J8+MNPis1ufFHgeJ/FGgMBmTzrdGMsIPXEsHmIR67T2r4A/4JRftAf8Ld/Z3t9OurgzX+isYGLHLEADB/FSp/E1+b+KWTxxFCnnNJe98M/wBH8z+yfDXN5YvL3gqrvKlt35f61+8+oFujY3UcwJOw847jvS312mk+KNP1CGOB5bS6g1C2EkSyrFcQSrNDKAwI3JIiOD2ZQe1RzbQ20kZPas7U74NaqM4aI/Lk9a/L+Fs1nl+ZUsRF2s7P0ejPsc/yeOY5fVw0lduOnqtvxP0/+AXxis/j38J9L8U2Vvd2cd8ZoZYLiF4nimhmeCUAOASnmRsUfGHQo65Vga7Gviz/AIJb/EW4tvF/iHwnFaWg03Ubd9dkuA4SYXKG3t+VC/vN8WwFmYFRboAGDEr9p1/ZVKopwUl1P4xxNF0qjpy6H52/tefHZvjl8UppbZiNH0bfZ6eoJKyKGO6b6uQD/uqoPIJrDtNUOm+BoLVWw8o+Yj06muKUZBPPHHPetq9nJijQZwiAV+M+L+NdOnRop93+n+Z+w+E+XxqOrXa6pfqQNcBpz1ya+I/+Cxmu6l8Sovhv8H9CZ31Px7rMUTQxklpDJLHbwj/vuUt/wCvtF3YE85z+lfMf7NfhqP8AaI/4OGPBkV2oudN+FmkTa60bcqs0EBMR/wC/9xGfqor808MMvjiuIqU6q92mnN/9urQ/XuLMTLB5NiK8dHy2Xq9D9p/BXgbTPg18NvDfgrRY0g0jwjpdtpFpGgwqxwxLGP0WvzU/4L//ALZHirxRc+Ff2R/g673nxR+NMkdtqxtpMPpmlu2PLcjlPOwxY9oUc/xCvsH9vP8Abh8P/sJfsxeKfiZ4keOYaTCU02xZ8Pq9++RBbL3+ZuWI6IrHtX5Yf8Ej57m68PeMP2pfFes2/ir42fGe9vLO2u9wkHhWxR/LmA6mOaTARE48uFE/vV/WXB2QV87zL2kY8yTv5Nva/kt2fzFQoOMFbd/n1Z9V/D74SeG/2LPgV4c+CPgl4ZtE8Hr5usahGAra/q7AfaLpz3Ab5EHZVAqG88RHLDJBHPJ61zo1lpHIX1yRjOararrSWVtJPPIkUaLlmdtoAA75r+wcpyKngqEcPBbbvu+r/rbY6rqK5UW/GnxDTwt4fmvWRriVSI7eBT81zMxwkY+px9Bk9qx/AOny+FNKmkupRd6zqMn2rUrrvNMeoHoijCqOwWvO/hf8Y9C+PXxL11NMujdR+BmihVSAEeadCTMv94BQUB9d1ejbXQ8H6170MLGKt16/5HNXbUrMl1/RtJ8TXRn1DR9Kv7ggL5tzZRSvgdBuZSazJvAWgEY/sPRFz0xYRf8AxNXkY54J9f8A69U/E3ivTvBuh3epatdw2NhZRmSWWRsYAHQD+Jj0AHU1pGjGOyOe7eiMXXPCenIyWVhpelW91eZHmR2MINug+9IPl6gHA9yK63R44tK06G1hCpDAgRQOeB7+tcj8LPG+nfFLwXY+J9NlaSy1+Bbm2ZxtdYedqkZ4PXI9c+ldOIsoAPmwOO4FaShG1khbPU0lu1VDyMn3p41FVGBzjuOtZgVzwFYE+1MtYbnVNfs9MtgHv9TnS2toiwUzSMcBRnqf8KwnTik5S2QODbO/+E/hW08Yazd3+tTfY/Cnh2D7frNyDgiIH5YU9ZJG+VR9T2rj/i38a734weM5tWvI1tIQi21hZIf3en2qcRwr9B1PckmtD9oDxlZ+HNJtfh3oNwk+naRL9o1i8j6atqGMMc944uUUexPevnn9oj4+6N+zf8JtU8V625eGxXZbWqnEl9cMD5cCe7HqewBPavGy+lTlKeb4rSKT5L6csOsn5ytfyVl3JqNbJnlX/BSP9qC+8MeHbP4Y+D7lYvGHjOJvtVwjfNpOn8h5D3DScqvfAY+leB+F/gBYyeBoPCNpafaLaSLySoGXlY9ZD7559qpfDHTb/VLnW/ih8Q720tNf8Uv9quJbpxHFYQ9I4VJ6AKAAB2A717T8EP2wPgj4Mg/f+Ibt7ubiTUpNIuPscfssuwgD3r+D/GjxJzLP8xk8mpTqUqDtHlTaut5Nr+uh/WPhnwrleQZYsZntSEK+IVlGbSag9lZ9939x8K6t4B1L9nz4o3fhzWI3RCx8iVhxKpPBH9a+/P8AgmF+02trGfh1q84A+a50ORzwy9ZLb6j7yj0LDtWR+3L+zzon7S/wvj8VeD72x1W6tkNxa3NlMsqTADJXcD3Hbrmvjf4UeM76ykhmgnlsNZ0WdZInU4khlQ8N+Y6V+v8AgX4of2nhVhsX7tWOk4vR/cz854/4JjgKzhQ1oT96D3t/dv5fkfsT8a/hF4d/aU+Fer+BfFJ8nR9fUbLsLuk0q7XPkXsfo0THkD7yM6nrXyb+wd8cNb+D/jLXP2fviGzWXizwTcyW2mF3yl1AvzeXGT95QpEkZ7xuMfdr3z9ln9oC2/aG+FFrq52w6pbn7LqlsP8AlhcADOP9lh8w9j7V5T/wVG/Zb1L4veBNP+LHgkTwfEf4XW6Sz/ZhifU9LhbcJBjlpbXJOP4oSw/gAr9c8ROFo43DfX8Nq0tbdV0fy/I/Bs6ySlm2ClgK69+OsX1TR9C2fi+W0ulGcr0+9XU6P453xgl8hRxnsa+X/wBlD9pm0/aW+EVj4gTy4tUiAtdVtkP/AB73KgbsD+4wwy+x9q9Tj8QfZ8bWOfav5YxmFdOo4vc/nLG5FKjVdCpG0ouzPsX9gbxzC3x0vtMuEjkh8Q6PNbyJJgpOYyHCkd8qXGPTNeIfGX/g351Twv4x1bUvgH8a9V+F2h6vdSXb+GtQ0/8AtDT7GRzuYW7BgypknCkHHrivN9M8Y3Nlewz21xc2txA4eOaFyjoR3BByK+k/gX+3V4n0Ga2svEVw3iDSHIRpJcfa4B6hx97Ho3PvXk1vdupxUovW0kmvuZ+2eHXEVTLcJGhGo6c02rrqntqXf+Cbf/BJjRf2GviVqPxG8XeMdR+Kfxa1O2NkNfv4PIt9Jt2+/FaQksULdGcnOOAACc/bUfjBo1GGJx3z0rzWPxva6jZRXEDmSCdBJGynIdSMg1asPFEVwcBiD0wRiueeKlUa2SWiS0SXkuh+kVoyxEnWrNyk9W27tnw1+3b/AMEQNU+Kv7Rus/F74C/Ew/Cjxj4pk+0eINMuoHl0rVJz96cbMlGfqysjKWyRgk1yn7P3/BAHxJ4v+MWieL/2l/irB8SrDw3cJd2PhbSLZ7fTZ5kOVNwzBcpkAlFQFsYLYJFfpANRB46n1pU1UdQCa1WMtL2jjFz25uVc33noRzHGLCvBKrL2T+zd2+7Y2Pih4X0H42fC7XPBninS7bVfDXiSwk03ULFxtjmgddpUY+7gdCPukAjpX5OT/wDBvz+0b8IdYutD+EH7Rmj2nw6eZjp1vr9tN/aGmQlsiP5Y5FYqO6MoOM4XNfqimux28EkssscUMKmSR5GCpGoGSzMegAGcn0rwjxv+37Jqd/LY+BrOCW0hYq+s3ykpMf8ApjEMZH+0x57Cs/b869lUpxqJ62kk166nz+M4mjw7ReLnXdGO102r+SS1Zm/8E2f+CRvhj/gnz4tvvHuseJtU+KPxg1y1Nne+K9VTYLOBsF4LOEk+UjEDcxYswGOBxXqX7f8A+yD4F/b++C3/AAh/jvTp7mC0nF7p1/Zy+TfaRcgECaCTBw2Dgggqw4Irxf8A4at8fm4Ev9vKx67DZxeWf+A7f616V8Hv2vV8Vapb6R4pgtrC7unWG3voMrbyyNwFdSTsJPAOcZIHFObrxtJqyW21l8ux8flHiZk+Y45SpV2qje8k1d+r6n58a/8A8EXv2mPBV8NJ8B/tCaFq/hsNst/+Ep06UX1nH0ALIsgcgehH0FfoB/wS0/YM0D/gm58C9S0SHWLnxZ4x8X6gdZ8V+I7iLypNXvCu1QiZOyGNchFyT8zE8tx7VJYrDISVAIPPHSkE5CDBxt/WsqdVUm5QhGLe7SSb9bH6fmuaYrMKcaeJqSlGOybb/M6mTxH50/y8A+oqZfEgiXBYZ9jiuRN8dw5AzTjfcEmiddy1PFjhEtzprjxQpQ5ClSMMDyGHoR3r8vP2gf8Ag3+vIvih4g8S/s9/G7X/AIKWXim4e71Hw8LR7zTIpXOXa32yK0akkkKQducAgYA/RibUQT1IP0qtLqYCk7sULEyiuSSTi+jV19zO7Cuph589CTi+6dj5x/4Jaf8ABM3Qf+CZ/hfxLdN4l1Lx/wDEDxxPHP4h8U6jGY5rwR58uGNSzMsSlmPLEsTk9AB9YyeMF2nkDPpXKT6sFXj5j+gqhNqjEHp/hWdTFTqSvJk/V1N3Z2T+K1YghgM9aYdf56gg+/FcX/apU9Sc9KkTVtowTj0zWanfU3jg4nVt4jaMgqcEc/KelfG37fX/AARt+En7d/i2TxeH1X4cfElh8/ifw5tikviOhuoeFlI/vgq/HLGvp46uSeCfxFD6rlgckfSt6WIqUneD3+75o3o0/ZSU6bs1s1uflJr3/BDj9rj4fSND4I/aQ8Ma9pyHES61FcW84XtkNHMPyas7Tf8AghP+1z8Vrz7N47/aF8K+HtJc4mOji4upivcKqxQjOPVxX61jX1YYB3H3NJf+K7TQdJu9Q1C4jtbGwhe4uJmPyxRqCzMfoBSvhFL2n1anzd+RHs1OIc49n7L6zU5X053/AJnzB+xb/wAEyvgV/wAElNDl8ZwQ33izx9IhifxRrgSbUppGHMVnH92Dd3K5bGdz4rZ+If7Sms/FG8L6lcfZ7DOYdNgkKwRD/bI/1repbj0Ar5z+NX7Xt78aviPNrMxeDTLctDplkT8trBn7xH/PR+Cx+gHArnX+NaqCVkBB9+lV7DEYqft8XK/ZdEvTb5H8zcd8T4nF1ZYPL5NQXxST1k+uu9vzPoYeKrQDiK3HsFAxWP4in0+9USGMQ3CnMdxbsYZoj6q6YYH6GvDf+FzAf8tR+dMuvjVGsTL5wLEetaLAwjskfmOHy/HQqKpTnKMl1TdxfiR8QPE+q/EOaTxFq1xrsYhS2tL2UKJvLTO1JCANzDON3U8Z55rJuPEDbCcn3rE1z4iRalMT5mVPrWB4g+IlroGg3t9M/wC7tYi2BzuPQAe5OK9DD0FFKET6DGYXE4+v7fEazdk336f8OTX/AI4vfEfxEs/DWmqLq/1SRLOFB/yzkc4yx7DuT6Cv0wtv23Ph1+yz8PfD/gnQbfV/G8nhqxisZptJWNbbzFX94RLIyq5L7vu5HvX5NfAjSrmS/l1G9kKXF1ITcSbsMQw/1YPYY4P5V71b+JIoYAoKAKAFA4Ax2rHG4aUqiinolr6n18c0jw9QVLCQUqkrXvsrbbbs/Rz9nz9vrwH+0hr8mgwQ6noWvNGxbSdYiWN7mPGG8t1LRyjB5CnODyMV+Nf7PfhI/sHf8FZfip8F5WaPSX1KS40gNwHtZP31uR9IZlX/ALZ16x4h8XSaZqVrqFjcS2OqabMtzZ3MbYeGVTkMD+nuCa8Z/wCCpvxTTVf2+fgJ8Z7dUt7jxfodtZasE4C3VrO1tKD/AMAkUj2xXn5llksTl2Jwr1UoXXrHU/bfBvjVYjMKcqiUZ35ZLvGWl16XPv8Avn9ySOtYGuyuqMQCABj2NaOl6j/aWmwTE5MsasT74qDVIRJZTeu0kGv5Kk3GVluf2TRi4TSfQ9t/4JVX5u/2h71CRlNEuOn/AF1gH9a/Q2vzN/4JL6+Jv2r72DOPM0e4Cj1+aM/+ymv0yr+zuE8S8RlGHqt3bivysfxjx9glhc/xNFbKTa9Hr+p+TnnKIse+P1q9BKJFkHoRyawtSmEenlycYK5z9ataTd+ZYO2eC1fj/jLK2Lpx/u/qz9X8H6V8vqzX8/6IkvbkRIR1wa+fP+CLV7Dc/wDBWf8AaZ8T6jNDAuhaB5IlmYIkMTXal2LHgKFhBJ9BXuGt3xjt3JIHB+lflR8dPG3jfw7+2N8Wfhb8ORNPqvx0Sw0qUW7lX8oyedIhI+6jYO8ngIGzxXj+C1F4nNq2Hh8c4WXzaPtPETDynkqd7Lnjf01PpT4t+Lb3/gvt/wAFB7yG81PUdL/Zf+Cjt9ou7fMZ1RicHyjjBuLpl2oeqRAtxznevP2INV+CfjfxVL8GvEtv4U8IeJbhLmPQLvzWTTGUEARv8xb5Tgk8kAZzivX/AIG/DzQ/2XPgLoHw08NmA6bombjUb2Ibf7c1Fx++u29Rn5Iwfuoox1NaF/rokfg5b9DX+nXh/wAFQybCxcvj/rX1e/8ATP52xVROfuvbQ8Bm/Za+KWrnOofEbToyx5Ea3Mhx/wB9LXJfE79jjxVBPp+mx/EEalq2qMSluLN9kaA4Z3LOcL1Ofb6V9M6v4rh0TTbi9um2w2yF3xzwOw9SegHqazvA1pNEJ9X1CNV1fVsNIOv2WL+CEemByfUn2r9MjTl8TehzwrSTumeK+Gv+Cfd58MLz+0PBnjm+0bVru2W31J7uE3EV7htwYBSCuCTgc8Gtpv2afis2NnxWs4z6ppcmf1lr3Rb7eynOfwqRr3bQlJfDoaVK7lrI+f5f2SvihqLjzvjLOoP3gmnyDA/7/CuP8W/sa+IvGHxFtPCF/wDEPVtctGhF5qlwlv5X2FM/Ko3O+XbHA7Zz2r6Y8Y+PB4T0sypGJ7ydhDaQA8zyt90fTufYVT8G6YfC2nSPPN9p1W/k+03933nlPp/sqOFHoPetYKqk3fQyp1mn7p434T/ZC8efCPQ08P8AhzxppJ8O2Mj/AGH7dayNcwxs7PsfHDYLHkY47Uan+zT8Vb1js+IGiRl+SRbyqPywa95m1bdHyMkfrVeTVTGT046k9KumqnLZPYl1WjwNP2RPiZMP9I+K/wBmB6m1hk3D6crSfFD/AIJr+LvA3wLk+Kun/FDxHeeOtOuftPhrT7vCnVfJ5meM53RYHCNk7myOhr6k+EHguL4k+ILiXULr+z/DmhwHUNbvyfltrZeoB/vuflUdyfauG+N3x3k+L3jOfUEiNjptvGtppVkp+WytU4RB745J7kmvHrV6tXGLCYd/DZzdunSOul5bvtH1RUarWztc4b4N/GSz+MXw40zxFBL5f22HdOsnytbyrxKjZ6FWDA59K+R/Hfix/wBt79oOTVpJQ/w2+H0kkWlo4/c6lcLnzbo+qjHHsq+prK/ah8faxo3xc1z4V+B7sWi+OnivtWaHrpgdSLjGPumRQrH6n1r2T4S/BM6f8DvEdjolsI4LHSJrW1VByz+U2PqT1/Gv5j+kd4pQy+C4bwNRKVRpVGuibSt/mfsHhBwIsfiJ53jY3oUNYp7TmldLzSe/nZHV/wDBKz9lDRf22fEuq/Gz4pWUF38OfC11JaeFNAvONPm8gbpr65U8OqAdG+XIOcgAV9y+Gv8Agqx+zje/A/xT4l07XdPl8KeDnitb6zGibGlErbIhBbFB5qOeBtXGB2rxr/gjNpekftEf8Ev9O+H9jcJbXmoaBqeg3ABAeG4d5kkP1+dWOezV+XXxA+BfiL4OfEDVPAPiLStSsNcsL1bSa0aFgZmjfCsox84PVSPWvJ4YyPCYhSwdOXs1T5bJdV1l533ufz/xPi8TmePr4zNKz9o3fV9L6rystElsfpj+1V8Bfhhqf7Pdt+1T+ztJZWHhuG7jTxroWmxG307UbSWQRPdfZjgQXUDsu8KACDkjufzp/bl+BP8Awp34gweM9HTOk64d90qD5UZuQ30YfrX6u/CD9ng/sYf8EDPi0vi61azu/GejTtFYzDDte3zJDawqp/5aEmI49fpXkX7RP7MVp4x/Zo0zT57RZ7nS9KigvEAyZMIAx+oIzX4V4gcT4fhfiPB5lhZfFKUJf3oq1m/NXtc/oDwKrz4h4dxGWY5tw5l7KUvsuzt8nZX8mfCv7IP7Q4+BfxKtNVkkdtA1gJa6oi8gR5+WYD+9GTn3UsK/S7S/EU+nXFrqenSRNJHtuIJBh45VIzyOjIynBHQgmvxru9BvPgz8RLvwvqgeSzc7rOUjG9D0P9PrX3N/wT2/aPOr+GZPAOsTmS+0iIy6PK7c3Ft/FDnu0fb/AGT7V/eHAHFFDOcuhKLUozWno+h8JxTk1fAYqTlHlnBtSXZr+vmjwn9sn4feKP8Agnd+0g/iv4cX1voXw8+K+6e2+0W4ntNJlWQG4tJBg4Nuzl1IGTDIhAPIr9CPB/8AwRA/bJ8V6FZapD8cvgW1jqVvHdW00VhczRTxOoZHVhCMqVIII6g1xfxx+FWjftFfCHW/AHiCWO30/XStxZXzpu/sbUYwfIuwOu3kxyAfejdh1AqL/ggp+3/4i8GeLtT/AGVvinfXdr4h8KPLF4Skubhm/dxZMumhs/MEH7yE94yQOAtfl3HXCby7Gc6guSeqdr/L5H5Px7jJYHASzjD4dVeX442V/W9ndfoev2H/AAQb/azVP3/x/wDg7bvj/ll4euZP57avRf8ABCj9rOA/uf2kvhVF3+XwrN/8VX3I9xMVO6aYj/fJ/rUZZ858x/8Avs18BLBx6xj9x/Pz8b6S2wK/8CX/AMifIeif8Ek/24fDdrHb2n7U/wAMDawjEUT+GJSqj05BIH41sWn/AATP/bxsmDR/tMfBxmGOD4ZlA/8AQDX1ClzL3lf/AL6NL9ukP/LaUf8AAjUrAU39iH/gJ6MPpF4mKSWGdl/fX/yJ80S/8E8/2+dhX/hpj4OR57p4ddT+sRqE/wDBPT9vpFwv7Ufwm/Hw/n+dvX01Nek5y7n8TVZn3P1OfrVf2fS/59w/8BHP6SmLXw4b/wAmX/yJ8q+Of+CXf7dnxF8L3ei6t+038J7vTNQUJcwLo72/nqCG2lo4A20kDIB5HBrJ0H/gjd+1/osarF8cfgnGqjAC6XdMAPpsFfX3mherfrR5jbSMnn3qo4GnH4YRX/bp4mZ+PdPMYxjjsBGpy7Xknb/yU+Y9P/4JLftbxH/Sfjz8Gh6bfDlzJ/Mik1//AIJBftT61p8kP/DQvwkg8xcER+Epxn8fMr6dEhRT8zD8TTGuMjl2P/AjQ8DB7xj9x5UPGHLqUlOGVwTXmv8A5E+erb/gnZ+35Z2UVvF+1t8PpoYFCRu/h759oGAGLRMWOAOSST3p3/DvD9vsdf2sfh7j0HhyP+Ztq+g5L6RG/wBc4UejHikbUZSMebKw/wB40LAUusIf+Ao+lX0lcQlZYX/yZf8AyJ4Av/BPD9vCUYl/a18CR46CPw5Fyf8AwGqSH/gnT+3QT8/7W/gojtjw7Fz/AOS9e9vcHqWYg+rHmkF75fILgDsGPFaLAU/+fcP/AAFE/wDEyuJ/6Bf/ACZf/Inh8X/BO79t8EeZ+1n4MAHYeGoWB/8AIAqy3/BO/wDbTdPn/aw8C/j4RibP/jtez/b8rnc/4saat4cffcf8CNS8spveEP8AwFDX0mMUtPqv/ky/+RPErj/gnT+2s/EX7Vfw/f3bwlGp/RDVe6/4Jvftv3EYUftVfD5OMZXwrGD/AOijXuw1F1fHmOM9wxpn9ryhsGWY9vvHmp/sultyQ/8AAUaR+k3ilvhv/Jl/8ifPNx/wTD/bkP8Aq/2tPAoP+14bTA/8g0tv/wAEzv254Gz/AMNZ+AHPo3hhCP8A0TX0N/aJPJlk+u80n9oSf89pfxc0nllL+SP/AICiv+Jm8X0wz/8AAl/8ieCL/wAE2/25x1/ar+HR/wC5VQj/ANE0yX/gm5+3UwAH7VPw0I9/Cqj/ANpV78+pzKvE0nH+2aT+1pQcedLn/fP+NT/ZdF/Yj/4Chr6TWL/6Bn/4Ev8A5E+e5v8Agmr+3gy4j/as+GKH1/4RNc/+iq5vx9/wSW/br+I/ha70PVv2rPhlfaXehVubc+GmhE6ghgrFIwduQMjPNfVK6vMAT5spP/XQ/wCNOfVZ5FP7+cY7iVqh5XS/59x/8BJn9JjEzjyywzs/7y/+RPhQf8G/X7WDAKfjt8GXA/6gl2Cf0pR/wb/ftYcL/wALv+Cu31OjXZ/9lr7oXUp2PN1cZ/66N/jSi+mKkm4mx6mQ/wCNa/U4/wAsfuPGj454XdYBfev/AJE+GT/wb3/tSy43/G34Nt9NHu1/ktIf+Der9qJ0wPjT8GmPvpd4Mf8Ajtfdi6lPjAuJse0hpyalKRzNKD/10NR9Rg/sx+41j47Yb/oAX/gS/wDkT4Kl/wCDeH9qWQEf8Lp+C6/9wu+P9BWZ4j/4Nuv2oPE+nLaT/HD4OeR5qylU0q9TLKcjJxyM9q/QldYlQ48+bHb5zTl1KVhkTS/99mq+oxWtl9xpT8eMOpKUcDa395f/ACJ+f1h/wbpftVaVbCOD49fCBAvRTo94QP0qr4o/4IgftpfDbSXudH8V/BT4iSRjd9jWa602ab/ZVpF2A/VgPev0Rg1Gc8/aJ8/9dDVq08Q6lp8qyW19dROvdZTUywsf5Yv5Gz8a8HiJf7TgdH5p/wDtqPwy+Ivx88Ufs6fEdPBvx4+G3ir4Ua8TiO5uYjcaddc43xyDh4/9qNnA7gVz/wDwUkjF3+zJ8O/EltLFcw6F4kl8i4iIdHiuIhIrKe6loq/fX4s+D/Av7aXwkv8A4b/GHw9YeIdB1WMxpNJGBLaykYWaJ/vRSqeVdSOeDwcV/O1/wUP+D/i3/gn7q3jz9l/xG1zr/h99RtPEfgTW5OGe18xgV9CGRmDKPuyIccNXHUo00pJx5XZ37WsftvhrjsrzPG0cxySdpxdpQ62fZdGvu6n6dfB3XF8Q/DHQr3cG+12MMueudyg1t37kWc2OMIf5Vx37PFk2g/BjwzYtgvZ6ZbwMc91iUH9a669fFnPgdI2P6Gv4RxMV9ZnGO3M/zP8ASRJrV7kv/BLnx/baJ+314S06afy5NfivbK3Un/XSLZXNwVH/AACB2/4DX69V+EP7MXxtuvgP+0x4Z8WWsioNIvInvA1v57SWbOY7pEXeo8xrd5VRi2FdlYhgNp/dPw/r1n4q0Gy1TTriO70/UreO6tZ4zlJonUMjj2KkH8a/rfgL/kR0F2T/ADZ/I3i9RceJq0+jUf8A0lH5Ga+5XR29Syd+T81T6FkaY3HIcmoPE+U0gkHpIn/oQqz4fcHSJDgAh2H1r8m8aX/wo00v5P1Z+jeDUf8AhHqP+/8AojF+IOuR+HPCGp6jOMw6faTXb+6xoXP8q/OL/glDqlx8RPij8TvjBqpWbW9TmOlWcrctZpMC02z0Pl7IwR0Ut61+jPxS8K/8Jv8AD/XdFV/LfV9OuLNXPRTJGyA/ma/HP9ir9pnUv2OfGHizwJrmkNdFdQPmwh/LmimjJR9ueuQBx3xX6J9Einlqz2tUxludJct/R/r+Njp8Wq2IjhcNShf2bbv2vpa/yufqMNd3RBVDADp04pG1cMmMnnqe1fMumf8ABRHwheQgy2euW8ncGFWx+tUPHn/BQnT08NXQ8O6VqNzqLxMIZbrakcb44bAyTj0r/SmOOw3SaPw9YWq/sn0PPq48WeLja7vM0vQ5Fef+7PdYykfusYO4/wC0VHaupj1cnnOCTzx1r4//AGaP239Cl+D+nxaxFqP9r20kkd+0UQcPMXLM55zls55rvJP26vB8S4Ka1nGCFtOn05rsp42hOmpwkmmZqlK10fRC69sYAkgfWnnxAGbBOB6ntXzY/wC3t4SACi2108f8+68/+PVwn7Qf7eqr8K9VTwrY36ajJCQ010gwidDtAPXB61EsZh4Rc5S0Wo/q03urI+l/DWvHx140uPEEjM2m2Bey0kN0kwSJZ8ehPyqfQGuqOr56Hr6dBXzB8N/28PCN58O9ElSw1OMfY442ihjV0jZV2soOR0INbEn7dvhaCM7NO8Qs3YCCMZ/Nq2WKpzUZwas1p6BCNlqfQEmtfM2TyeuKn8PaVqPjbXYNK0i2e91C6OI4gfugfeZj0VAOSxwAK+a4f29dCR/+Rb12fJzg3EUQPtnDVU8Xft3+IvFnh240TQ7S28JaJqAC3kVnIz3d+P7s05+Yr/sLhfaufE46cY2oJc3d7L/P0/IuOGcndvQ+pfj78dNM8LeBo/hn4T1CC/06GcXfiLVbdv3es3q8COM9TBFyF/vHLV8x/tCftK23wG+Gs2qsi3+r3T/ZNJse93ct90Eddq9W/LuK4f8A4W/Y+EPDVxqWq3cWn6faAtJJIcA46Ko7segA5Neb/D/R9V/aR+Ig8e67ay2ulWmYfDunS/8ALCPPMzD++3X/APUK/LPELj/AcGZLOp7RSxE72va7k95PyXTpolsfScJ8HYviHNYZdhlZP4pdIx6t/p3Z1/7MvwV1FdQuNZ1d21Lxj4omM99cPy25znYPRV9Bxx6Cvvr4a+Crfwb4attPhjTES/vD/wA9GPUmuC/Zt+Cz+HtOXWL5FF3cJiBCM+Sh7/U17Nomms1sWbO4Menev8g+O+La+b5hUr1JuTbbbvu7/of23LC4PLMHTyrAJRp01b1fW/fzPnHw78MPib/wTf8Aipc/Ef4UaPceMfh34g1FtR1Tw5bHbfaLdA/NLbA8PGw4K+gAI4Br7B0f/gvz8CfG32PUPE/wU+Itx44tkAW3Tw0ru0gHADyYKc+5A9a9x/Zt/ZZvPiT8GtM1ZdTjtIbxpcRvAWIxIR1z7VY+Mf7HCeBvAes63NeWt01naSPgQbWOFOOa/YMh4/4kwmW054nDKpFQ0nzWbjbrZ6n8tcRcP8G5tmksPjW1Lna5YrS/NtqtNT5F+L37Qvj/AP4KKfEnQNZ8baDD4B+G/hC6/tDw94Mjn+0T3V4AQl7fyDCs6Any41G1CSeTzXZNcR3EbQyLuV1wc9DWBo1i6RK4YfMB7YrSIkjzkDPoe1fg3FnE2Nz3G/W8a1ppFLRRXZfq+p+7ZRw7l+UYaOBy6PLCP337s+Gv+ClP7Gx1rSX1LQYMXFmzXNiQMknq8OffqPcV8Z/Dj4p3+hajp2s6a72mtaPOHG44KyL1U+zDII9Ca/ZPx34dTxboE9lcqGSReo/hPYj3Br8j/wBtP4Un4D/tXy2cSLDbeIrcXuxeFD5IJA9yM/jX9VfRk8TK9LEf2DiJecPI+P8AFHJoV8JHNl8StCfmnpF+vR+R96fCj40ad8b/AIdWWuaedhuF2XMBPzW0wxvjP0PT1BFfNH/BS3wte/Dy98JfGXwtcyaX4s8K6hbwPdQna7GMl7WUkd0KmM+qMB0FeffsrfGyX4RfEDyLiYroutlYbtD92J+iSj0IPB9Qfaux/wCCovxagi+CmneFbcmfU/EWoRSJbJ80jRxk4IHX5nKqPXNf6B57mmGx/D9WeItzRX/ky2a9T+YMwwKo80KmtOSd+1mtUz90P2aPjnD+0P8As7eB/HUAEaeLtEtdUZAMBHkjBdfwfcPwrtWuuprxP9h74X33wF/Y7+GHg3Usx6h4d8OWdrdx/wDPObywzr+DMR+Feqav4isvDehXOo6jeQWVhZRmWe4mYKkSjuTX8512lNpH+ZuaRpRxtWGH1gpSUfS+hqS3QOOSM+lcf8TPj/4N+DUO7xL4hsNNcjctuWMlw/0jXLH8q+PP2tv+Cm0kejagPDeqReEfDFoClxrl2wimn9oyfuA9sAufavhnSvi547+PerPd+APCE9/YXDHf4n8Uyvb203+1GhzJKO/+FRzwguapJRXmfb8IeF+b59U/2em2vLp6vZH6b+Kv+Cs3w/0q4eLStF8U63sz8626W6H/AL6bP6VzVx/wV60tnJTwBreOxa/jU/8AoNfDMX7KHjbxWiy+IPiVqUcv/PDQbBLS3j+hOWOPepj+wpIUyvxB8fb8dWnRuf8AvmudZ1l8d5N/I/baH0XcbKmpVZxUu3M3+R9uH/gr5p4Py+ANTPPOdTj/APiKli/4K62MoH/FAakM+upR/wDxNfCx/Yd1WGT5PiP41UZ4JWMn+VTRfsUa/F9z4neMF+sERP51f+sGXf0in9FzEr7cfvZ932//AAVk0th+98DasM9Nl9Ef5inyf8FZfDkX3/BniBWPYXMJr4PP7EPiWZ+Piv4yjz6W0NTD9hXxGTn/AIW14yc+jWkJH40PP8t7/gzOX0X8T1nH72fb9z/wVv8AD0a/L4N1xs9muohj8qqH/grvoj/8yPrOf9m9j/wr4wk/Yf8AFXlYX4o+Iv8AwXwZ/OoR+w54oZ/n+KPir/gNpAMfpU/29lyejf3E/wDEsNf+aP8A4Ez7Sf8A4K56QXwvgLWj9dQiH9KVf+CvegiQb/A2toP9m9iavjRf2DfERXP/AAtTxeD7wQEfyprfsFeJc8fFXxVx2+xQZpriDLtuZ/cUvow4hdY/+BM+0V/4K/eHQxX/AIQjxD+F1DzSx/8ABWjQJsEeCteXPrcxH86+K/8AhhHxNEcn4reKv/AKCpov2GPFTKdvxV8T8d2sof8AGm8/y/8An/AH9GGv1cf/AAJn2mP+CruhTH/kUNYB7/6THTLj/gqno6n5fB2psPe9Qf8AstfFU37DHi0scfFPxH9fscX+NQv+w74tPDfFXxN+FpDULiDL+svwF/xK5iH8Mo/+BM+0j/wVp0eJcN4I1cep+3xn/wBlp6f8FadFmcY8Faxj/r9jP9K+JT+wh4oYcfFHxSze9pDiiL9hHxgrHb8U/Eij3soeKa4gy5r4/wADR/RZxSXxx/8AAmfc3/D1TR2G4eB9cPsL2L/Cmv8A8FVtDDfvPBWvIvYi7iOK+IW/YT8Zj73xX8TewFhDg0yX9hjxlGh/4up4hP1sYh/Wp/t/Luk/wZEfot4z+aP/AIEz7iX/AIKreGmjyPCeuhu4NzEKG/4KsaICDH4P1eUHs19Ep/lXwv8A8MQeLs/8lS8SZ9Fsof8A69TW/wCwv4smwJPip4zXjgR21uP/AGWpef5d/wA/PwZtH6LOMX2of+BM+57f/gqxozSHf4I1tfpfRH+lMu/+Cq+kpkReB9YkB5G69iH9K+LYf2EPEssQI+LHjtMDBwtsD/6BQ3/BP7xC2d/xX+IMv/AoFz+SVL4gy7pP/wAlZS+i1jP5of8AgTPsSb/grLbQLiL4fapKfT+0Ix/7LVrS/wDgrXozzBdU8B+IrKIH71vcxz4H0IXNfFT/APBPzWhgt8UPiHu9VuI8fltqBv2LfHvhdzJo/wAW/Em8HIi1Syhu4m9iOOKn/WDAPaX4Mit9F/HQg3Dkb/xM/TL4Yft7fC74p3Edtb6//ZF7Kdq22rQm1Zj6Bj8p/OvY4F86FXjdXRxuV1O5WHqCOor8XNe0T4qfD22MniDwtoXjzTo+JLnw+Ta36L/e+zyfK/0UivaP2Rv28dX8F2pfwrq0ut6LbNtvvD+pho5rMjqhVvnhf07fWu6hWo1481GSfz1Px3i/wnzXIZXxNFxi+u8f/AkvzP1BLlSTk47D0qSO7KKe/wCFcb8GvjboPx58Gxazok5IXCXVrJxPZSd0df5N0Pauimbyzwc4zRLQ/Np0XTbT3Rbl1DL4K8Y/zmvzM/4ObvCsfiz4WfDDxwqA6p4N1U6RcTY+Z7a4XegJ9nT9a/SCS4MbYbALc4Hevgn/AIL2RDVP2NPGqMAfsbafdJkfdZZ1GfrgmuLE004v0f5H6z4I5jVwnFlBwk0pPXzOn+AepjV/hxp0m4EmFDn1yoP9a6zUmxplyw6iJv8A0E15j+x5fnUfgnpRYkuLWAknvmJK9M1Fx/ZtyD/zyf8A9BNfwTXjyYycX0k/zP8AbmWrT72f3q58vWl35XiUg4H7oZ/76r9d/wDgjz8Y7P4gfssN4bDSrqXgbUZrSVbjUFuZ7iC4Y3UVwF3tJHBulmgQOFGbOQINirX49/aP+KpT08nn/vqvrz/glL8cm+Fv7Z3gzQCt7ND8TPt3h4RJdyJbQyRWFzqazvCDskdV0541ZgWQXEm0gO4b+suBX/wjUH6/mfy14wUlLOaz6rl/9JRD4uwuiynqA6n/AMeFTeGXH9hZ9ZGP61W8avs0CTnB3qP/AB4U/wALzFdBwT0dv51+WeNiSx9P/CvzZ9j4Kq+T1F/08/RDtTGYyM9q/KTX/wBjW+/4KE/tV/GFvD+o22geKvCdzbNYSygi3v5XeRfKlK8oSEGJBnHcEV+rGoSFYfevj/8A4JJ2Czftb/H6Zl3Ftb07v/tTkVHgFTlLOa9SDs4Qujm+kfnWJyrgipicJZT9pCzaufF3ij9kz9pX4L3stn4g+CniDWTbMUN5Z6dJfQzY43LLblgwPr1rgPEPxI8feDfFVr4e1L4eN4Z1m+QSwWmp2NxazSJz84WXBK5Dcjjg1/SHIzW8p2FlJ67Wwa/I3/gr0s3i3/gsb8PrKRnm8vwpbKoY7sZN239K/rvGcdZ1hcHVxEK3wRb2V9POx/Hfg74oYziziXD5BjKSgp2vKLd90tn69z4d8N6R498LeKr7UotGgkXUCGuLUSBY2PYjngius/4TfxTKcTeC3JXqFvV619bP8MSmcxhl9lqnN8PDGMfZ1I/3TX4vhPpD55SVozVm77Ld7n+i8/AfKl/DrTX3f5HyTc+NfEQJx4SkXBPDXQNNfxf411WCS3tPC2nqCu0maTfgY+tfSnhv4b+Jvj58S5vBPwu8Dah8QPE9qA96tkFistKBOA1zcNiOP6Fs/wAq9y0r/ghV+1Nq+nm5MPwi0iZhkWcuq3E7r7F0i2Z+hIr7DD+MfFNaiqnNGCltey/Dc+AzPhHhLLq7w+Ixkm47qKT/ABtY/NbwXovj/wCHN5cGLQlu7C4Yu1sG+RG9VweK6SX4oeKYkG/wTcbh12ysf6V9I/tHfAn4xfsHalbj4y/DG407w/cuI4vEeiS/btMc9Mb1+6f9ltre1WdA0HTPF+iwajpskV3ZXSB4pozuVwfT+o6iuKr408T5VTUZtcj2ejXyep6uS+GXC2dJvLcXNtdNLr5NL9T5ak+MPidGG3wTdgj1L8/+O1btvib4+1aNUsfCcFo78CW43YH4EgV9PTeBlgJBjGPQjNQXnghQm4xDPtxXBW+kJn9SPKp2+S/yPdp+BWXwknKvNrtov0PMPh5+ylqnjTVbPW/HupHWpIwJLbT4ji1h7jgcH8BX2L+z98HI9Wvo7iWBV0+yIBCjCkjoo9vWrvw3+C0uuw2VuF2RRwx+Y+PuDaOPrX0H4e8G23h7T4ra2QJFEoAXHX3Nfy5x/wAf43Na0p4uq5zd+ux+pZXleW8PYX6rltNRb3fV6bt7lmziW2tS4CJEgzk4AUCsv4DaZ8Qv20fEN5o/wX0OwvtJ025a21PxprLPFoOnyA/NFDtG+8mXuseFH8TisXTfgx4g/b4/ab0v4IeH7y70jwzbwDVfHusWrbZbTT8jbaRv/DLOfl9gSe1e9f8ABX3/AIK/eBv+CJvwJ0H4PfB/RNCl+IjaYsWjaMig2PhWzxtS7ukXl3Y5KRk5c5Zjj73qeHXhjDMqUcdmEebmfuw/V/n+fY/FvEbxEq5VVWXZck6zV23qop/r6nsvhP8A4JfeKPBvg+xg8WftXfFrTI7cH9x4fl0/QtNjYncwjVoZHxkn70jGk8Wf8E2/E3jrwzd6f4L/AGuPijdGaMxy2+tTadr1rMpHKuqRRuAfVWBr+Wv9oT9sD4oftVeOrnxJ8RfHXiXxZq125Znvb1zFCD/DFECI4kHZUUAV1X7Nn7d3jL9n/wAQWbxatqIsoHBWW1naC6tf9pJEIJx6HINf1DS4IofV1hJKKja1rO1trf0j8HwuPxNTEfWq2J5al+a/JFq973a9fI/cv4pfBP4n/sV2gHxT0qyv/DMbiNPGOg75dNUE4X7VEw8y1PQbmzHn+Op4byHUbWOe3lSaGZQ6OjbldSMgg9wRUn/BLr/gt5L8VLnTvh/8Y57PxBonieFbbTfENyinzPMG0QXikbXRwdu8jOThs5zVr9sb9mOD/gnh8Y9Gk0Qyr8HPiJem102B2Lr4U1NgX+yKx5FtMATGCfkYFem2v5w8SvCGWWueJwUbNe847px7xf6H7vwjx7XxWLjlmcKKqy+CcdI1PK3SX4PsuuRdR8KDzmvzN/4LbWFzp37RfwzuNPsZtQv77TXghtbdC8t1IZyqIqgEsxLYAAySa/Tee2y+MHI618G/8FQLk6L+3L+zXfqPmtdctWB78ahb9Pzr5HwQlKnxfh3HtL8j2/FPFyocK4uvT1cI8y9U00fLnhX9ir9pv4j3MSaJ8C/HtvI7DZNe6W9pGp9S0+xQPrX33/wTk/4IgeJfCPxs034u/tC6rY654k0qRLvSvDsNx9ritbhcGOW5lHyN5Z5WJMqGAJJxiv1G1SaR76ZnYk72xz05qjJNxk8V/oHisdWqLkqSbX4fcf47cV+P/EWb4eWCio0YO6fLdys90m9r+g57gTOWLbcZZ2Y/qTX5y/8ABR39vKO+huPs01xceFbG7FjpGm2hIuPEt/naMD+Jd3C9gMnvX1h+2h8Rrjwv8HbnS7C5NvqPihzp8cinDRQ4zM49Pk4/4FX5p/s3+DT+0f8AH++8dzoZPDHgmeXQ/ClsR+7kmX5Z7zHcg/Kp9z6V4ONxSoQdSWyM/BfgOXE2bJVdKUNZPy/zeyL/AMGv2O7/AOJfiOz8XfFtodb1tCJtP8Ooc6ToAPIUp0lmHdmyM+tfXXgr4MS600I8grGmAiKNqAdgAOAPauu+EnwgOoTxFouSfSvqb4V/BOC3hiHlDHH8OCa+BxeOq15c9V38uh/ofSjg8pwqweAgoQWmn6nhnhH9lk3MY/cAbuSMV1ll+yBG8fMHXr8tfVWhfDSOzgGyFAOmSK6Kx8FwpGMlOPUivPdR9DxqucTufHkf7HMTZ/c4/wCA1Kv7Gu4cQD8hX2XD4TiQf8sj75FSp4Si3DPlH2GKXPIw/tmr3PjKL9jPv5P/AI7U3/DHrf8APAf98ivstfCcKk/cz9RTv+EViJ6J/wB9CmpyexKzmr3PjEfsfnvAv/fNB/Y6y3/HsPptr7QHhKFc5CH8aU+FosdF49xTTYv7aq2PjGH9j75ebYD8Aam/4ZDROkAyf9mvsn/hFoR/Cg/EUp8L26D+A/jT5X2F/bVXufGrfsdo+MQAf8Bpf+GPljT/AI91OP8AZ5r7J/4RiHssf/fQoPhOH1X8xWdn1Qf2zV7nxn/wyAmP+Pcf980H9jpf+fUflX2afC8A7J+dH/CK24/hQ/iKWr6D/tqt0Z8cR/sdof8Al2X8RTv+GPEH/Lsv/fNfYo8LwL/c/OnHw5AvJaLj1IFKz6IHndVdT44/4Y8U/wDLBR/wGo3/AGMhLz9nQ49s19mJ4bilGV8lh7HNSr4XU5wsfHtT5Wgjn1VPc+L7b9jONG+a2XOePlxV6L9jGHA/cAH6V9if8Iyn/PNPwqSPwvCSBt/MYqeVifEFVfaPjU/sZpv+WEcf7NTQ/sXMVysHT2FfaJ0C0sYHmm8qKKJS7u5wqKBkkk9ABzX4q/Hr/g6c8b3/AMaNTX4G/Bzwt4m+Fug3clqmr+Ib6eC88TLGxV5bVYyFhjbB2F1ckYJAyVHp4DJsVjJctCNzF8SV1pF6n2wf2Km6G2/MVT1f9hpWtmbyQCeBxX0V+wl+2h4K/b+/ZO8PfFrwtG+m6Tq8MgvrK+ZVn0W6hYpc20x6ZjZW+bgFdrcA1+cPxm/4OodA0r4s3lt4A+CepeO/h5p909v/AMJDJryafdasiMVae0tjEwMZIJTzHUuMHC5ralkOMqzcKMeZrVpDp8S4mWiud18S/wBj260cPJDCwKdwOeK+R/2jf2SpLvWhrmlu2heL7MH7PqcS4FwP+eM6jiSM9OeR1Br9i/2d/ix4D/bz/Zs8O/EvwJcNfeHPFNsZ7fz4hHcWsisUlgmTPySxyKyMucZXgkYNeSftD/swwapZzNFbgMoPRcGuGlKrhqt0+WSPRhmlHH0JYPGxU4S0aZ+WH7Pn7QXiP4WeN/tsCPpHifSSItT09iTBeR56Hs8T4yG6g+hFfpl8Lvirpvxh8B2PiDSz/o16nzRMfmt5Bw0be6nj34Pevg39rf8AZzu/DE/9vabAzatoys6Kox9qhHLwt65HK+hxXdf8E3/i+tvr02j+ezaV4jgF1ag9BOo5/ErkH3WvuMszL63G73R/HPjP4dQyWosZg1elLZ/+2v06eR9lXEwQj5sZPavgr/gubdsf2SviAoJ+a2sR/wCR0r7mvrnc52kZxgV8F/8ABbaZpP2T/iFk5Hl2I/8AI6V6M1v6HwfhK78UYb1/yD9iTUi/wssIiSVWxtxgH/pktex6i/mWc/8A1zYfoa8L/Yfkx8NrHrk2Nv36/uxXt9w/+jSgf3G/ka/gjHpf2hU/xP8AM/3PppuEX5R/JHyfJcFfFeNxx5Gf/H6+gv2BGMn/AAUX/Zu68eKtV49P+KT16vm+6uP+K2CZPFtk+/zmvpD/AIJ2Reb/AMFEv2e/SLxHqj/+WvrY/rX9Y8DxtkdD5/mz+W/FrXOK78o/kju/H0mPD0jf9NE/9CFL4bkD6MXHALN/Oq/xCdh4Wl553p/6EKb4UJfw4c5++9fk/jhpj6SX8n6s+x8DNcnq/wDXz9EGr3bR2z89ifevlH/gkpOR+1B8d/V9b01un/XevqTW8taydThfz4r5b/4JNQsP2lvjw5BJXXdOA9v9dWv0el/wq4r/AK9ng/SuaXh/U/6+RP0yuMyStkDjjIH86/Ob41/BfT/j9/wcZfDPw1qct1b2V14VWSSS3IEimO2vXGMgjqBX6PTLncQevWviPRIVf/g6A+E6sM/8UTI3Pr9jvK/pXG0YVMFWhUV04u5/nH9HzF1MNxlHEUnyyjCbT7NNNM+zZf8Agk74EuHwuq+IY+2Q8X/xNfP37cv/AAT00nwQngf4eeANc125+I3xb1j+ytLedYzDo1jEBJf6jIFXJEMPCjIBd1r9OntQCcAAdRx0r5k+GF8vjr/gtf44+2xiSL4a/C6wg0xW6RPfXMkk7r7sI1UkdhX4NheGMvhNVFSjeOp/od/xEjiKcZXxc2kn1Xp27s+RP27P28vh5/wRF+DNv8C/gfp2mx+K7G0W51jVblFna0kdci4uCf8Aj4vJfvAN8qAjjGFr8v8AwH/wUA/aO/ael+JfjTTfit41tZ/hton/AAkbt/aUgEqi5jjKhFIRQA5bG3Hy4qz+21+zF8Xf2wv2jPFV34Y8P6h4q1PVNWvNX1Z45o1EIed1iDNIyj7owBnt7V7b/wAEsP8Agmr8Uvht8Hf2ktF8X+CrvTNS8b+CW0fRoZLiGQ3sxWZti7XODv8AL6kDkV+9cLcHRrYeFedLnU95NXW34JM+P4qzmtlX+z4dpSjy88mtW5Wvq9kr6H1V/wAEV/8Agupa/wDBQHVB+zd+0fpWja1e+MLR7HSdYkhVYNbfaSbW5j+6sxUEpIuMsMYDYJ8T8T/sPWH7AH/BUO4+D+u3Op2/wy8fXBPhyeNwPstzKpa3ALAja5Vo2/2selfFfhv/AIJTftX/ALOuv6L4/j+Efi7Tj4RvINahvIHhcwNbusob5JCeNvav2e/4OR/Dyax+zf8ACz4qwRLbeIdFltdSjkUYZCj29yoH0Jcf8Cr5bijhijQnClUj+7qu1ul7rbtZ2PW4K4jqYbM28NOznGVnHpJJtP5q6a2e+6OI1b9gjwnBO2y61pivHzSJ1/Bau+DP+Cd3hbX9TiilOsGJnAJ84DIJxnOK+47H4P2uvaba3wiUC+gjuOnTeob+tbWifC+20RU8qMbgRyK/L6uRYCn7nJdrQ++reKObKLUcRK/yOX0v/glp4P0ywijs9b1u3XYMArG3b6Csn4rfsHeF/g38K/EfivUfFOpLY+GtMn1OfdAgBSKNnI698Y/GvrmyGbaMf7I/lXyp/wAFqvFM+l/sLajoFrI0dx481vTfDY2nBKT3KmQfiiMPxrglwHkVR808PFt+v+Z8Hl/HfEeJxtOhLFyfNJJ7PS+vTseTfsB3Fl/wTk/4JY/EP9orxxEs+veJ7O58a6irDY0sYUrY2YJ5GSUUD1lr+Y/47/HLxL+0x8Z/E3j/AMYahNqfiXxZqEuo39xIxOXc5CL6Ii4RVHAVQB0r+iD/AIOr/iCPgP8A8ElfCfw90tjbQeJvEGm6K6ocBra0gacrx23xRflX817HHvX7dwdgKVHDXgrJe6vJI+fx2OqZhi62YVXrUk38tkvkiOT58dsU37g9c0qrigLtzX2Lkmcdj6a/YT+JUl9HeeF7hizWoN1aHPITI3qPocMPxr+hT4KWsn/BUL/gjz4k8Fa5O1z4o0izksbe7J3TRXlqqzWVxnruyE5781/M9+x7rZ0P9o/wuc4S7ufsjjsRIpX+ZFf0af8ABA/xLLo3jDx54bYsttd2dvqCoeQGVjG36EflXlcV4eGJyqNWXxU3b1T6fl9x7ccZUhhY1ov36UlKPyZ23/BO/wDZz8Pftffsc+D/ABpfavqdnrk8D2OsW8ewiC9t3MUy8jI+Zc8+tfDH/BxB+yLpP7P37SX7LV9pup3t6dZ8QtbSpOq5jEV5ZOGXHrvI59BX6I/8EgbQeDvEX7Rng+Jitj4c+Jt89pH2jSdVkIH4mvlD/g5/iW7/AGlP2PoXPyt4nuP/AEpsP8K/JOD+E8pweZ0sTh6CjUTeqv8APr1M+O+J81qxxuCqV5SpSjJ8rtazjzJbdND661OQNdy+zt+HNY97Phio6HvV/UnJuZcnA3N2rLK/vR7nP41+4V/jZ/k3Xaimz4L/AOCtvxlu/A+h+Jb2CVjJpGmLp9koOMXFx8ox75YflXT/ALDP7PMHw8+FXhbQY4Qo0rT4kmO3l5mG6Rj7l2YmvIf+Cr2jS+J/H3hDSJN3l+JfiHp9q4I4dVkBx9OK/Qf9nn4dBLdm2Y3Ngcdq+M4iqNRhDvd/of3/APR1wNLB8LyxiXvVHa/kl/md78H/AIZpa+UTDz9OK910zTBoNvDFb2/2m+n4hiA4+pPYCs74eeGVs7dGK8KOPavWPh54YW1he/mQG4uTlc/wJ2FfOYDC+2neWyP0zNsc1oc9p/wPl14ifxBfTTOeVgibbHH7ACrp/Z18Pk/cuR9JmrvaK+kjThFWSR8461R63OCP7O+gk5xd/wDf9v8AGpB+z7oPHF3x/wBN2/xruaKfLHsvuJ9rPuzhf+Ge9AznF3/3/b/Gg/s96Cf+fwf9t2/xruqKOVdl9we0n3Zw6/ALQ1HW8P1nY/1p5+AuhHtef9/2rtaKfKuwe0n3OKHwH0P1uz/23NH/AAofQ/S7P1mNdrRRyrsHtJdzjR8DND/uXP8A39NA+Buif3bn/v8AN/jXZUUuSPZB7SXc40fAvQgfu3X/AH+ag/AvQe0dyP8Ats1dlRRyR7L7g9pLucS/wB0CQjcl0cf9N2po/Z78OY/1NyfrOx/rXcUUKEewe0l3OCl+BVrpTLPod9eaXdJ0YSF0b2KngitHwvrd1Lcvp+q262+pQDOUH7u5X++n9R2rrKz9f0ddThjkX5bm2YSROOoPp9D0rlxeFhUh2ZUar6jsBOwOa4L9pP8Aai+H37HPwk1Dx38TPE+meEfC2msscl7eMf3kjZ2RRIoLyytg4RFLHB44Nd4fmI7GvxS/4Ozoddh+L37OF5fvK3w+VtWhEZP+jpq5WHY0g6bvJzsJ9JMd648ly+GLxcMPJ2v1NEuY/SH9nb/goB8Ev+CqHwk8baH8JPH9nrN8dKuLHULKW3msdS01biJ4lme2nVJfLy3DgFc8ZzxX8yvgfVR8F/C154K8TIdI8R+B7ifQ9Vs5/wB29pcW0jROGB6fdz7g5rv/AIF/GrWv2TP2nvhz8UfBsslt4j0DX7K0eKDIGr2NzPHBc2UgH30kSQ4HZgrDBAr9xP8Agr38Lv2J/gPqWj/GX4//AAs8PeK/HN1ci00O0s7BptX8U3MahhEbdHSO6CLgs9zlEXblhkA/osqNTh7GOlTXOpLQi/JI+Tv+CX3gjxz8Mv8Ag22/aa8RaXZ6pazeNE8Ta94YQxMks9i2nxQNcxL12u0U7KR94AMOCK/JlPF2j+F/h7ZXcU8EWmRWcfluGwoQIMYr9hm/4OpRpk0Nm/7K/iOHwbDGLd0h8TWT3MdqBt2paiIRnC8eX5gGOM17R+wD/wAE0P2Cf2tBpH7RHwn8C2uo2Md893HpN/eXX2Dw9qUbB5El0ySQxQzRsQdhUoMqyDaVNY4PMMTllapiK9LWotOmu/8ASOilWdNPmW56D/wb/wD7OOvfsuf8EufCsPjKFtF1TxVfX3i6axuj5baXDfS+ZDFJu+63lCNmBxhnIPINfWvizw9B4k0rzE8maKRdyuhDLIPUEdfwr+av/gpF/wAFDfFX/BVr4y65qusapqln8I9F1Gey8J+Fba6eGzkhikMYvrtVI864lwW+bIjVgqjqT9yf8GnPjXxTJB8cfBYvdSvPht4Zk0q40m3uZ3mh0q+nFx58MBYnYrxpE7IOAcHA3c/NZxw/XWFeaV2k5a2667GyoVKS9q3byPrn9qL4DwzwSzLCDGc/w9a/PX4X6DJ8FP2g9U0eMbV0XU4tStBjG23uCSygegbePxr9lPi74Xi1XSJ1Kg7uV4zg1+ZXx5+HaaV+3XYWqxnOteGJXcFepguUwf8Ax814nDVRrGKHe5894oUoYvhHFSqq7ppSXyav+DZ9JLMsqBsZBr4V/wCC1q4/ZL8fj1jtD+U6V9x6UxbToCx+byxmvhv/AILdTeV+yb4794LQfj5yV9s7O/oz+RfCWVuKcMl1Zl/sPzL/AMK4sPewt/8A0WK9tuWzZydPuNznjoa8M/YlO34Z6eTg5sLfj/tmtez3Vxm2k4wPLbv7Gv4GzDTMKi/vP8z/AHfw0P3UP8MfyR8kRS7/AIisDyBajGT/ALZr6i/4JwJ5n/BQn4DEnJTxBqh/8trWR/Wvla0Jb4gS8EkWy/8AoZr6p/4Jun/jYR8BwM/8h7Uyf/Cb1mv6z4LVskoL1/Nn8neLOub1/RfkjqfiLIT4WlxwS6c+nzCmeEZGGgOvpI386f8AEv8Ac+FpOOsif+hCq/hUg6GTn+Nu1fknjg/+FCmv7q/Nn3PgZD/hEqv/AKeP8kP1Rx9mkGOCp/lXy1/wSYuf+Mj/AI75wP8AioNP49sTV9P6vIDbsBnlT+WK+V/+CUc/lftQfHiM9P7csH5/7bCtvo+u2bYpf9Oz5n6WUX/qBUt0nE/TF7vcSOR74r4w0Fwv/Bzt8I5DyZPBUy8/9et4K+xZJPm69a+Cfil8WbT4K/8ABxb8IdfvLa4vLe18JskkUJAch7e+XgnjgkV/SmZ1oUcBWq1HaKi232R/m/8AR9oVcRxjChRjeUoTSXdu1kft7I21q+U/GviO3/Zt/wCCwPgjxJqZW28P/HLwg/gxrp8CNNWspmuLaNj2MkUkir6lcVrN/wAFMfDbHA8N60cf9NI/8a8S/wCCgPxq8K/ts/s53vhMaTrmh6/ZXEer+HdZjmjEui6lAd0FwuDnAPBA6qTX8/U+Osji9cQvuf8Akf6JYPw7z/n9nVwskpJpvTS/Xfo9T87P+C8P7JfjD9mn4jalrWgzazYafa6hKZZrC4kh8y0mYvHI2wjKhuD6HPSvOv8Agip4h8QeNLj9o641DxJr11Hofwm1O9g8/UZpBDNg7XXc3ysMZDDBFfq1+zh+2/8ACj/gp/8ACmP4NftAS2fw/wDjposP2G4W5kS3i1hwNv2uxlf93Ikv3mhbkEnAI5rhfh//AMG2Pjz9nHxt8QZfhT8UfCWneGvijoM3hzV01TR5p5Le0lJLPbojgCTBOPnK81+4cK8VU8LRhRrN8kXeM46pxetml+B+f8c4KtioTw+IXs665YyUrq/K1qnbqlsfi/8AsN+E/i9+3l+1b4B+FekeMvHGojxJqMIv1k1m6khs7GMh7qeQbyAiRBuvUkDqa/bD/gun4sX47fE/4d/s/eHG8+a/1HTPD6xp8xR7iaIyZ/6520TMfQVa8I/D39nH/g2v+B2rnRtSi8bfGXxHa+XcXl46fb7sLyqMqZFraKcNtB3OQMljjHgf/BN/4p3upftKap+0J8UNF1HWtTvI528L2m9YjbPc8T3zhujtH8kY/hRm9RXzHF/GWEjWjmGPnyUYO0ObeT723sfZ8F8K47FOrmGFouXLFqCWl21a+ttEup+x6aXFYQx20I/cWyLDGP8AZUAD9AKjnhCjIGM185xf8FMNBcbpfCusqD6XERNNu/8Agpl4XjRnfw3r5C9g8X/xVfllTjjIqknJYha+T/yNv+Ie8SLSWEl+H+Z9pW67baP/AHR/Kvi3/gtdqXkeDfgZbtzb3nxS0tJffAkI/Wu1g/4Kh+Gfs0JPhnXwjRqwO+I8EfWvlj/grP8AtraB8bvCnwY0nStJ1a11CL4jabfrJcBAiLGrlhwc5OR29a9fA8XZNiqscPQxEZTey1uceT8D59hcdTxFfDSUU3d6aaPzPL/+Dzq4eP8AZ2+CsH/LOTxPeuR7i0AH8zX8+Dpz71/Qp/weWw/bP2a/glNtJ2eJ7xSfrZg/0r+fKSEhsEV+18MP/Yv+3n+h8tg6beHj/XVlYqRSKnpUwg3+9SJp7k8Ka99s2WHk9kdh+zHAZv2ifBC9N2tWoz/20Ff0nf8ABHfTItM+PHiSRFwRo20e/wC+Wv5vP2a7drP9oHwXKwI26zan/wAiCv6Sv+CSV0q/G3xEOMnSOf8Av6teTn1a2V1E+6/Q6/q8lhppruen/wDBMeXb+1N+1aqg7P8AhOo246ZNuua+Tf8Ag57cR/tLfsfSHgDxPP8A+lVhXqX7Fn7Z/h/4E/td/tP6dqthqNy174581ZbfaRgQIMEE9c18qf8ABwp+1do/7Q/7S37K9roljfQDR/EbSytcbR5nm3lkqgAZ6bCfxr8w4bz/AC+efQy1VV7W/wAOt9rj454YzWnhsRmM6ElR9jfm6fw0vzP0E1CbfcSjp85GPTmqMswBGCMjjrVvVoCl5N7O2fzrNmUFiOgBr9sxMdWf5GVK/Oz4n/4K8eDF8J6Z8KPG4U/Z9L+JGk3FydoxGsk3lkk+mSK/Rr4I+HEtNNIC85yOOBXzp+3n+zTc/tc/8E//AIjeFNJRX8R2Vr/amkD+L7XbkTw49CShH416P/wTN/aVsf2n/wBmDwf4thyt3fWS22qQH79nfxDy7iFx2ZZFP4EGvieIYt01L+VtffqvvP798BM1hW4XWGi9YO9vJr/NM+qfDcQiiC9sdBXrGl3CXWnwvGMIyDHtXkthcCIYzwe9dh4T8Vrp2Lec4gY5Df3D7+1fO5Zi405uE9Ez9Nx9CVRc63R2NFMjmWVAykFSMgg5Bp9fSKSex4wUUUUXAKKKKYBRRRQAUUUUAFFFFABRRRSuAUUUUXAKjknCIxPAAp7uI1yTgCsfVNTE8vlrnaD+dceMxUaUfMunTc3ZEhuPMry/9r79kLwB+3Z8DdV+HnxJ0VdY8PakRIux/LubCdQdlxBKOY5UzkMPcEEEivRPONSW8m5s+lfOQryjLmi7M7XTcVdH5QfD/wD4Ia/s9f8ABHzVLz9oT4yfFjxP438L/DqddR0DTNYtoYYba8U/6MPLjJa+u9+0RIAoL4bZxkfBv7W/7WXij/goT+0vffFvxjp76HGbX+y/Cvh55PM/4RnS9xYK56G6mY+ZMw77UHyoK+uf+DqvxFq3h/4/fs2Pq4uJPh60er+SrE/ZI9a/ciOSQdC4hLBCem5yO9fnjf8AjSKAszSqvOTyOB9a/XeGKKq0Vj60+aa0SetvP/Iyi5Oaual5tWPBA6dK9t/4I8f8FBNP/wCCcH7bF1aeKboWnwi+MPk6V4hkckQaLqIJW11Bx0Ebbmhlbsrqx4Svm6fxrBckhJo33f3Wya474h/Ztd0u5t7pEkt7iIpIh6Mp6ivqcVR+u4aVKo/Tyfc9SVBTp8rP0g+I/wDwal/FGx+NuqW3w3+Kngix+FWrXst5ZXGqRXMuqaVBK5fyfJRfLnKhsK/moGABIFfq5+wJ+wV4K/4Jw/s5af8ADvwX9quolma/1bVrzBvddvnCiW6mI4BO0KqDhEVVHTJ80/4ILfEHxJ8Qf+CRfwXv/Fkt3dakmlTWVvc3TFpruyt7qaC1lYnk5gjjwe4APevrG7uQik1+J5tmeKn/ALPVleMdLHE6lSppJ7HO+N1VrJ8HI61+eXxet4/FH/BT2ysIRlvD/gGW5m5zsN1fhUz+EDV+gPjfVUt7B2dhhRkjOPzr88f2B71v2iPjl+0F8fJzu0HUtbHhTw1LwUuNP0mNoWlQ91kupJiD3xUcNQlLFc6+yj4zxTxnsOFcRRvrUtH72m/uSZ6sXFuixL91RivhD/guHNu/ZQ8cDpu+xLj/ALbJX3LJcZYnjP8An0r4P/4LfXB/4ZZ8bj1Njjj/AKbJX2q0v6P8j+VvCbXivDJdJFP9ixv+LeWSnqLGADA/2BXs92CbOQZH3G69+DXjH7F0+3wBaKSMrYwA/wDfAr2O8mK28pHHyN/I1/BWYf8AIxqJ/wAz/M/3nw6fsIf4V+SPkqxhx42m6/8AHsvf/bNfVX/BNdgf+Cg3wL4wP7c1MD/wndYr5YsZM+OpsdPsw/8AQzX1J/wTalC/8FB/gOBn5te1NRn/ALFvWT/Sv6w4L/5EtC/Z/mz+SfFj/kb4j5fkjq/inj/hFJDn/lsn6sKqeE5P+JDjrh2HX3qf4tMyeDJP9qaL8PnFUPCMxTQE6feb+dfkPjlf+0qf+Bfmz7/wLV8kqf8AXx/kizqUfmxMTycH+VfJX/BLe48v9rb46p08zVbBvyeYV9W6xe+XbON2CwIBr5O/4JhwMf2wPjltwNmq2Ctn0LSmtvo+L/hYxH/Xs+d+lekvD6tf+eJ+l13N8vU1+YP7dGptD/wXJ+HjZH7rwvABntlLuv07e2+1OqDoTgn0r8Vf2lfjX4n+On7UWpftP6P4eA8B+BdSXwtBbibddXNtbB0e5IxxkyEn0yOuDX9F8T0HXybE4eHxTg4rzbWx/nj9FtKhx1RzOu+WjStzS7c0lb8mfeer/EPTvDWlyX+p6pZ6XZxcPPdTrFEuenzEgVY0bxpZ+JNLjvdN1G01KznGY57adZY3+jKSK+N9astK/wCCgfjvTNL+3THwdpujHVwkZ2/aLiQlFDD/AGNvI7EmuV8G217+wtp2l+NtLmv5vA17dy6L4r0gtvXTbxCRHcxA9A+Bke/0x/JuG8JsRWyz6x7RrEav2bWnpfuf615r4x5PguJVkc7Om1H94nonLVfLzufWn7Qf7PPhX9ofRVh1yyH223GLe9i+WeH0w3pnsa828Cfs0/GrSdN1TRvD37QPxP0XRLS3H2a1i1u4WLBYKVILHC7SentXDf8ADV/xli+ENr8Y73w34btPhZcakLVNPZXGqy2u/YboNnbjPtzivr74X+J7XWvDl7f2zh7e7sI54z/eRmUg/iCK5sXDiXhTCwhKpywnsk1JJrda7M9rL844T4xp154RRrSoS5XdWad++7R4F8Jv+CbekeGvEo13xnr+r+OdXEgm/wCJhOZIt+chmB5c5/vZr6Qjk8nauBhRgAcACqD66JmJz16YPJriPi58UdT0LUtB8O+Gbe3uvFni26a209bon7PbIgDS3EuOdiKRwOpIFfF4rEZpxDjIU8RN1Jy0V9l38kluz6jExy3h/L6mLq2pUaacpPyX4s9JGqFB2qpqt8Xs3B6kflXn3gT4k61p3jbVPBPjWOzh8VaTEt3Hc2SMtrq1oxIE8atkqVb5WXJxkHvXT6lqyC1bDbs9MVwZhw/iMtxTw2KjaS+aa7rumb8NZtl+d4KlmeW1OelUV01/W51XxI+K+h/B34Zp4k8TajFpejafboZ7iTJCZ4HA5JJwAPevnvxx+1p4G/ad8T/CpPCmqy3M9l44sUlt7q2ktbgJKrhJAjgEoT0YcVc/4KVwP4w/Yv1WK3iFxJpK2upyw9RLHDMjuP8AvkGs7/gpT8F7f4q/st+Bvjz8OI003xP4F0+z1W3lslAM9qgWTbgdTEy7h9CO9fqnhZwRgsdh1mtSclWhUaS05duq87n8/wDiz4rVOEs7weU4mivYYmM/fbs1K7SXax7z/wAHSvxg0z9phfA3wM8C2eo+LPiF4Nvm8S63Dp8XmRaRbPbMiJK3aR9wbb2A9xX4RPppF60LhkkRzG6kcoQcEH6V+2n7Mes/8Kg/YmvPiT4heTXviT8TYJPFXiDUHXN1ql7dAtFCvfaqlFVRwK+ffCv/AASU8IfDT9lTxl4++K2oTSeMrnTbjV5Fgn8qy0N2BdYx3kk3EAk8ZOAK/pTIcxWFg8LLWztp1b3+SP5UoeIeAw1aVCvH3VNQhbWUpX1duyPzq0vwRhUyA2459RXQ2PgRJV+4PTp0rU+Fujyal4RtZ592ZMsmR1XJxXd6b4dUDhc9q+tnX7n69SppxUl1OS+HXhNNF+KfhGXG0/23ZqCcd5lr+gH/AIJM3Gfjzr6hgcaO3H/bVa/DAaSun+NfBzjq/iCzA46YkB/pX7Q/8En/ABp9m/aC8ReawQLoUsn4LKhr5nifFNZdUt5fodiwXtcJWkt0j508I668v7Yn7RE3B3+OLhcnuFUD+lfP/wDwUP123l/a4/Z5luriG3trfxDbPNI7bUiQXtuWZieAAFJJPpWj4t/aIPw48RfGTxJBbSXWpeIfF1wumWoJ33dxMwWJR9WI/CvJPHf7AfjL4s/GLwT4H8TeLZ9RM8D6rq95sJGjwsVaWGIknJ3napPqTjAr8L4LyRx4vlxDXlanTvZdZe5Z29D9U8Ws5wGE4OeTYqfLVq0fuStv6q9j7q+OP/Bwr8IfA3xG1TTPDHhfxz8R9H0aYpqev6Har/Z9t83LKz/fUc/MdoOOCa+sPgt8dPC/7SHwp0bxv4O1JNV8O69D51tOFKuCCVaN1PKSIwKsp6EfjXg+u/Gr4Uf8E7v+CffirQdN8MaJp/hTTtGngNqERpNZupEMa+ax+aWR2IyTnHsBXN/8EK/glrHwQ/4J16B/bqS2154v1G58Rw2j5H2S2n2LCMHpuSMPj0cV/SGRcRf2v7WapckIuyfc/wAg+PuAshyrI447LlKMlNRTlK/tLptu3S2+mh9x/CrxanhjxnF5/Fpd4hmJ6D+6T9D/ADr5B8bXVx/wRh/4KJ3V/qAeD9nL9obUxOL0Ai38IeIG+9v7JFN68DBz/Aa+mGhDYUjOeK67xF4I8Gftf/AjWvhH8T9Pj1bQNftvsyPIcSIR/q3V/wCCZDgq3qPqD0YzDwmpJq6krNfk/VGXg/xz/YuN+rVZWjP7tej/ADXn6nt2i6umpafE6lWDKGDKchgRkEEdQRznvWzbXAaId6/Jz4dfHX4rf8EFvGtv8PPjimt+O/2dLub7P4T+IFtC1zP4fQn5La6AydgHGw8rjMZZflH6ZfBz4zeF/jt4BsfFHg3xBpPifw9qKB7e/wBOuFmhf2JHKsO6tgjuK/NszyurhpX3i9n/AJ9mf3FhMbRxNNVaTumeh6br91pfEE7qv908j9a0E8c6gB9+M/8AAK56GXcc1MpPp+tcMMTVhopM1dGnJ3cUbx8b3v8Az0jP/AKf/wAJlfdnQf8AARWCrFj7VIgYE7c1X12v/Mw+rUdrI2X8Z3y4+eM/8Ap6eM75s/vIj/wCsYOT/D+tP8s+lH12v/OyHhaXZGz/AMJfef8APRf++KafGN4uMuh/4DWSHI6igzAe9JY6t/Ow+rUuxsjxbeH/AJap/wB8UN4vvBj51/74rFE+e2KHkB71Sxte/wATD6tStsbH/CZXX/PRP++KT/hM7sHhk/74rIMgbvihl20LGVtuZi+rUt7GwPGF4Dy6n/gIo/4TC7H8S/8AfIrD84UecKf1ut/MxfVaf8pvJ4tuyPvp/wB8il/4S66X+NP++awVuAKUS470/rla1uZj+q0/5TYuddmvVXzHLe3QVF9sI6ZrK88U5Zy5rGdSUneTuWqUY7I1Fu2bufzq/DcbI8k1j2jrGuSQSe1WGuwVFOLtqZygcX+1d+yt8PP22vg9e+A/ib4Zs/E/hu9dZhDKzRzWky52TwSoQ8Uq5OGUg4JByCRXx/4E/wCDZX9lPwheb7/SviB4rTdkQax4quDEo/u7YRHkduTmvvIXQGeTx1p5vAwGcD3zXZRzHE0YuFObSfYzjC2x8V/Ff/g3E/ZC+IXhk2Fh8OL3wVdqpEWp+HddvLa7hOOv7ySRH/4Ehr578Ef8Gmvw60nx9Dc+I/jV8SPFPg2GUPJoL2dtZzXaA58qW7Qlth6MURGIJwV61+qst/t6kcelRS6wYx1z9MVtDO8bTi4xqPXzKUJbXY/wtoGm/D/wppmhaHp9rpWiaLaxWNjZWyCOG0gjUJHEijoqqAAPam6nqQiiYk59hVWXWwcqoJLDgDrXyt+27/wU48Mfs4+IbPwH4X0+9+J/xp14eXongTQWWW9kc8CW7cZW1t1zlpJCOAcA1xKNXEz5Y3k2S+SlFzqOyRxP/BXP9qjxB4e8E6F8GvhqPtHxj+OM7eH/AA/CjfNplq3y3epyY5WKCIsQx43Y9DXZ6d8INB/Y6/Zv8GfCLwucaf4a02G0Z8ANP5Y+aV/9qSTc59ya5v8AY/8A2O9W/Zc1vxD8ePjprFh4u/aB8e2y2z/ZebHwzZD5k0rTweViQ43ycF2GenWbxN4guvE+s3N/eSb7i4bcx7D0A9gK+7yXAPDUdfie5/L3jVxpTxLjl+He35dW+19kt7epm3EhQ5ycn9PevhX/AILWSGX9mHxyOSEWxPX/AKbJX3JdXQHfr3z1r4Y/4LPy7/2WfiAemIbMj/v8lexJWbfk/wAj878IP+Spw78/1RU/YsJm+HNrIp27rKAf+OCvaGO23k3f3T/I141+w/8A8krscf8APjb/APota9h1JwlnKR/cP8q/gbM/+RjVv/M/zP8AerCu9Gmv7q/JHyppLeb8RLhR0W3HP/AzX1P/AME44hH/AMFC/gHj/oYNU+n/ACLWtV8paJcb/iJcHPW3x9P3hr6y/wCCcDK//BQT4DdQw1/VOp/6lvWa/rDg3/kT0F5fqfyV4tw5c4xC9PyR0vxiJHhBsnrPGRxjoazPCAB8PIT/AHm/nWp8YFx4RfkHEyfzrK8JygeHgRyAW/nX4/44v/hSpf4f1Z+geBKvklT/AK+P8kVdbbFu31P5V8L/ALL/AO174B/ZB/a++OM/jrWjpMWo39lLZqtu8z3JTzN6qFB5G4fnX3Nrr7bOT2r5q/4I6W+iJ+3v8ZvGWqeGfD3iLWbG/ttP099Wsku109ZDIXeIOCFkOxRuxnH1rr8AFJZtiZwV2qZ5X0pfqUeBpLH83s/aRvy7212PV7L/AIL3fAuxuBJFpfxL1CIHl4fDUmxx6ZLDrXxb+yF+0t4E8LJ8SvAM018PA9/q11quiXGq6e9s7210fnglU9HQ45BwRk1++cH7QmpABF03QFReAFsUAH4AYp8/x1u7oBZdD8MSj+IPpsZB/Sv6NxWHniIclSFle6s9Uf5sZDxfwVkSq/Ufarnte+uqejWmjP53/wDgmp4g074c/tL+P/CsWqW0+mrCZNLcyjbJEJCSFz/ssufoa+jPiR4b0X4jeG/Hngi9u4YLLx3ZmSB158i7jxhx78Kfwr9gz8QLN7r7RH4R8FRz/wDPVdHiD/8AfQGatR/FxoiCND8Oj/txWuGpkinV9qpNN+h6Ga+NmV4jE+3puadkrtdtmfjv+2B4h0Lw9+wJqvhOCa3jh0rRYbO3QuACYwo4H1BP415H+zt/wU5+HngH4R6bo+q6hrEV5aaXDYzf6MJAxULkghvUflX7z3PxZj1CLZc+G/CtyjcFJtOR1P1BBrPHiHw1IczfDT4azseu/wAO2zZ/8drxs44FwWa4RYTG8zSlzXTSd395934UfSfy3gn2/srzdZpy5otrTXo1qfilF/wVS+FAbjU9ZCnrmwJ/rWJ4S/4KJ/DTWP2vNA8SXWtyWOh6Tok1mtxdwMnlzSSBm45PKgc1+5K6n4TY/N8LPhfj28O23/xFW4tR8LQtvX4Z/DWM+q6Bbg/+gV5WWeFGSZdX+tUefmSaV2mtfkffcZ/TXy7iXKK2TY2PLTqqzcYSTt82z8Q/2x/+CiHwt1n4r/DrxN4U8RxaveaFcy22pm3icF7OVcOCSBnBwceoqaf/AIKU/C2/DeTrl0NwON9q64/Sv29bxfogHHw9+Hx+uiQY/wDQaYfGugk7ZPhn8N5FXkBtEgP/ALJWmeeGeWZtKnOs5KUFa6a1V766dDz/AAx+mFkvBOVrJ8EpTpJtrnjJtX6K1tD8GZv2xvh/+058bx4c8TeKpPD/AMONN8PzMZi5gGp6h8oRW7mNcng9cGvYf+Cfn7ROjy/Brxj8MrzVLTVNM0R5k0yYyApPYz7sLg9lbcPoRX7AjxxoUDfuvhp8N4CO6aJAMf8AjlW7X4uxWjfuPCHgqAHtHpca5/IV72U8JYbLcJDC4OPKo9dLt935n514o/SIyLjWvKtj6s73TilF2g0/sp7eZ+YvgnxXpc+h+H7Ce4tY9P0C3iWOJpFCjyxtTg+mBivjj/grx/wUWtvizf2nwj8N6gsXhuynSbxHfxMT9tmHKwAjqidT6tj0r+gv/hb6SH/kUvCB/wC4cn+FVp/G+k3xJufAPgG5HX95o0L5P4qa78Fk31eo6j1bPh8o8S+FcNmEMfiJznyfCuR2T7n8v+g/GDwhbWUEEeppEkKBEXym4AGPStu2+Ofg+3jXfq657Yhf/Cv6XpNZ8I6gp8/4U/DSfP8Af0O2O7846hI8BqePg98L1I7/ANg2v/xqvZ5U1rF/ej9ij9JvhxR0b/8AAZf5H8zurfH3wb/wlPha4XVi8Om6xDd3JW3fMcaZycY5PTgV9sfs0f8ABXz4QfBPxbrGqz61qr/b9KmsUEOnSF1ZypBwR04r9iotQ8ExZC/Cb4Z5HpoNsB/6Lq2njHwiqBB8K/h5gDgf2NbAf+i687Msqo42hLD1VJKSs7NI7sv+lTw9hnK2qla94S6H8+Xgz9pHwH8VP2uNNvINTii8N6KZ9ajN6PI8+7wqJw393czD3FfUPgr4/wDhu+j1bxNJrWlx3F2fLjaS6TdFAnTOT0J5r9b38aeF45MxfDL4exfTR4M/pHSt8U9EVWUfDzwEVPUHSYsf+g14MeEMPSpxpUuZJK3T+tT5/jb6RGR8T4l4jFVZRukrKMrWXRH85vxl/b6+HX7SX7TXh/TvHt5rH/Cn/B1yb2a00+DzpfEFyh+VGGQFhJ6nqVzjrkfot8Nv+C5f7PPi+GG2h1vXNHihQRolxocwSNQMKo8sMAAMAelfodL488Nby3/Cr/hqzH+I6HBn/wBAqZfjBa2Ue2x8FeC9OP8Aeg0uJcfgFFfXYCVPCUFh4U9F5n5fxhxNwVxBCmsRUqr2atFRVku7s1a77nhnwO/aB8J/tE+FZNY8Iao+r6fFL5EkjWs1uVfGcYkVSeO4yK7yBginPetDxb4tufF08UlyYsxghBHGI1QHqABxWMJ2yowVHTr1rphW5tWrH895pRwsMVJYFt0/suVr287Homi/FO01fwhd+GPGWj2Xi7wxqURt7uyv4UnWSI9VZXBV19jz7182X/8AwRg+HWm+Mb3xT+zJ8W/Gv7Pvii8fzZNO0+8afSpXznD2spwU9juHpXq6SEIM5FNkKzYDhTjkHuKzlRi3eJ9/wt4rZ1k0VRUvaQXR7r5/53POorn/AIKHfs4lY7zQvg7+0HpEAI+02cz6BqkoHQkZ8sn6LTrv/gp/+1B4Vj26t+wv8RZ5U+82l65FdRnjnBWMmvX9C+Iuv+GNosNYv4Y1/gaTev5Nmuhg/an8ZafGP9NtJgP+eluM/oRXlVMmoTd3TXy0P1/L/pB0ZR/2uEov/Cpfk1+R85J/wWX+OdkxF1+wh8dMA4JikL/+0KtQf8FmPjffALb/ALBvx6z/ANNGCD8/Jr6Gf9rnxhLGRu01WH8QgP8A8VTP+GpfGUyA/bLJfpb/AP16lZFhetP8T0JfSDy1bKT/AO3P/tjwVP8AgrX+0RdMPI/YR+MEa/8ATa+Cn9Iamh/4Ku/tIO3P7DXxOUf7Wokf+0DXusX7TvjA/wDL/aN9Lcf41MP2nPFv/P3af+A//wBeh5DhulP8SF9IXLn9mX/gP/2x4S//AAVc/aLA5/Yf+JWB1/4mTH/23qKT/grj8f7cnzP2IPikAOu26dv/AG2r3oftP+Lm/wCXuzXH/Tt/9eq2pftaeJdFKm81nSLMOMr56xxZHtuYVKyGm3aNNP7xR+kPld+VRm35Q/8AtjxKx/4LB/GWYkXP7FnxhTH3vLLnH524qaX/AIK+fFoAhf2K/je7D+EHH/tGvdtF/aS8S+INOa7g1nTbi1i+/NCEeNOMnLBsD8auj49eLSist1bSRld4byhtK4znOemOc0SyKjH4qX4s1f0gsuWns5/+Af8A2x4BF/wWE+JqMVuf2L/j1Bt7iHdn/wAhVFdf8Fm/GtsSr/shfH9W97IY/wDRdfQdp+0P4m1CFHjuNOmjcZWSOPerD1BDYNVtO/aU1jXbm7gsdT0i8n06byLtLdlka2kxnY4DHa2DnB5qP7Fw2/s/zK/4j9gekHp/d/4J88y/8FovGcfJ/ZC+PuP9mzyfy8uq91/wW68S2pxJ+yN+0Nn0XTGP8o6+mIfjp4jkuxD9osDMVLqm352UdSBnJFUbf9pzV7+9vLSz1HRrm8051S7gjkEklqzDIWRVbKEjkBsUf2Hhn/y7/Fh/xMBgrczg7f4X/mfOkP8AwW68S3BGz9kT9os57/2Q/wD8aqV/+C1PjRl3J+x9+0MyjON2mOP/AGia+hz+1J4qtHIH9mtj1if/AOKqOX9rrxbG+FTSgD0zC/P/AI9VLh/D78n4lf8AEwuUpXlf/wABf+Z83XH/AAW18eQ8j9jr4+Yz3sZufytzTf8Ah+D8QguE/Y3+PB+tlOB/6S19If8ADX/jDB/5BYb2gbH/AKFTW/bC8Yk/8w0/9sW/+KoWQYf/AJ9/iUvpCZR/e/8AAP8Agnzen/BcL4gh8Sfsd/HIDvi1nz+trT3/AOC5vi+FsSfsi/HpCD2s5M/rAK+jB+2D4yGf+QV+MDc/+PVG/wC1942bpJpS/wDbsf8A4qn/AGBQe0PxYl9IPKO0v/AP/tj55f8A4LveI7cMZP2Sf2g/l6lbDIP5ximR/wDBePxJdL+4/ZF/aHdgOh04Y+mQhr6G/wCGwvG0R/5hD+n+jMP/AGenn9szxkq8w6Pn/ri/P/j1CyDD/wAj+8F9IPJ+ql/4A/8A5I+ab/8A4Lf/ABY1GYx6T+xR8cronnMyvFn/AMlz/OlP/BS/9sf4pxLZeCf2JtZ0a7m4W78V649vbRc9WHlR5/76FfSk37ZXjAjhNHXPpC//AMVVO4/az8Z6iCv220t894oBkfmTVLIsIn/Dv6yZhW+kFltv3al8of5yPAU/Yn/bX/a8gP8Awuz47+G/gf4Nm5utB+HFoE1CWPujX0hLJkcZVj9K9g/Z++D/AMDP+Cbnhu90j4QeFYL7xDqJzqviC9na71DUZOpe4u3zJIc87VIX6VQ8S+NtW8XS+Zqmo3V6RyBI/wAo/wCAjisC7ugH6civTw+EhBcsIqK7Jf02fmfEvjbmGPi6WDjyL+aVm/ktl+Ju+MfiBqPjnVmvdTuGnmbgDokY/uqOwrAuroMv1qu95h84IA49zUUtyZBjBz2INdigktD8crYupWqOtWk5Serb3ZFdXGXIB4/LFfEP/BZKfzP2XPiAp6G3tSPwmSvtO+J8w4BHvng18T/8Fi2/4xd+IJ/6d7b/ANHJWVWNkz9O8I5r/WfD+v8AkV/2GLrf8LLFSVAXT7X/ANFivZdSkJsZsdkJ/SvDP2Gnz8KbEetjbD8o1r2u9lI06fIyNjZ5x2NfwNm8bZnWS/mf5n+9uBj/ALPSf92P5I+WPDbiXx/cMMH91zx/tmvrL/gnPKV/4KF/ABem7xHqg6/9SxrZ/pXyV4QZf+E2uD0/d5+vzmvrP/gnaM/8FDP2e+CCPE2q9euP+EX1yv6t4PVsooryf5n8m+L/APyOcQn5fkjpPi7LnwZMc9JUGPxrN8FSEeGlU44ZunpmrfxglC+CZSRndIgz+NZ/gkn/AIRiNieSzcfjX4944f8AIzpL+7+rP0XwGSeRVf8Ar5/7aiTVlVoXAAwRjANfK/8AwSnuPsP7U3xpUErnXrE/pNX1PqLAQnnHFfJv/BL24B/as+NB5x/bdhwR/wBd69D6OzX9r4pP/n2fLfS3j/xgFR/34/qfqHBdkpwT9AeDVqK7JJyQPcVhxyEEY7mrVrclm74r+oVqf4r1k27tm1G5HOSc/pTkYnBXP4VUtZslevqa8k+Of7eXhX4MfEm18AaJo+v/ABK+Jt7H5sfhbw0iS3FqhHD3UrER2y9D85zjnFZyaWsnZd3svVmmWZTi8fiPq2Cpuc97Lt3b2S82e2qxQL1z/KhbjrwRj9K8O/Z7/bYuPib8ZNQ+G/jnwBrXwt8f21l/alnpeo3cd3Fq9nnDTW88YCuUPDKORXs93MC/B6DoD1rpp01KKnBpxezTTT9GjmzrKMZl2IeFx0HCa1+T6prR/I0Yrnt2ryj9qv8Ab9+E/wCxhYwt8QfFdrpd7cp5lvpkCNc6hcL/AHlgQFgv+02B71w//BRz9tp/2Iv2ZbrxJp1pHqPi3WrpNF8N2TLvWa9lBwzL/EsagtjuQo711X7CH/BDL4Y/s3fDcfGz9qlbX4qfGLX4l1XVm8STLNpuiyyAMLdIpCIpJEyFLyZUEYRVAGePGVqOHXNWfyP1jwk8IZcT0nmWYTlHD83LFRV51JLe3ZLvvfY8k+Gn/BfD9mv4neJIdK/4SrWPD01w4SObWtKktbYknA3SDcqj3YgV9f6XrNtrulQXdlc297Z3kaywTwSLJFMh5DKykgg+oNct8bvhN+xh+1R4am0nxL8D/CsWnXKvbxa34dsbS2ntieNyT2hVgw64OR6givzQ8C/FDXf+CE37eEXwq8S+K7rxV+zb47UX3h7V7nLLp1vISEuV/wCebxSZinjUYP3wo4owOOweJXLB2l+DR9vx/wDR7hQwlTEZBKftaSblSqL3ml/K7J38mtT9Y44trk4NNC7XICksew71+d3xV/4Ln6z8YviQfh7+yv8ADDWviv4ouSYodTuLOU2uehkjtkxIyDrvlaNcc9K6vw5/wR//AOCjP7X1gdS+JPxu0X4TWt0Aw0qwu9kkSn+Hy7FNoI95ia66jhT0qySPzvhnwB4mzGjHE4zlw0XqvaN8z/7dV399j7utraZwMQyKB/s9adMrQD5lZfqMV8LP/wAGonxvnY3Mv7XGqvennd5OpY3fX7Vn9Kp61/wQn/4KAfs2WxvPhn+0jYeNRb/Mmn32q3EbTe2y8SSI/QuB71zxx2EvZzPsa/0aMcofuMxpyl2alFfefd+cHkYJ9DXi37TP/BSX4K/sfagmneO/HNhY61IocaVZxvfX6qeheKIMUB/29tfn7+0r/wAFZv2tP2Jvh94g8C/GT4TR+GPH9/YvbaJ4oS1a1iWQsFNwgUvb3BCbypiYANtJXAIr3P8A4Jp/sHfsxfC39m7Q/iJ8TtFsv2h/iX46gGrarqV3fm703TXlG426Ath5UziSSQFi+7GAAK1qujSpqq3zJ7Jfr2NODvo2ZnXxc1xDJwpx0iqbUnO/VPZL8T2H4Hf8Fh/2d/2h/FVvouhePoLDWLttlta61aS6a1wxOAqNKAhY9huya+jmfgggj2r5l+Lv/BMn9jD/AIKH+D9Q8P8AhbwVafBzxzsJ03WvD0ymGOb+ETQK5jkTPUbQ2OjA15L/AMEgf2kfHGheNPiL+zN8Wrp7vx78F7hoLO8lkMj31gknl7S55cITGyOeTHKuelZ4bF0MQ3CKtJdGYeKvgM+HcE81yyU3ThbnhUS5kntJNbrv23PvAzgrgfrUTXXBO5OeOOKp3N38v0PrVOa8Lc4bPtVyifz/AIaCa1NN7kc7iFPvURu1GMHmsxrghMlj0zgGmm4O4ncahQ0PShFIvSXWDnv060w3HOcA45Jqmbgc5IAPc0faz6fpmmoG3Ii/9oG7GDz2NBn2E55z3zVJZzxjt70/zOM846U7IzlCKLsc+Y2PfHao2nBJ6Ee4qqsjc8kDtUXnlfvZ9qaZyyhHdFwy/Ng8k/pQsu70wepqmZCxxkigSkP7+1U2ZeziaKS7D1H51Y+0buACM8e1ZIYnHcHBqZJiG4ODSbbB04tWuWXuvKY+vQV+bv8AwUvttA8R/wDBRjwpZeKPDniTxlo1xoFvHLo2h3LxXt5802BFt5znk47A1+ik8xOcHp+tfPH7Un7Cy/tDfGLw54+0Tx94h+HfjLw5bG1g1DS4I5iVyxU4Yjaw3MMjgg9K7cvqxp1bzdk1/Wx7fCeMoYDMfb158kXGST10bWl7a29Ecv8AH7wV4b+CP/BFb4lL4H8D+MvhVH4juo4JdM8QahNPfHfPDG0u5ySqOgxgYHWvnXwZ8XfippnwHX9j1DrI8XeJb6ybStSE7M8Xh+4gNzNEJc7tvygA54RnHGMV9oS/sleIfiJ+xf4n+FPxC+K3iXx3qXiO6FwPEWoWyedZIrRskSR7sbQUJ5PVzXrvgP4Q+E/Cvj7wj4tudGgv/GHg/wAOjwzaayw2zNakIGBA4ydhweSodgDgmvSVbDxg7e873ufRz43wFCM6VWSqPnlJNRfxJR5JapNq9009fI+XP+CWvx3tP2af+CWnjPWdbuZLi1+Gmr6tDFvcsW2MpjiGfWR8Af7VeE/8E9vjJY/st/H74b+MtS8e2Osf8NIy3UHi7SRdK7aJevMWs52XOV5YISezV9aa7/wTU8LT/s2+IvhjYeJtds9D8U+MD4s1CR4o3kZWlWRrJQMDyztA3HmnftO/8E0Phh8e/ATWGh+H9A8C68l3bXUGu6fpifaovJYHaCMYyAOfoaijXw9ONRON+e/y7BR4nyd163tJtxxE5czUdo20bv8A325aa3ig+MME2l/8FrPg63nyCKXw7cwBA5AO5Z88ZxzgfpXnH/BLYST/ALfP7S6BpCkl4Q6E53Ot3KAx98EivfvFv7M2neLf2vvh38YZtd1WPVvANm1i9kFV7fU4yjruY9UcFycjOa8S+Mn/AATAbxZ+0B4v8beC/jX41+GUfjK6a7u7PR7LMgZjuZfNEqZXdlgCOM96yVShKLh15UtuqZlhs2y2plzwNTEKm5QSu4vS0+a2ibenbufXuuwvb3TrnaASDWW0u7JHI7Vg/DHw7dfD74X6H4fvNe1bxTdaRaLbS6xqhBvNRK/8tJccbj06ngDk1qtNhCdxzivOlBxZ+bulB1XGEuZJuz2v52equWVcOewI7U3zAB1AxVbccnNG8+UQQBmsubWyOyNKPcs+aCew/maXzVYdcVS3huwzim/aCOOvHrg1V2NYdPqWJnCZPtSCTGOev51SnnLEcHPel8zeecgHnqaDdYeNtyeSYK3Vev1zTBdhGPUjsc81VlfKnjgVE90e3bt2qXHU1dCNtzR8/nr+FeaftAftZeCf2c59MtfE+pXJ1nXWKaXoumWUmoapqRHB8q3iBdh/tYA967yG6/epuIxnnJrnP+CG0Hh34gft6/tZ+JPEENpefE7w14gstF0s3Sh7jStBFvmIW4PKJJJuLFepC5NZ4rExw9F15K9unr38j7jw04IocSZtPDYqbjTpx5nbeWqSSfTfV9jyeL4o/GT9rf4qWnw3+EXw28W+D9alszqV9q/jXSn0yCxtchRJhwc5JAAGWJ7dam+M3wF/bQ/YK8KXHi/xFo/hT48eBtNU3GrweG3eHW9LgUZeWOJkHmqoySFBIA6Y5r79/bX/AGofEPw38f6R4f8AD8/2B/sovp7sxBzN8xAiGRjbxk/UVq+MP+Ci3gn4Gfsb3/xh+It/b6DpeiRSRXETH5r27UEJBbg/feVsBVHqfQ1+b4PxKp4vOqmU4ZWnTtdW0d97Pyuf2dHwJybL8gpV6mDjKlV05m26nrfRry9NT4u+CHxq8O/tIfCjSPGnhO8a90XWYt8TOuySJgcPE6/wurZBFfJv/BYxdv7KXxAk5AaK1Ue/75K9H/4JG+CtW0L9lK81/V7QaW3xD8Sah4ss9NU/Lp1rdSb4owB045x7159/wWhxF+yJ462/xJa5/wC/6V+j4iWh/MnA+VYfA8e/VcJLmpwnJRfkv8tjC/YaO74TadjqLG3B9/3a17XeZ+xTdf8AVt/I14j+w2Svwvs1z0src/8AkNa9q1ByLCfvmNv5V/A+bf8AI0rf43+Z/utgL/VaX+GP5I+XPCA/4q65JH8PHt8xr63/AOCdEJb/AIKFfAAkH5PEWqNz/wBizrQ/rXyT4PH/ABWNwP8Apmef+BGvrv8A4Jxru/4KA/AQjPHiHUyfp/wjWs1/VnCOuVUW+36n8j+MGmdYi/aP5I1/jcgt/AUh4/18f4/MKyPBj/8AFLxYx95vyzWt8e+PAUmO1xEc/wDAqwfAspbwwmeW3N3z3r8h8blfMKT/ALv6s/RvAVf8IlVf9PH+SLWoH9y2ADkHpXx//wAEzb4J+1l8Z4+R/wATbT3POMZeZa+wLvb5ZyBnrxXxp/wTd/d/td/Gtx0Op6dj2/fTV2fR2/5HGKv/AM+z5n6XX/Jvatv54n6iW9yOp/WrEVxsdfnx689KyUuAHXOPw7VNHdh5Qu8fPyWPb3r+o4q+h/i1VT7HjX/BRj9r7Uv2XvgzZWHhOI33xK8fXQ0XwtbRrvkSZ8K1wF77Nw2543MM8Ka2v2Bf2Q7D9iv4ROLiUav8QfE5F54n12ZjLcXt2/LRiRst5aEnHqcseTXgX7Kt237Z/wC3J42+Nepq9x4V+H8r+FPBETjMfmJn7RdqPXk4PrJ7V9mxaj9pukVs7YxvP1PA/rX5dxzmznUeApv3Y/F5vt8j+muFsihk2Uww1v3tRKVR9bvaPpFdO58xf8FK/ET+AP2uP2W/Hlu/lTWXiuXQ7hx1ktblVVkPscnivsi9kVLhlHOGI/Kvhb/gs7fC18KfBC6Xh4PiBauDjnjbX2/cz77mRh/ePFfZ8Cv/AIQ6fZNr8T808ZMPBfUayWrhNfJS0/M+CP8AguNqMXhvxt+zHrepHHh3S/Hyy6gW/wBWoV7Z8t/2zST8jX3z/wAFtYb/AMZ+IPh7p4eSbwvNb3V4ApJguLnKBWOOGKxklc/3ia8S/b//AGRNP/bi/Zl1fwLc3EWn6m0iX+jX8i7ksr2POwvjny2DMj452uT1Ar5j/Z0/4LLzfs6/DaD9nH9s3wn4niuvB6pa6J4mtYPtFwLaMbYi3IMyquAk8RbcmAykgmufjTJ8TjcJfDau2vydz+mvof8AHmWYOjhaNdp1cJOd4O13Gd7Tjfdxb/Arf8JvcfsueMl1aCSaTw/Oyrq9kDhXiPBlQHgSJ1HqAR3r2n9sL9ijw5+3l4G8EaJ4m1S60zSvD+tw6m97ZxLJd/YXGLmGAN8oaVNhUt8oZQSDjB8+8I+J/gt+2Z48vR4B8U6v4u8P+HRFcahFd6RLZJukY+VC7SAb87GLKB0Azwa+ldO1DcVUEAAbQM4AA/QDFfOcM4DGYTD+zxStJPTukf1n4z59keb5lh8bk2tVR/eStZN9Fbulv8jovhrP4c/Zg+Gy+DPg34W0z4Z+GlQLO2m/NquqEDHmXd4R5srnvyAM4HFS+CPi94r8A6yL3SPEmsWlwH3MGunljl74dHJVh9RXyNf/APBQjX/jP8XdZ8Efs7/B/wAVfHnWPDf/ACFr/S5Ps+l2ZyVx520hhuBUMSoYqdu7rXJfDv8A4K6WGl/GK6+H/wAZvAGu/BrxdZTi2mj1JmeC3kPRZQ6JJECCCGIZSDnOOa+vhga0vekrt66vU/EZRlUk1uz9y/2U/wBqK2+PmgyWt6kNn4l05A11AhwlwnTzowecZ6r/AAkjsRXrVflh8K/i1efDjx3pHibSJFleykWXCtlbmFh8yZHBV1J5+hr9QPC3iS18Y+GtP1axfzLLUrdLmFvVWAIz7814mPoODTWx59Wnyao4D9sHwB4T+I/7OXiqx8a+GdD8W6GlhJI2n6raLcQu+0hThuVbJGGUgjsRX86v7bP/AATz8Y/sWtqfj/4H3et3vw8kfz/EHg77TI72UP8AE0fOZYcZB/5aIOpYcj+in9snUPsH7O+vIOGuzBbL/wADmQfyzX41eIv+CkOrfGD44618Nf2dvhN4k+O3iLQUY6rdafILfTLUBtjHzCCCu75dzFVY5Clq68rp1p058rfLs9dD2Mox1bCyVSk9ndeTXX+vmeX/APBNf4s+Hvi38U/BOueCttq76lDBeWkSiOW2yfnjkA6jGSD0OM11/wAFtVt/iz/wcZfG3xHoTCfTtE8PtZalPFgo8yxWkBBI4yZVYfVDX56/GD40/Ez/AIJ+ftseIvENr4Bn+DXj1YXe+8M3cXmQQm4jO2eJfusPm3qRldw44yK/VH/gjL+yHZfs9fsvJ43udctvFXi/4wJD4i1XVoWMiCNwXjt1c8ttLuXPGZGbsBU8I8Myy7FV6yqc1N6xW7V99Tg+lb4q4bH8K01iIJYmpD2TstJa35vLTo9n5H1lcsA3HGapvJgk5+pqxeS5bis+W555A9K+wqR1P8wsPsSyYlc4O36Dn6VG8Y4AOfeoWuPLPAxnkYNRPd7m6e3B6VCSsepTj1LBkx05CnNNEuzHJP0PJqLz/MYcnOa+Zf2t/wBuyPwGL/RvCF1aJcWSsdR1qbBgstvURZ4Zh3Y8A9MmnGMpOyPQy/A4jGVlRw6u2fQXxE+L3h34RaX9s8Ratb6dE/McRJeebHUJGPmb8sV86fEv/gqrZaG0n/CO+HIVt16Xut3Xkp9fLU/zavjP4OW/xt/4KI+Pr23+D+hTavambytQ8ceI5GWxg9fL3/ex2Az9BX23+zN/wbZ/D6bV49S+Pnj/AMSfE/VyBI+mWNw2n6bEeuPlPmEfQrXrU8sjGHtK3a/X8F19dvM/ozhTwErVqaxGYuyff/L/ADPAvE3/AAWs1WwuXjfxX4BtCDykFp5pX2zuNZB/4Lb3q43eNfCS8YydM3V+rukf8Ew/2Jfg/psFvdfB/wACWisNqNdWcl1K2PV2LN+dWG/ZA/YVib5vhj8PMr2GiuQP/HaqFOlKN6dCo/NQuv8A0o/RF4I5HFWlSk33SR+Srf8ABb278znx54VHPbSTj+VWYf8Agt3PJ18feEB9dJNfq/P+yr+wm0O1/hj8OmQcf8gFyf8A0GqX/DI37BU4YN8Kvh2Q3poMg/8AZaf1efTC1P8AwX/wRf8AEFMif/LmX3I/LAf8FtL0fd8d+CWB9dJI/rT0/wCC1l4x+bx34KU+g0zP9a/UVv2JP2AJSc/Cb4eHP/UHlx/KnJ+xH/wT+g/5pP8ADjjn5tFkYf8AoNQ6NVf8wtT/AMAf+YLwTyFf8uZfcj8u2/4LUXMnH/CdeC29v7P2/wBaWH/gtDKz4fxd4HcdmNuw/ka/UpP2M/2Akzj4T/DLB650Bj/7JUUn7Fn/AAT+nBB+Evw2Ueo0CRc/ktCpVl/zC1P/AAB/5kS8EeH5b0Jfcj8wz/wWjlVPl8ZeCk90tif5mkm/4LOTTBm/4T7wogPYWg/rX6cH9h3/AIJ8nOfhT8OT9NFm/wAKib9hz/gnyHB/4VP8PwPbRp60iq+ywlT/AMFv/MyfgVw5e/sZf+Ao/MaP/gs1IoAPxC8JfKf4rYUSf8Fo7uEkR+PfBbA92gr9PG/Ye/4J94GPhP8ADwen/Eml/wAKYP2Hv+CfsY4+E/w//wDBLMf6U+Su98LU/wDAH/mWvAzh7/n1L/wFH5kr/wAFqZ/MBbxv4LfPUC1wD+VOX/gs7DO7GXxn4SDYxkQkAV+ntr+xV/wT/VePhV8OQP8Aa0KT/wCJp037Fn/BP6PLH4V/DYk+mhSf/E0uSr/0C1P/AAB/5kS8C+Hno6U//AUfl+//AAWMhZML8RfDMeR0EAOPzFQL/wAFjViYbfiN4bbHdrVT/wCy1+nc/wCxv/wT6U4Pwm+HzZ6bNAl/+JqGT9jv/gnw2M/CvwKnHbQZh/7LTWHxEt8LV/8ABb/zKh4F8PR/5dT/APAUfmNef8Fn5IwQPiH4SYj108En9Kjj/wCC1E0cfPj/AMIe3/Eu6V+n8P7HP/BPtJAF+GPgEE/3tBk4/NK0F/Y4/YFKAn4Z/Dbb/taGf/iKl4Wot8LU/wDBb/zN14JZAtqUv/AUflY3/BaOeRsr4/8AChPdRpwA/lSt/wAFo7h1wPHnhHd/14iv1NP7HH7AEi5/4Vd8OCPUaA//AMRTP+GNP+Cf6HP/AAqv4eZ9tAf/AOIoWGqf9AtT/wAFv/MT8Eshf/LqX3I/KeX/AILLao8h2ePvCg9Mach/nSx/8Fg9bu3XHxA8MA9AP7PiAP6V+sFp+yN+wJwkfwu+HXPY+HG/rHVfV/2Kf2BdZhMbfDH4eRqepXQCh/MJR9XrPRYap/4Lf+Y14LZCtFSkvkj82PBn/BVXxVfuijWPA2uof4CixufxRwR+VeyeAP8Ago/oOuzpbeJtLuNBlkwPtVuxuLYH3GAwH519AfEP/ghb+w5+0Bp7QeH9F0zw9qLf6uXS9UmspkbthSdv4bTXx1+1N/wbw/FH9mLTLrW/gh8Qp/GFlb5k/wCEZ8TFfMuE67YbgEKTjoCF+tTGhBy5JRal2aaf3P8ARnh5t4B4LE039SdpdE/dfyex9heHPE2neMdIh1DSb+11GzkGVmgkDqfy6fjXivxT8I6x+zL+1Jon7R/w6jvE8RWCx6Z4u0y3J8vxHpRwrBk/ilQYIP8Asj0r4Q/Z4/a58QfDX4j3WgT22pfD/wAeabJ5V9oGpKViumHXarY3Z9OvcZHNfor+z7+0VZ/Hrws4khjsdbtlAu7PdkEf89E9VP6d65MZl3tKcqb+F6Puj8ToZdm/AudxxnK7wesXtKPVPyfddT6i/aM/bB+Des/AtfGfji+s/wCwLCNLvzSzJdQgkZVQuHzg8r7V2f7SVn8JPjj+wf4p0/WpfDGqfC3W/Dc7pMJY3s1iMLGKaN+iujbWVgchgO9fJOq+CNJ1GOWK50yxuYpgVkSWFXRwRzweOa8L1v8A4JefB3VdaW5bR9etdLM4uJdBt9eu49FncHPzWgfZtJ6qMA+lfn0OBKEJ+3hU5al9ZWV2lsrrXQ/dML9IjL61BUcZSnGMdVFPmV+ttrXOj/4JVeK9Z139g7wMdd3ma0hlsrSd1w11aRSskE3/AAJAD9MGvKf+Cz1z5n7JnjhOwitTj/tulfWumiHSbS3s7WKO1tbZFhghhUJHEgGFVVHAAGAAK+PP+Cxlx5/7L3jpSScQ2gznv5yV9biUrJLY/IfD3FRxnGMcZTjyqcpSt2u7lP8AYjjx8OLMZ/5cLc/+QxXtN/8A8eE/B/1bfyrxj9iv5fhtZKev2K3B/wC/Yr2LUZsabPgDmNsfka/gfNv+RpW/xv8AM/3UwMWsLSX92P5I+X/BkxPjGfnkx5x65bFfYn/BNck/t/8AwODYwNb1Mge//CO6vXxx4LyfHNwvrB/7PX2L/wAE2Fz/AMFAfgWfTXNT/wDUc1iv6u4Qv/ZNJf1ufyN4xNPO8QvKP5I1vjx8vw+nJ7TRf+hCub8DYbwvGexZh+tdf8ebUSfDi6PQiWI8f7wrkfAwaPwrEOACznkc9a/JPG5f7bSb/l/Vn6F4By/4R63/AF8/RFvUcJasR1x+FfG//BPGNrT9qX448MPK1PTzjOMfPMa+wdWuwtrJzn5T2wK+Lv2bfix4Q+BP7UHxvk8WeItM8Ox6hqOnm0a+m8v7RtSRm2+uMjP1q/o/ScM3xHnD9TxfpW4erX4FnSpRcm6kdErvqfpm8+ASDn6dK8X/AOCgfx0uPgH+x/4y12wfbq93ajStN28E3NyfJUj3AYn8K73wR8SNG+JXhq31fQNV0/WtLuB8lzZzCWMnHTI6H2NfN/8AwVlkfUPhN8N9MSB75tS8dWR+yoMvciJWk2D3OMfjX9W8jjFyl0Tf4H+P/C+WqvxDhsBiYte+rp6fDq07+h7L+yF8JYv2ev2d/CXhSEYk0+wjku27y3Mg3yufUlmP5V6faayu6dt33ZAg9Rgf4k15z8M/jX4f+JelC80zUInKrme2l/d3NqR1SSNsMpHTGK63wvbT3WhW8rId04Mzf8DJb+tfgOZqdSc5zWrZ/RmIc6lSUpbtnzF/wV/1QazoPwVsFVmkk8c28mAc8Boxx+dfds2oK00u3OQ5xnvXwN+3TfRfEL9tX4BfD62dLi+sNSfxBqMKMGNtCroULY6Z8s9a+17PUs7iWydx79a/X+DKbo5PThLRu7+9n4h424mMHgMNs1CTfzl/wDcM4Y5718w/8Fh/iF4b+GP7CnifVvEOgeH/ABDqNxs0rQk1Swjuvs13cEjzY94ypjQO/wApHKivo1rgvEGGOOtfnV/wcBeJpdf0v4L+Cd7GLWtcnupFBxuI8mBc/wDf16+sovW58H4VZVLMuMMBhoycY83M7NrSCcmtO9rHef8ABNn4DW37PX7K/h618vZq/iKJNa1SQj5nllQFEPske1frn1qL/gqp8etR+CH7FOvT6TNJbal4kni0GKeNtrwJMGMrA9iY0dQe26vXvDt5HbWUUEYxFAgijA6KFG0D8gPyrxX/AIKlfBy++On7Fmu22jQSXeqaBcw63DBGCzzrDuEqqOpby3ZgOp218o5c+Ju+5/pU17+p45/wb8f8F2fCf/BKXw14w8E+P/B+sax4T8WakmsR6poSRSX9jcLCIjHJHIyCWIhEIw4KHdwd3HgH/BZv/go3p/8AwVE/bbvviTo3hqXwxoFrpdvoemW90UN9cwQs7efclCV8xmkbCgkKoUZOCa+SYX3oCK+l/wBgP/glL8bP+Ck/iIwfDXwpJNoVtKIr7xJqTG00exPcNOQfMcf3Iwzewr1+WjSm8RJ2Z108LRpz9u3b8j71/wCCJ3xp1T4qfsq3ul6rPLdS+C9S/s23nkOT9maNZI0J/wBnLKPYCv1z/Zu/4KE/B34Kfs76ZZePvin4F8LXmlTzWgt9R1mCKfyw5ZT5ZbdjDYBx2xXx7+x9/wAGm3hL4XeEPsfxT+L3jrxSlzJ9putE8MXLaHpEkuAMuRuml4GMkpx2FfY/wt/4IU/smfCCzii034I+EL+SPGbjWFl1SaQjuzTu+TXzGNxeHqyd3p5HnYirgpzbk5fJL9T5+/4K4/8ABaP4A6t+wd4+s/h18YPB3iPxqbMjTLDT7tpJpZWBQFcLjKlg3X+Gvx//AOCBP/BZ3Rv+CTHxM8ZweMPC+o+IvBvj6G1F7PpPlnUdPmtzJ5bosjKsiESuGUspzggnkH+lGP8A4J1/s/xWBtv+FJ/CjyCMFP8AhFrIg/8AkOuD8bf8EUv2S/iDBNHqX7P/AMMwJ/vvZ6UtlJ+DwFGH4EUUMywlOg6CvZu5msThYwcIRlZ97fofzOf8Fuv+ClGj/wDBUj9uZ/iH4Z8O6j4c8N6dpNroenx6iEF7dRwvI5mmCFlUs0rAKGbCgc5zX3j/AMG4/wAftQ8c/s2eNfh3qUrzp8PNUiudMZjkx2l4HcxfRZY3IH/TQ19bftL/APBof+zj8VLG4n+HmreMvhZq7FniEN4dW04HsGhuD5mM/wB2UV8Qp+xB+01/wbs+MPE/jG68IaN8YPg34jEC67q2gNIstpHCW8uV1IMlqy+Y2SyvCcgFxwa97J8ww0v3UXb1Pz7xT4clxDwxVwGAip104ygm7arezfW10fpHqE+5uBWcz4bnpk4964X9mr9qvwb+2H8KrXxj4KvXutOnbybi2uFCXWnTgZaGZATtYdQQSGGCCRXaye/SvVqwadmf58Sw+IweIlhcVFxnB2kno01umFxOFA9enBqnNdYdgM9eOKS7nCjHOc8Vk614gi0Swuby5fZb2kTTStnG1VGTWGiPXpu6SieV/tlftIf8Kp8KNoum3K2+ralAzT3G7B0+36F89mbkD0GTX58fAv4P6r/wUo+KzWym90v4LeE7oDVryMmOTxFOpyIEPp6+gOTyRU37bnxI1z4+/E3TPBekTuPEHxJ1DynYHmyswcEn0UIOfZTX3d8GPCugfA34N6R4R8Mwx2umaHai3iIADTP/ABzP6u7ZYn39q/RODOG1i5PE1FeMfxfb/M/snwX8PqGGwkM0xkbyeqv+f+R9e/sW/snajrXgiztPD1rB4O8C2CC2tltoRGHVeCsK9zxy7d89a6L4633gT4MXEum+HtS1PU/EynZcyNemWK09d3Yv/sjp3rifiD/wUkuLn4FeHPB/gqwn0O8j0yK01a+YBTbsqBWjgA/vYz5nYNwM814FYa28aZJ3HqWY5JJ7k19BlfDmZ47FSxmZfuqabUaa0ul1k+35+h/QOHq1VN1art2S/U9G1rxzPrErNNPJK56sxzWS+rK+fmHP61ysuvZydwI7881WbX9pGOh6d6++o5aoRtFWOupjHLVM6ma/AJ54+uajS7VVznAFcpJ4qw33sN0602HX/PDbXBH1rqWCa3MFVfU61dWXzAOQPzxTpdYXBAwfx5NchLrJDfewOnPBNH9s478n0Oaf1G+pi6sm9Drf7ZTbxgc/jTTqwz1Hv71yUusmOPIOB6+lVbjxOQvB5GeRVLL29hxqyOzOrqrdePehtajU/KTg8+lcL/wkZ3dc9z6GorjxGyoTu57E1sstaNfaSR3i62h/iJ9jxQ2sK+fm59R1rgrXXXY8sCfrV+LViwGWJOMkVLwKTE6rb0Z1Z1pd3LH3xzSnWV4+Yfga5J9RYgkfNmov7Yf+8OPXvVfUkDqs67+01ZTh8j8jULamoGVJB79q5mLVCW5OB9cUkmpZO7LEAde1OOESM1Wk2dKdXXdjOB79KUa0H6k++TyK4yTW23EHjHrxSTa44i44I981r9R2NFVl0O1/t9UxyD6djSf22u49Dnp6VxNvq5lbhgfXB5q02peWvLZ+tTPBqOjH7RnaQ64nGCB6c8mp115Yx3/OuAbXfJbrj39KVfFBdiCc46kmspYDrYlzeyO+PiASHBxkep5rp/B37RniTwHH9nhvDqGltw1jeMXiI77T95D9OPavIBrmVBLYzyPWpV1YAgktg965MRk+HxEOSvFSXn+nYtV7dSX9v/8AYm+Hf/BQb4YR6mjDQfG1hxYapHgX2mSjlVcrgyw5H1HUYNfnZ8Bvjf4y+B/xmvPAPjR30n4i+D5cQ3Kn91rEI+64I+8GXBPqDngg1+iaeIWtLhJY32SxnKsODXy5/wAFZvgD/wALa+E1l8WPCcaQeOPh3i5mMIw13aKcujeuzJYf7JcV8HxNwjKnh3isPduO/nHs/NdH8j5njDhzCZ/gXSrJe0SfK+vp6PY+vvhT8XLP4w+A7bV7YCKb/V3UGeYJR94fTuPY1tvcB2Hf3r4l/wCCdn7RFv4ou9HureUppviu3CSRk/6m6XPyn3DBl/Kvs+a5MT4GAtfi+J0leOzP4JzrI55fjZ0JLZv5eXyJXuwr9ckfrXx5/wAFc5jL+zF45AYn91a575/fJX1lNdDcxNfI3/BWFTL+zD45KnkQWxP/AH+jrgqvVX7n3PhZR5eIaLL/AOxk4/4VrZt3+xwf+gCvXtRUfZJh6ofx4rxr9ii4M3wws8ncwtoM+n3BXr17KTBIDjO0/wAq/gjOH/wp1f8AG/zP938FH/ZqT/ux/JHzH4PBTx5c+otxx0/jNfZX/BM9BJ+318ET02azqR5/7F7Vh/WvjDwi/wDxcO6wT/x7DHOM/Oa+zf8AgmeS37ffwRPT/idalx/3L2rV/WPCStlNH0/U/jbxdd87xL9PyR0vx2fy/h1eH0kj/wDQhXG+DmL+F4jweWHpnmup/aHl8r4Y3rdPmj/9CFcV8OrhpfBce7na7j9c1+SeN8b42i/7v6s/R/AL/kTV3/08/REHiSfydOmfONilz7ADNfKv/BNf4XeH/jn+078XfG3jHRNM8QzaZcx6bp9tqNus8FsH3FmCMCpbaoGT6mvqjxnBu8N32ByYHA/75NfMH/BKPxAdM8VfGCF2wTrdvLye2xx/SvG8Lrxp4ydJ2korVb2b1MPpFYqvS4ai6LafOtvRnQ/tV/AzX/8AgmZ4uX4yfBm3uJ/hdqUi/wDCX+EVLSQaTuIH2iFTnEWe/WM4H3TxR/aS/ao8P/tD6r+z7quh3HnWT+LYr2QHgoSm0A+4YkH6V9v+Hdetdd0a70u+hivLS6haOa2mAeK4hcFXRlPBByQR6Gvyy8W/CSP9ir9vbT/h/Puk8B6prEPiHwu0/wAywI74MQY90Pykf7IPev6P4V4gq4nDzwOJd5KLs+6t+Z/B8sgwWbY2nmslbE0U3dac8XFrXzV99z77+KWheG/FfhLU7u70/T5754jCl1sCTqzEKDvXBPX1rzjxF8CfBWnWhjN7rmVG0KurXHH0G+rfxu1A+GINFtVkMb69rMUKRg4yq5kY/ktecftPftD6f8B/CaXIthq/ibVpBa6PpUeWlvZmOBwOdgJyT+FeRHB1KjjCEmrnz9PD4xyp0cO3eV9n/VkVfhjL8Lf2IfiHr/xH8Tag+ntfoLa0M8j3d5c4H3IVJLsT+Q9q9Z8M/tX/ALQHxztF1D4ZfAN7HQ5vmtL7xhqiWEt6vZkgJVgD1GfzrkP2Pf2SV8P67bfEr4sC18UfEq8XfbQ3CCSy8NxnlYoIj8ocd29enrX1MvxAmOsJKJyW3dQe1b4vjKOBth8FBVHHRyle3yX6mOacH5PiMX9bzOn9ZqJJXk3yJLokrX9WeffsU/tx6j8f/Eni3wJ428Or4O+JngabZqmlhiY5Iy20Sx5JOAcAjJGGUg4NfL3/AAW+uTJ+1H+zwXI+zpdSFieAD9st8/pitn9k/wARt8XP+Csfxq8Z2khNlZ2S6c0u75HI8uMZPT/lkx/CvP8A/guP8XvCOrWnw6k0XxRoWqeLfCmrSyy2VpdrcTQRMFbLbCQvzxrwTnmv0fB4qVahGvJcrkk7Lva7PkeHMkweU+KeHhl9JxpON5JJuMHOD0v0V7b9z6u0jUmDnDMcE966bTtdKBfmww71gQaHI3g3w34qtkaXw94v0q21bT7tRmNlmiVyhI6MpJHPpWV428ZyeEPCV7eW0RuL/asFjCOTcXMjCOFB/vOyivBSUpe6f2PiKEo1XTtrexJ+yL/wRE+E/wDwUC/a91XxbqHh660r4f8Agq9B8RiyuWhtPFGqMBJ9hjQDEaIpV53QjJdUABLEfuJ4B8F6H8MPB2neHvDek6boOgaPCttZafp9stvbWsajAVEUAAV4p+x38H7L9lX9nXwt4Fsyhn0i0EmpXGPmvr+U+ZdTse5aZnPPbA7V67aeISwwO9fG5hmc61WVnp09DjxWHk5WvojwL/gs9+2x4n/YI/4J3eOfiP4KsorzxTYG1sNPlmh82DTpLmZYftUidGWMMSAeC20HjNfj9/wQh/4LZftJ/FP/AIKQeEPh/wCOvGmt/E7wx8Q55rS+s9Qjjd9KIieUXcDIgMaxlPmX7hUngEA1++fjXw9pPxP8Ial4f8RaXp2t6FrFu1pfaffQLNb3cTDDI6NkMpHY15H+zF/wTk+BP7GfivUNd+GHw08N+ENb1OIwT39ssktx5ROTGjysxjQkDKoQDgZ6V1ZfmmFo4adOtT5pPqOjTpwpShON2+p9HvfqnemLeq3cVgS6p5YyxPPpSLrAPJLH614XNc4lhXbQ5D9ub4x+JPgN+xl8U/G3g3T01TxX4U8L3+qaVbNEZle4igZ0JQcuFI3Fe4XHevwd/wCCF/8AwWg/aO+Mv/BSHwv4A8feMdZ+LHhP4pSz6fq2l6rHHNDYIYZJDcwqFAiRApDIPkZGIIzgj+hM6wJEKnaQwIKlchh3BHpXkPwf/Yr+DH7NfxB1Txb4A+GHgjwd4l1pWW91LS9NS3nmV23OoI+4rNyVTAPpXtYLNKOGw84TheT2fY6cPRjGMoSjds/IL/gqD+zC3/BB79v3w38YfhxDc23wE+Ld21j4h0GH/j20qfO6WKNegVQTPD3G2WMfKBX2lDqMGp2UF3azJcWt1Gs0EicrLGwDKw9iCD+Nd/8A8F4fhHZftJ/8Ep/i7pFzEtxeaBpR8Sae3VobiyPnZH1jEifRzXxL/wAEhfi/P8Yf+Cd/gK7vZnnvtBSfQJ3Y5ZvsshWMk9/3Rj/Kvs+Hc1eOwj9p8UXZ/p+B/Mn0iODqap4fP6cbTv7ObX2tLxb81s31Poy5lUFiGIzwAK8m/a+8U/8ACO/A/UI1fEuqTxWinodpO5v0Fem302EyO/618+ft+ag1p8OLBy2VtvtN2wPby4sivXirzR/OnD+GVXMqFKWzkj4t/YqC/E/9tL4geMpE82z8KWa6JpxJyFdyQ7L6HCv+DV9qWeposIVW5PUZ718Wf8ErFWL4OaxqjnM2uaxNcOx6sBgD+Zr6ui1TauT0H5mv6V4OwypZTSsviu/v2/A/0uyrCxw2Dp0IaKMUj0z4O+ANd+N/xO0vwr4diSbU9Sc/NIcRW0a8vNIeyKOTjk8AckV+k3ws/wCCa3w18F6DBFrOmP4t1TYPPu76V1Rm77IkYKi56Dk+9fD/APwSc+O/h34afte/2V4glgtJvGultpOkXczBUW8Eiyi3LHo0qqQvq0YXqwr7D/4Kaf8ABOu5/wCChHgTQ9OtvHmveD5/Dk0tzDbW08kdjfyOqgGcRMrkrg7Tkgbm+U5r8e8UeI8yjnMMojWeHo2T5lfW/V21aW1kceJq81ZU5y5Y9yl+0z/wTZ8HXvw91XVfBUDeGNc0u1ku4ohcM9ldbFLFHVydmQCAwIx3GK+Uv+CYfwk0P9sX4qa8+us954c8NWENybeKYoL6WZiFVmU52AKxOCMkjnFeIftR/A/9rT9mv4XH4Z+PviH4mu/grK3kh7OcXR1OI8C0l1Aj7QkBxzE7DcPlyVOK+mv+DfeK3XWPiqLZY0itodMiVVGAoJuDgDsOK9zCrOcu4Ex+PrYtVdYqnOMuZpOST13V09nqi6tOdOi2p83ZrseSf8FHvhRafsnftNXOhaA848P61psGsWVvJKZGsi7yRyRbjyVDR7lySQGxniuY/Yn8Mn9ov9rDwZ4Q1KWWLSL+eW4vlhcq80MELSsm4cjdtCkjnBOK9H/4LdXwk/bEsYWdf3Phq0CjPKgzTn+dcx/wSJgFx+374Rk/556fqLZ44/0Vhj9a/Q8uzHEPw5/tKpK9b2EnzdbpNJ3726/MqM5PDc19kel/8FfPgNoP7KWteEfEfhCBtL03xU1xY3OmKxaCGeFBIkseSSu5SysvTKgjHOfpv9mj/gnZ8PNU+BXhPUfEmm3Os65q+mW9/eXH22aJN8sYk2IqsAFXdgdzjJ614n/wcM3ixeBfhJAx5l1nUGx7C1AP/oQr6w1j4c6x8VP+CfkvhHQ72PTdd8ReAP7Ksbt5GjW2uJrDy0csmWUBmByvI7V+F5txLmi4Ryup9YlF1J1IuSbu0mkrvdpXZzzlN4em+a129TI8Sf8ABMv4Va3p8kVvperaVKwwtxa6nKXQ+uJCyn6EV+e37bv7OHiH9jj4gW9nfO2q+G9YDvpWrxx7BNt+9DKg4SVQQeOGHI7gem/8Env+CMXxm/Yb/aXtfG/jP4nafe6Jb2E9tcaRpmrahdrqjyJtXzVmCxhUb5wcE5Axis7/AIL2/tpeHdb8U+Hvgd4d1KC48Z6DOniXxCVTeuj27wyJbwse0sxk37eoRAT95c/QcI51j8FxTQyjC4/69Rqpcz96y0b05tU426aM3w05U8QqUZ86Z0f7DH/BOa++Oug2XjHx3JeaT4VvEE2n6dA/lXmqIekrt1iiPYD5mHPyjBP15N/wTq+DM+lrbHwLZKi4/eLc3AlPuXD7qp/8E9v2p/CH7WP7Mmiz+Fb5Yr/w1ZwaNrWltMHvNFuo4gu2QdcMBvR8YdSCO4HwPe/8EUP2iP2SPjb4j+JHwy+OHirx9/a88t3LY3epy2WpMXcu2Ud2t5iM4A+TPYdq+MzjiHPM0zutQxmLeF5G1GLbjFNO1tOvm9+5mqs69RqdTka9f6+83P8Agpd+y5o37FF9o2taJez/APCN+JJZLeG1u5d8tlOi7iiueWQryM8jByTW9+wN+wfq37S+hWvjDxc13oPgq6G+xgj/AHd7rC/31P8AyzhP97G5u2BzXz/4h8O/Ev8A4KC/tifD/SfjJqeox2eiahHpdloDwfZRAzEfaJpUwC0rKuMnt061+lX/AAUh/axH/BP/APY31LxRoWm29xq0b22geHLJk/0dLqX5It6j/lnGis5UdRHjjOa++4m4mz7KspwOQUJqpjcRvNO75W7QSfVvrLpbua13Uhy0YzvJ9Ub8n/BOD4N3OlfZl8HrD8u0XEV9crPnHXf5nJ+tfK37Y/8AwTD1P4Q+DNX8WeB9cOqaNo1vJe3mnanhbu3hRSztHKAFkCqCcMAeOpr8oviF8Zfj9qfxvs/i54c+N3jq28f6dOt2PtuqTSaZdBTkwtag+SsLDKmIJswcYHWvd/iL/wAFtf2mP2uvCereDvFOn/DzwF4W1GyNtqX/AAjtvNLe6mjDa0YlmkYRIe+1QxBwG6162VcC+IOTZrQpqo6sJtc0nLmgl9q/Nqmu6t5GUaeJpz0ldH3L/wAEqf2SfCf7T/wTm+IfjG3uNXgvNRnsdNsRO8MCxwkK0r7CCzM+QBnAC9yePrZ/+CfHwduLbyz4GsVXHVLm4VvzEma8x/4IraKnh7/gnd4LRd2Lm5v7gbuuGupP6CvzE/bD1DxjaftS+N08Z+IfGY1pfEV3HYxy3l5GWg89hbi1RSAU2FAoiBzxjNfGYehnHEvFWOwEcw9gqMpWvJpWUrJJJpepFGjOvUkueyR9+/tsf8Ewbfw18P7/AMT/AAsivmutIia4utAmna4+2RKMsbd3ywlABIQkh8YGDjPzD/wTQ+H2mftf/tILpOsRGfw7oulyaxeQbin23DpHHEcYO0s+W9QuO9fo5/wT7k8ceGf2OvDLfFN7u113T7eV5ZdVnzdxWSuxha6ZuVkEWN247gAN3Oa+Af8Agg58QdK+I37cPxc1bw9HIfDeqW+pS6RKwCiW1/tMGNwOoVlKkY4wRXsZJxPmv+r2c4KrX9pLCw9yqnd6y5XaXXvFvUuhiJ+zmm722Zkf8FCPgpbfsm/tQy6X4WgkfQfE2lxanZ2TOWFhO0zxNErHJ8vgMAemSPSvv/4b/wDBNz4UaH4M0231nw1Dr2rJaxi8vbi5mzcS7QXYKrgKuc4AHAxXxt/wWa1r7L+2LokJYBYfDNtIPb/Spv8AAV9z/tk/BnXv2mP2MfFPg/wvqcek694l0iJLO5kleJNwMcmxnT5lVwpUkdmryOJs8zOfDmRupinT9smpzu+jilKVrN2RNavUqRheVr7s53xT/wAEyPgr430+dLDQ59InIKi60vVJg8LdjhmZOPQivzl/a/8AgPrP7HHxVm8PaxcHUdOvIjd6TqYj2i9gzg7gOkiHhh05BHBFfSn/AASc/wCCVHxN/Y2+POo+OvGvijSIrW+0mbTToOmXc1yk7vJG6zSswVMrsbAAJ+bqOleK/wDBb79s3Qfi7+07YfCfw4ReXnwutJbjxFeKMLb3d2qGO0B7ssSh2I4G9R1Br3OBs3xuF4neTYXHfXcO4tynrZWje65rtWenZmuDqTjiFTUuZH1b+x9/wTP8Eah8GNA17xxa3ev65r9pHqDwm8khtbNJFDpGqoQSQpG5iTk5xgV7Ef8AgnR8HHjC/wDCFxDAxxe3IP8A6Mqza+A9Y+IX7ENj4b0bVP7H1vVvB1vZWl/uYfZpmtVCvlfmGD3HI7V+YvjH/ggv+0Lrkt5OfGul3V7d8yTDxhqUcj+uDjjNfA5fmWMznGYmrj84+quM2kpOdmrvbl0SWxEF7Ryc6vK7/wBdT1P/AIKgfAjwh+yx4w8KR+FbiO1TxDHcCTSZLzz57cxBT5qhiXEbBsc5AI6818zWWtxXkc1vcostpfRtBPGR8siMCpUj6Ej8a4LVP2Y9R/ZA8Z6j4W8R6ANF8UWyo97LLObue8RslJPtJLNKjYODnHBGAQRVpdY8iJTuOR8wOa/qzhTKp4bJqVHEYhYltX9otVKL211vbubRnywWt33PkP8AZV0+f4EftI+P/h2JW8vw7qS6xpBJOfJZh0/Axn6k1+o2m64NZ0m0u0wVuYVkH0IzX5k+P2Ojf8FMPD96o2r4k0NreTH8RCvjP/fta/Rf4UztcfDnTMjDRxlPyYiv5h4nwKwmOq0I7Rk0vTdfnY/l3xfy2FLNvaxVuZJ/fo/yN92wDzx718p/8FU8H9l3x8f+nW3b/wAjJX1O7ZQjnP3q+V/+CpMol/Zd8fKG62cBAI64lSvlcRJJJs8fwyov/WCjYZ+xPIV+GFiRwXs4Cf8AvgV7FqDYtJe3yNz+FeOfsTOD8MbMHOVsbcf+QxXsV/IFtJfdG/lX8HZyrZpV/wAb/M/3Nyz/AHSk/wC7H8kfMPg2X/i41yuP+XRT/wCPn/GvtP8A4Jjp5v7fPwV5z5Wsak3HQ/8AEg1Uf1r4o8FfvfiZde1kg4/66Gvt7/gmGm39vP4N9v8Aia6kcf8AcB1Sv6w4VTWU0U+36n8a+LLvnGJt5fkjV/aMhUfCfUeuVeI+33xXAfDsbfB8fJIDuf1rv/2j2K/CXVD7xn/x4V518OJz/wAIZEMAlnc/rX5L42f7zT9P1Z+leAEf+Eeuv+nn6It+IP8ASdIuUz96NgM/Svh3/gn54ik0j47/ABYs1IIkvIH2scA4Mor7d1w40ufB4VDjNfnL+zp47/4V5+0t8SJRD5xN5HH5ZYIDmWRc5PA5PevM8G6fta2Mpd4L8zT6Q2FdXhlQjvzr8mfoRoPjK406/t5HeNUibDbcklTweSe3X8K8p/4Kv/Aa4+Mv7NqeJdGDHxZ8O5v7Z054+ZJYBjzoxjkjADgeqVWj8Q+JNdbOLPRoGxna/wBomI7/AOyP1re8N+OLPwilxZXV09x9oULKbiQyPOCNu3ntg9BxX6thufD1o1o7xfQ/gzCQqYfEwqweq6Lt1PAh+2Fp37Svjv4ZarFdLFpfhvw1Jq2sljj7LesDE6n6bGP/AAIVL+yHoA+OPxs1r43eJkcaXBM2m+FY5k3RwInDXAB6egPqSa+Z/iT8HNR+Dfxj8W/D/TEeKx8bXVu2lSqDhrWWbLoD/s9CPavujRr22+HfhjTND0pAul6LaJaRwgYWRVAycepOTn3r6nN8VGNHko/8vFuu3/BZ9PmNKjh6VqK1npftHd/fc9c1/wAVzWypKJEkgYZSaNsofxFeW/tJ/tgWP7PvwxvNRuLiNtUuonh0y3D5eeUggNj+6uck9sVx3xY+OWk/AbwHf+Ko9SayhjGP7OcCSO7kPSMIeAT6jpX1L/wRH/4IfN+1beWX7Sn7TujrqNtrYFz4N8EXcZW1jtjzHd3UR6o3WOE8MPncHIFfM5VkkJVPbYj4I/e2unoYZRk1Kq/bV/gj97fb/gnwx/wTf/4Jc/tHf8FJvBl9B4Wuf+FcfCW/vJLzWvFWp77aDVpv4yu3El0V5AVSI15ywNfY93/wQ5/ZH/Zq+GGv6BJfeJ/jF8R77Tri1h1qe6NjpWk3TxlUmjihOGKOQwDNIDjk19PfHf43+IpXn8IrenTfDWgzSWVppNjElrawRI5Cp5cYAOAO/SvIrq+3ggcenvX39TF4iu4yg+SCtZI+/p4Wjh5udGKi27uy39Xuzlv+CBn7RUfjX4A6/wDAnxmkDeLPhLey2osrtA5udOeVip2t1EchZPZWT1r6o/aW+HvgX4e+FPDOo23hTQ7W/u/GehWa3SWwDRb7+PJHYEhcZ96/Lj9rrQfFf7J37R2iftE/DSHfrOkkRa9p4z5eq22MOrgdQyDB75VWHK19i+K/27vBv/BQb/gn/r/iT4dXjz+KPCUdp4ml8PSuP7SsZ7G4juWj2DlwVjcK65DZ7HivNzDCVVVValfle9uh9Rl8qdWvCb2uj9IdN8Si4bJY/Q1v2WugYO79eK+Yvhj+0XY+LfD2ma3Y3C3Gk63axX1rMh3LJFKodSPwIr1HSfHcV3bq6SBlPPBr5t4Zp2ZhjcHOE3dHsFrr3qR+Nea/twftC+Lf2d/2VPGXjfwH4TTxz4n8MWiX0GiMzj7bCsqfaNuz5iywea4AySVHB6U+08ZgfdlB9gelX7XxaTIrK/K85B5FR7KzTaued9XSactUYv7IX7bHgP8Abs+DOm+Nvh5rlvqdnexKbvTzKv27SJsfNBcRZ3I6nIzjDdQSDXOat/wUz+D3hv8AbMs/gHeeMbOP4i3untfpCZEFpE4JItJJt21bpkBcRHnaOxIB8W+Pv/BHf9n34/8Ajy78XHQdd8B+KNRcyX+o+C9Xk0ZtQYnLGWNAYyxPJYKCTySadB/wSO/Zp0j4AS/DeX4cWmpaLcXx1W41G+u5ZdanvNu37Sb0ESh8EjCkLg/drq9nh97PX8C44Wk3pJ+ltjuP24v+CpGmfsz+P/AXw48C2Fh8SPjB8QtctNPsvDVrd7/sNk0o+03ly0ZJiVIt5Xd1ILH5VavpPWfEscbSgSLIEJAYnqPWvlD9l79if4MfsJwX0vwy8GWOi6pqKFLzV7maS+1O4Q9YzcSlnVP9hSoPcGu18Q/FoWyyBpURQOp6is68IOCjBbde51UsA5NKCMn/AIKZ/GjT/Av7AXxov76WNIE8IajbgN/HJLA0SL9SzqPxr86f+CGXh6fw3/wTz0ea4BjXWda1C/hz/FHvWMH8TG1Y3/Bff9rDUfiTonhH9nfwWz3/AIs+Il/bzXttEfmjt/M/cRvjp5knznPRIsng19Q/An4T2H7P3wQ8KeCdPdXt/DGmQ2AkA4mdV/eSf8Ccs3419rwhhHTw06r+0z+dfpM5lSw2X4bJE71JS5muyS/4Y6bULgHAB614N+3zo82ufA/VWgUs1vpl8eOoJiOOfwr2+6ffIefQDisPxf4AHxI8O6jpZQyGW1kHHdSArfoc/ga+jUrVE2fyfk01QxtGs/syT/E/Mb/gmVrccH7O+nxb/mF5cK3sd2f5V9OprHynJHtzXxZ+xPfz/DDW/HPga8DR3nhbW5BsYc43tGf1QH8a+prLXUurVXSQYYcetf0vwdio1Mpo8u8Vb7tD/SWlUUsNTqwd00j0z4Z/sveM/wBs/U7zwz4P0E61JBGs13K1ytrBYLnKSNMSPLbcuV25bK5A4zXufw6/4KfftA/8E6fEKeAvjBGfGL6WRDFaa+pi1W4hBwrQX0YIuQQOHZZCehINeR/sNf8ABQ+//wCCe/xkvdY1HTbzXPh94ot4rTxBb2Sebd2LRMxiu4U/j273DJnJU5HI5/Uvwb/wU9/Zh+Nvhuy163+LHwuvI7P99D/ad/Bb3di3f93PiSJh34Br8n8S+JamGzH6pm2XqthuX3JK6le2rU156WtsY1adV6uHNF/f8+x7FoX9l/tP/s/Wf/CSeG7zTtM8baMkl9omrxqLi0SaMMYpQMgOueo5BAPBr8yf+DbD4g2R+Kfxi8NPeebdy21td2Ykf57m2t7u6gMi+ow8WT/tj1rtP+Cjf/BcLwzrXw61f4e/s9azD4v8V69byWOo+LLVWOkeF4JAVkkjmIxcXZUkRpHlVJDMRjB/Nn4P+K/Fn7JPxS8L/EH4aXMUHiXwYStvbXTMbbVrV1Cz2c+OSkqjr1VgrDkVy+H3CeaZjwlmtPlcI11F04u+rhLmvr5aX6nHTws1GVOXu32T6H6bf8FzP2YvEOq+MNA+KGiaZe6ppcGmf2PrP2OBppLEpI8kMzKoLeWwkdS2MAqucZrjf+CJv7PvifXP2iB8QrrR9S0/wxoGnXNvDe3lq9ut7cSqIxHFvALhVLMzDKjAGcmvon9mX/gvF+z18dvCdtLrvi+0+GXiuNAuoeH/ABK5tZrSXHzBJSPLmTOcMp5HUDpUn7Qn/Bdr9nz4N6BcPoHiofFDxMyFbLQvC6Ndy3MnYPNjyoUz1dm4GeD0r5TDeIHEVHIXwbTwrctYXs+ZRb1Vvwv2NIYTGqDoxpu3e2n37fO54F/wcZ/Ea1i8WfCTw4kiNfWttqeryRA5ZI3MEMZI9GKyf98mvuD45/GbU/2Wv2C9Z8a6TpEeu6t4J8IR31tp0m8JdSRW6YRtgL4z12jPFfhX8dvij43/AGpfi54j+J/jyazk8V64EFnptq5ay0W1hybeyiJ5ZVydzkZdndu+K/YT4J/8Fqf2b/Hfwe0TXtX+Kng3wbqE9qiahomtX6Wl9pdyoCywSRNz8rAgMBhhgg4Ne14g5Bisn4byXCVocypubml/NJp8rttpoOthqijClbm5e2vqfOn/AATx/wCC5fxl/a8/ay0XwNrXwf0g+GdXneO41XRoL6JtJiERYXEjTZjZAwCsCVPzcZPFek/8F9v2f/B837Kt18W5NO03T/Fng68tIpNWSFEuL2ymlWBraVwNzqGkV1BJ2lOOpz6drv8AwXC/ZJ8L6VPcP8cvAsyRDJisJZLmaQ+ixxIWcnsADX5of8FNP+CiWv8A/BTG+h0XQ7DU/CPwa0iTzrKz1GIRal4luhwl9cRc+TDGP9VC3zEku+DtUYcKxnm/F+FxmQ4N4SlSac/elJWWru5W+JaWF7KSrKcKbgl3vr95w8P7C/7UX7Mfgbwz+0n8PG13w2+pWoeddBkMupRaccPFJe2ZUrNbuDuCFXKAgkLnj7//AOCRP/BYnx7+2j8T0+HPjXwSuo6haabLe3PizR4HtrS28sDC3cD5EbyMdqlH5b+ADJGN+wf/AMF6vAll4R0nwR8edTh8A+L9JtktINcnhK6PrsaDasqyKCIZCoG5GwAc4OK+iPif/wAFkv2W/gp4UuNYuvi/4HvFdd6Weh3C6hf379kjggDO7k8DI78kVzca8ZV8wqYjL85yyP1rmajON4ySb0ul8dls+ptjKFV3jOldvaS2/r+rHGf8FUvFXhn9nX43/AT4r6vdW2lDT/GEGmancNhfMtJRsLv6rESCT2BPavWf+Cm/7Kl9+2T+yRrHhnQzbv4hsbmDW9FWWQJFc3MBJEW88L5iM6hjwCwJ4r8dP22/2pvEf/BUn4sT+I/FGlXHhj4fafZTaX4Z8M3EgN1HBKR513dbTgXEu1PlGRGqhck5J93/AOCYX/BbyP8AYz0vTfgz+0ZqN4PDOmKLbwl8QZEe4j+yjhLPUCoLK8Ywqy4OVADdN1dOP4SzzK8ly3O4XdXDttq13GPNzQ07K7uuhlUws1GDhrKO58P6rrOoaT8TH8BT+GvFUfjlr3+zF0FtKm+3tcltoiEe3JOSPmHy45zjmvePjX/wSc/aE/Zw+G2r+ONX8I6XLoOhae2pakbPWILiSzhVd0m6PIZjGAS23I4OM1+t1/8A8FY/2W7C0j16X42fCxmMWEmh1aGe5KkZ2qFzIc/3QM+1fnH/AMFdP+CuOp/t0fDnU/hN8HbW90T4dauRD4h8VanE1rda9ADk21nbtiRIGIG+WQKXHyhQCSf1LIPHLizPsfQw2W4OCSaVRtSaequ73XLp0M08U5c0o8sV3X+Z+iX/AASCvU1L/gm/8JruNSiX+ktcqD3DzynP411Hhv8A4KQfAHx58SY/Cmn/ABQ8IX3iSG8ayS180ho7hWKGMOyhA+4Efe68V8jf8Exf+CvHwJ+Ef7KPgP4Y/EDx3o3gTxr4N00aWbPVt9vDqEcRby54ZivlsrLjK7gwYEY6Z/LH4YaMde8ZeJ/E19GRFr2sX17bpjYDFLcSOrY6gFWBGeelfknD/h/X4h4pzOjj3Ki4ylK6XWUnZea9Oh0YPLIV6VSvVbVrW827n67/APBxKnxnu/2P7Sx+HM62ngbULw23xEubXcNRt9MbaAyEdLcnckxHIVgT8u4j5+/4N6Yrez/an8S6fYqkdvpng9gI48bUU3UCr09cHH0Ne5fsXf8ABZn4U6f+y9JoHx28a6L4b8TeDbJrO8fXGATxRYYKRTwggidzHhJYxlg4YlcMCfjH/gjR+2P8N/2RfjR8Yvinrtnqnhr4YeN7uSDwzDHatLJo2jJds8U8sQ+fywhBwAWSNMgHpX1XDv1zCcM51wjUwj9vBcykl8a5le/ey1XdHGoSpUZwa1ue8f8ABdW5Gl/teeG52batx4Wjx77bqYf1r9Evjx8YtR+Af7GHiTxvo+mJreqeFPCb6raWTB2S6kittyqwT5iuRzt5xnFfkF/wWl/aR8Mftkf8FBfBmifDHxJpHiXRfBvg03ev6xplxHdWQkuXMtpbpKhKsxVldgDkK2OCDX6N/s2/8Fjv2ffiZ8MNMm1P4keEPBXiCyt0tdW8P61qEdjdaZcRqFePbIRvTIyjrkMpB9RXy/E9PEPgrI8TUoSnGk6kZqz/AJk0u9pJPUxk3USp003b9T5T/wCCb/8AwW/+OX7Uf7d3hz4b+I/BPhjWPCniKO5N1qGiaZdWkugiKF5Vnd5JZEaLKqhDBTl1wc8H2z/gu3+zx4au/wBnx/inFY2Nj4n0C4htbu+jjVJdQtZCUEcjdX2MVK55GWA4Nen+L/8Agsp+yp8MdInvG+L/AIHun72+isb+7uDn7qxQKzMc+1fmn/wUx/4KQ67/AMFI5G8NaDp2p+D/AIT6ZIZbWHUFEep+IbnkLczxgnyYU52RE7iSWbGAB2cOSnnHFmHxvDuBeCoxtzJSk4/3ndpb7WOnC4arSqKpJOKXfS/+Z+wXwz8cXOjfsfeHvEFjYtql7ZeDbbULezViDdutkrrGCASNxAHAJ56Gvy38U/8AByT8dNDu5h/wofw1YrG+3yLufUDKOe52L/6DX0z+wJ/wWV+BU37NXhLw348+Inhv4f8AjrwhpkGjarpet3H2Ms9vGsSzwsw2yRyKqsCpyMkEDFexXv8AwV5/ZdMuJvjZ8NpyvXF8sv8AIGvz3BYrB5Tj8VQzrLpYiXO7e9KPLq7rRa3NqMFFy5qXPfbc/Hb4x/tn+Ov23fiHcePPHlpo+janPBFp9rpmlpItvp9vEWKplyXdyzszM2OWwAAKw7jX/JjySRgZOa+jP+CuX7WvwV/an+KHhm6+Ectnq19psE669rtjZPbW19nb5EILKvmsmJCXAIAZVyeg+Ndb8TMJ0gDZ3Hnv+Ff2RwjnNDEZBh62GoOhDlsoPeKTfzd99TeFJtJONvI83+Jeof2/+3d8LFiVnmjtZpGGeQB5mM+3Wv0q+HlkdI8DafG2SWQvg+5OK/Nj4A6XN8Xv+CjlzPbIZbbwdpAtiVGR50nygD3y7D8K/ULxLYp4evFsFBC2CLASfUAA/rmv534txscTj61SHWb/AASX5n8x+MdeNTOlQh9iKv8AeyjdyAOeQB196+U/+CnU2f2ZPH/PAsYj/wCRo6+nbm8XkHjnn0r5Z/4KZyq/7MPj5gcA2kC/nPHXxOLklFLzPO8LqD/t6nK2yLP7GE4i+HtuDu/487ft/wBMxXsN+wexnYHOI2/ka8Z/YxiJ+H1vuJ+W0gGP+ACvX71f+JVc8Y/dt/I1/DOcO+aVW/5v1P8AbrLbrB0k/wCWP5I+bfh8c+OLt8cm3QZH+8a+3f8AgmVOsf7eXwXAxmXV9SUf+CDVT/SviD4eLnxbc84Pkj9HNfbH/BM0E/t8fBFeya1qRJ75/wCEe1Yf1r+ruGX/AMJdG/b9T+NvFyPLnWJXp+SNf9pAsvwf1hum1U/9DFeZfB6+W/8AAiFeWildT7GvWv2jNOa/+D+vxIORbFxj/ZIb+leCfs5aoZ9C1O23AmCYSj6MMf0r8u8acK5KFfsv1P0P6Pddf2fXpf3/ANEdjrqlrGZSR8ynOO3Ffl9bxCP9q34oaWVI+0p5qAHByJAQR/31X6kapEJLZgRkEYPNfmf8WdNHw7/4KMX0N04t7fxHaFFd+FLMny/+PLj8a8PwRxEY5tWot/FB29UfUeOGGlV4eUor4Zxv9zO38LfFzxBpFn9j1ea7S3XCxTwpnzRjjJ6g1tWvjGO7lEkW5pM7g8o+YH1rB8XeOfDfhG5W0vblZJgOIIR5rg+4GcVnxePrG8TfZ6F4olXruj0e4YfolfuVVRvzWt9x/GNXAw5nKMbHcaner458ZeE7y7gS6vdBuZHglC/PhoyMH2ziul1ibXlvP9HsJJGk/wCWZXLN9BXz3F408WfG34x+G/hR8NtO1a18c+N72PTrOS8t3s2t1ckNIN4BAChiXxhVVj1FfVv7TH/Bvz4f+BP7M/izxzon7RGt6l8Q/h5pz6nrMcts0dhcyRruZIJg/mKcjAZs57gZq/YUqcIyrTS5tlv+XmaUOHa2K96O0fK//DFD/gmX+xraf8FUP+Cm1lo/iW2Fz8LPgnAuteJ4T/qNSuw+IbNvVWkXDDukUg71/Rhc64kciR2aLFbwqI0RF2qoAwAAOgAHA9q/Kn/g1v8Agqvwd/4Jz3/jS43nWvi94gn1G4mlJMklrakwQgk8nMnnvn/br9LrPUjMMce2KxzOpFSVCm9Fb7z1o4GNG0ZbJafqz4P/AG8vhvP8OPjrqFx5Z/s3xCTqFnJj5SWP7xPqrZ/BhXhM0xD9T7V+ofxu+CWkftAeBpdE1hXQAmS1u4wPOspcYDr6+hU8EcV8AfHr9lLxf8AL5n1SyN9o+7EOq2il7eQdtw6xt7N+BNevlWNp1YqnN2khzfY8j8U6LbeJNMmtblBJFOpVgfTFfnv+0h+xd4h+DnxFl8WfDnVb3w3rCM0sZs5mgWbPXay/dJ7qflNfoncxkcE4B/WsXxR4UtPFGlyWt3GJY3HHqp9RXup20N8PWcHofGv/AATa/wCCq97+zxc/8Ku+L5ubLw957nTNUeE79EkdixikUDm2ZiSCoOwngFen6h+FvjlPaWNtd2N7b6ppV4glgnt5hLDMh6Mjrww+lfml+1F+yXa6jbumo6et5bNkw3KDEkP0Ycg+3SvEPghrfxh/Zo8ZrpHw58VZsJ2aVNI1ciSyuCOSoRshWPPK7SfWvJx2AjK9SLt+R9fl2P8Aar2dRc/5/wDBP3P0P9oiFwQ7GN+4at+y+Ptr2uADj15r8lD/AMFY/HPw0UReP/gld+YvDXej3riFz6gMrqP++qen/Bb3wbOR5nw/8dQSdCiSQMP5j+VeQ8JV+zG/pqerLC4CTtKXK/NNfofrg37QNsOlwv5//XrO1X9oa2CH9/kY7GvykX/gstpEiSy2Hwo8e36IhkBkuooVAAySSFbtVXwX/wAFbfih8etPvW+FvwBGsR2Uggmu7nUZbuO2dhlQ4URqDjnG7pVUssxVV8sKf5HDmFfIstp/WMdX5I92ml97Vj9M9d+Odzq8pjshLK7HCj1/Kvkr9un/AIKr+F/2VLOTSNPubfxt8S7n91aaJZSedDYytwpuWTODkj90vzt0+Uc14Brfwz/bH/bCs20/xR4o8PfCXwzcnE1ppYEM0inqD5JaVuOzSgV75+xP/wAExvhp+yNfR65DHL4u8agZ/trVY1zasept4uVjJ/vnc/uK9jCcM1ZNPFaLsv8AM/EeOvpL8I5BQlTyuftq2tlGz19dUvVu/kcf/wAE0v2HvFejfETV/j18Z3ku/id4rVpLK0ueZdHikGGdx0SVkwioP9WnHU4H2hc3StgAnFDJIUOFc8E/WqEvyEe/6V9coqEFTirJH8F53xfj+Js0nmuYO857Lol0S/rViyy4XHfqK2fhnrsOi+PNPluiPskrG2nJHRJBtJ/AkH8KwmkygyOnIqvOQ6EH+I81jNc0WmelRoKyfU/OX/gqh8Fbn9iP/gppP4nkhNv4U+JcQZ5guIxNgK5J6Z3BH+jGrug+JDZMLd33JLgxN2+lfpN+2J+yNpX/AAVK/Yev/DUxji8beFI99lclcyRyop8qT1II4b1G72r8c/gl4p1bwxrepfDDxzbTaX4z8KyNbCKc4e4Rem0/xYGCCOqkGv0Pw74mdJvB1nqn+P8Awd0f234W8TU8zyiGCqv97TVvVd/0fmfRlrriqByDj1NUtT8NeHdXuxc3WgaNdTk582S0RnP445rhH8Yz6LIUvVYw5wsw6D61qWvipLuIFJVkU91OSK/cqOLo11da+tj9I9hKLs9zuLbV4LSBIIIYYbdOFijQKq/gOlKmqqshIPTtnFcYutllBDN+FObXQcnJQnpk4r0KeM5Ul0E6N9WdZq1lpHiEAajpmmXu3+K4t0kYfiRmnabDpmgQGPTbSysVbtBGsYP5VxreISrjnPpzR/wk+7PzZx6Gl7enzc/Kr97FKElpc7mPxBjq4+uelUtTstK1eYy3enabcSH70j2yO34kjNcmviMN0bOPXmnHxGCvOMH3onioTVp6oTpyvozpbTR9IspxPb6bpsMqfddLdEYfQgVebxGTn5mY9OTXESeIWxgE+nWm/wBuFSBk8jIwalV4Q+FW+RLpSZ2mpzWWtac8F/bW95C3BSVA65+hrH0/wh4e0HUBdWGi6Ta3AORLHbIrqfYgZFYcniEhThvy61G3iQqc5PHasaio1JqpOKcl1sr/AHm0ISSsdy3imSIDDggEVFq2oW+tWj219FBd28n34pkEiP8AgRiuHl11/vbjj60yXxGxByxwO4rR11azJ9i1sbemeC/DOgXQubDQdFs7gHIkhtERwfYgVp/2k0p3M7MfrXHprwfOWzSjX/8AbODUUalOl8Ct6aEzpSn1Oz2WtxKjT29vKyHKO8auUPqCRx+FXRrxjX5GY49RXER+It0eNx496c+v7GJDDPfGea6KeKjGTkt2ZcklozofEVvY+JoVi1Kxsr+JG3qlzAsyq3qAwOD71dj1wfZBCQqwlNhTPy7cYxjpjFce+v7m+VwT3FNOuknvn1rR46Kbl1/EToOWx0ngTTtH+GOlXFj4e0vTtHtLyXzpo7OIRiR/7xx1P8qn1ax0nXJzJc6fp11K5yXlgR2P4kZrkpNbVU/XOev41H/wkQZ8Fh9aipi6UqKo2SS6W0+4yoYZ05vl0OvsYrHRQGtLS0tuwMUSof0FO/4SKRHyz8/WuOPiEk8nH1PWoLnxDtUEk/nXm+2hT+HQ6pUW3rqdnfX9lqRzdWtlcEdGeBXYfiRmqDnSkcbLLT0KcjECg/yrjpfE3HXr6VTvfFq28ZeV1QL6nFZSxNJ6yWpvTo23O21jxJHaQl1KrsHOOOK878XfEiHwd4Z1DxHfssVrAhaMMeZG7AeuTinm5OsWcl5fytY6NF88kj/KZgOy+3vWR+z38HtT/wCCjP7UGleH7Gwnn8A+GbqOS+jiXK30gb93bKehLnr6Lmvi+K+KKeBwklTl7zVl/XZHmZzmdDLcLPGYh2UVp6n1t/wQ8/Zdu9P8Lar8UPFduYH1KRvEl2JAQdmP9Dg57kkuR6MtfSutalJf3s085/eXLtIx9yc/1r0v4u2Nh8EfCGn/AA70prfzrQLda1JCMK9wQNsQxxtQYGPYV5Bf3TMe+7qD9a/nRYidV88np09P+DufxtnmJqZhmNTFVfik7v8ARfJaeoy5chsEnHtXyZ/wU41jyf2YPFSkndeX1naKBwCTKCR/47X1PPerbBmJ4UFjk84x618Tf8FM9fOq/Dfwh4fiYtN4i8RCYqM5ZIx1/wDHhXm4+uopOT2u/uR+peD+Uyq5unbsvvZ6/wDsj2f2bwEvH3Yol+mEFen6vNs0i6PpEx9exrhf2bLA6f4HIGMMRj1IAxXW+LtQ/s/wvqErtgRwOfTHBr+IsZN1cym11l+p/sdSgowjFdEvwR89/Dhd/jG75ziJePqxr7i/4Jg+HNT1r9u/4PXVjp97dWmj6pqN3qMsEDSJYwHQtThEsrAERoZpoY9zYG+VFzlgD8Q/CuYP4svH6hVRPx5Nfqr/AMELfBlzf/FLxh4iSS3FnpmjR6dKhJ81pLmZJEKjGCoFrJnJByVwDk4/rrh+nyZZRj5H8V+LdZTznEyT7L8EjjfH2krquh3dm3IuonjPHqCK+KfgPrsnhv4r3ekXAKi48y1IPaSNiR/I190a1CGBYk4Oa+E/2g7GT4TftHXt7GCkMk0epwNj7wYfP+ob868DxCyv69lskldq6+/b8Uev4D5qqGYVsFJ/Gk16r/gM9vvvlVselfA//BQjwBoc37Vfwv1LxJazT+G9S1GGw1URTNAzRNKoOJF5Xhuo54r7ss9bi1rSYLyAh4bqMSIQeCpGRXzh/wAFFPhUPiP8AdVkgQjUtH/022dRlwy4JA/DP5V/OfAWaPLc9o1Z6JvlflfQ/ozjfJ3meR4jBx3cW16rVH6Z/sOeHvBunfBq10nSfCnhbR7/AMMt/Z9z9j02JHmC/wCrlZyC7F1wSzMSTnmvaJLr7O3ynZ7KMCvzM/4JiftrSeKYfB3iW5mWKDXYV8P+Ioi3ywXsXyrJ7ZbB+klfo1c6wsjk5Axx1r7fjHLatHMJ+83GWq+Z/lfmtKrhsTKlXb5k2tWz84P+C3+o3/7KX7aP7PP7TVrbT3Ok+HbiTw5rTwrl4UYuy89i0M1wFz1ZAKqf8FG/ifY3/wDwTd+JXiLw1q0GraT4xt7UW9/bSbo7mGSZBjI6HBIKnkHINffXxr+Gvhb9oD4Zax4N8ZaNa+IfDWuw+TeWc+drDOVZWHzI6nDK6kFSMg1+O3/BRr/gi5rH7I/wF8X+Lvhz8StWvvhlpvl3Wp+GdWldZ4laZFUqyfu5grMpyyq3HU1+h8A59l1ajQwGYpxq03aL6S1uk/mfoXBnHMMNhXllZ2ctE+/bX8D9ZP8AglT4ksPh1/wTV+C8dzcW9lZWfhK3up5pGCJGH3SO5P1Y074q/wDBSLxJqF3JZfDXTtCtLZSUXWPECSzGX/ajtYypC+hkcE/3RXw38I/2n4fEf/BPP4E+F7C6KpDoajUlVvvNbyvCiH2ypbH0rqPCvihZY0JkHrz1r9Cw2T/FPEatt/mfoubRjGreK3Pc3/ap/a2uHe50L4r/AAeupckrYar4MktoXP8Ad82OVmH1NVdB/wCDgPxX+zj4xtfCX7V/weh8P6TqpEKeLvCUrahpFwh4LPA24so7hHLAfwVx2keJhFGCGzn361e8Q+DrT9onQZvAlz4WuvHJ1+No00iBN0pP/PVT/wAsyvXzMgDua7PqVH4ZRVvuseV7am/4sVbutGexftafBTwfq/wx0v4vfCbVtM1zwD4h2yM+nTie1Tf0liYchc/KyHlG4wOlfN63fzAcDHevINf/AOCef7av/BG/4M+MPE/ha10zxT8HtYieTxF4SF8NRNnAelzJAoBjljGMzW7HGPnBUVe/Zl+PGm/tF/DSz8RaaWVZsxzwM2Wtpl+8je49e4wa68NCUIuDmpW2a7EVKMVHnpy5o9z1S706DVbN4biNJYpQQysMg/hXj3xA/ZU0291WLUNOdLaW2lW4jDjhGByMEcivabWLMQzio7+282FhngjoOtdVubRmFLE1KM1Om7NGlY/sFyfFL4a6d4g8K63Cn2+HdJaX0efKlBKugdeDhgcZHSuK1D/gmL45nuAJB4fCk53h8/0r0r/gmz+0vLq/xZ+LXwt1AIF8Iy2er6ZIOphuYgJUP0kVT/wM19JfFf4yeGvg34C1LxP4l1KLTtH01N0srHLSN0WNF6vI5wqqOSSK+OxkJYfESo0/kfoWE4hzT3YRfM3a2l27n5oftW/sl3fwE0TTbTUdTtbvVvEpktbazt1PyRgfvZmP91VOPckCvFP+CHOrtp1p8VdCO4G31CzuB6YxPGf1UV9OeNfF+q/tIfFi58ba5aNp/wBqRLXS9Odtx0yzBysZPeRidzn1OOgFfMH/AAR2tTbfHf45QKWWOO4hVQOgxdz4r63hpOnGam9dH+Z+NfSWxs8ZwfWp4l3dNL0u5R/LY/QjTo2faFJYnsOfwrxn9vX4++LfhR4E0Dwv8OYluviV8RdXh8P6FHGVeS3klODIFPG7kAEjALZPSuO/4KFeMfF2oeIvhd8IvBesyeHtV+LWqtZXWpRkpJbWyFFKq45GS5JxyQuM8mvqn4Ef8ER/hJ+yH8Vfh18T9O13xjq/i/4d6gNVu5tTvhcQ6wwjdWUxkfusFtylTwQM5pZ5xXgcqVq8vfkm1pdLzZ/MXgp9HyvxDHD8R4ycXQU7qm1fntpZvZK5xfin/g1t+I+lfs2XXjGz/aM+IF/+0FYWTaokIuW/sie6Vd5s0bd5mTjYJCdpbHyYr5w/Zv8A+CzfgJ/gzpEHxZ1a80Xx5Yl7HU0i06SYXEkbbfOIjGFLY5H94Gv2Jn/4KWfZtWEyeHrhbNDuz5wJI+lYX7Gn7BXwK+EPwk1azPgDwl4lm8fX93ruuXur6XDdy3813K8pjG9TsijDhERcABc9STX5xw74p5fiJVY87ml6/ef1Tx34IQxWFpLNcP7Kz91wUU9tY6dPU+Q/hX8ZvC3x08GweIPCGt2Wu6POSont2PysOqOpwVYd1IBro9455JIr40+G3hnwZ+z7/wAFu/jR8Pfg3Ns+FxsGmm06CYzWmn3iLCzxxkk8JK7oOeASueK+wWnCEA/eb8q/V6WIhVpxrUvhkrn8hcXcIf2Dms8vjLmikmr72fR+aOi+G3xR1L4R+MrfWtNcM8PyTQMSEuYz95G/oex5rm/+Cm3/AASl8J/8FR/h1B8SfhfcweHviXoqbldR5cu8ZbyJgvO3P3WHTORxkUMdw45/Gtn4ffEXWPhb4ii1fRLx7O8X5X7xzrnlHXoy/wAu2KipGSmqtJ2kvx9SuH81xGWV41qLtZ39P+H6rqfjnqnxU8V/s2eN5fBHxu8NahoOrWzmH7e8RMVzjjdwMOD/AHl/EV3Vl4O0zxfZJqXhvV4TDINySWsoliJ9Cvb9K/aT4m3vwM/b68Gnw/8AF7wvpllfyLs+0TRhoWb+8kuMofZunrXw3+0D/wAGuF7peoS+I/2ePiWbJJj5kWn3FyWiwecLID0+rGvrsm4+xWHkqWLjt9pf1r+fmf0nkHixhK1NUsfv3X+W6/rU+PF0jxTprbDapeBP445ACfwNR3WuaxY5WTSL5WPGVAPH1r0TxL/wSg/bx8AXD26eHbLxDHFwJopoZN/uDj+tc8//AATt/bxlY4+Gdwecf8u4B/NhX3tPxEpcqv8Ap/mfax4z4dkk/rNvU4+XxBqyj/kE3x29MgD+tNTxDqzE50e7GPQj/Gu7t/8AgmX+3neqG/4V1bRn0lubNT+r1Zi/4JYft7yHcPAGlj2N9Y//ABdOfiPhlp/l/mR/rlw9eyxSf3Hnp8QarGfm0e7wfpj+dO/4SHU93GlXpJ68D/GvSY/+CVH7elxGFbwPoiZPAa/sRj/x6rR/4JJ/t4LAS3hDwznt/wATSxz/AOh1j/xErDd/y/zCPGvD231lfgeWf2/qYI/4lN9jPt/jQ/iPVVHy6NfuD2wuP516RL/wSa/bwbK/8Ih4f5/u6np5/wDalJD/AMEi/wBvR3OPCmgp9dU04D/0Ol/xEvDW3/L/ADG+NcgvpiF96/zPNW8RawDn+xL7/wAdx/Om/wDCQ6o5H/EovVP1XP8AOvTrn/gkT+3tDD/yK/h6T2TVdPz/AOh1WT/gk3+3msmW8FaMeep1GxP/ALPR/wARMwu1/wAv8xPjXIdvrC+9f5nmsutauThdKuQD6lR/Wo5NW1rjOlz8dPmHFeqD/gkn+3ax58E6Gvf/AJCFkf8A2emyf8EkP26xyPBOiHPGRf2ef/Qqf/ESMI/t/l/mL/XbINvrC/A8tXWdYAP/ABLZVOP74A/nThqesOgP9nSYPX94K9Kk/wCCSn7eG7b/AMIJpWOoP9oWOD/4/mlT/gkf+3c7/N4I0VPc6jZ4/wDQqUvEXC9Jfl/mEeNchX/MQvvR5p/bGspnOnyhT/tD/GpP7e1NRk2E/Ppjj9a9KH/BIf8AbukXnwboHHT/AImVpn/0KmP/AMEif27Eb/kSdGb6ahaYP/j1NeJGFW8vy/zB8bcPtf7wvwPM5PFWojA/s+6JB6ED/GlTxRqsz4/s66AH0x/OvR/+HRH7dAc/8UTpAY9QLu2P/s1Kv/BI79utWP8AxQ+kHH/T3bAH9aT8RsI38X5f5mceN8g2+sL8Dzz/AISW+dRusp0x+H4VGdd1GR/lsZCB/tivQpP+CTH7dSygH4eaZL7i6tcf+hVas/8Agkd+3UOR8PdIT/evLUf+zUf8RDwzWkvy/wAzZcZ8PvVYj8jzN9W1MA/6DJ7gOKja61m4/wBXplw3YZYda9MvP+CUn7dtkOPhzYSknH7q4tGx/wCPimW//BKj9vTUXEY+HNrBk7dzXFouPxDHisK3iDh9+f8AL/MceMsjXw10/uPO7fw5repf6z7PZAnqz7mH4CoPEniHwd8GrE33iPU1vLwDKRMQzsfRYvXPc19A+DP+Dfb9sf4u3CReJNf8OeDLNseYwuy7KP8AdjUZ/wC+q+k/gR/wbu/s+fsn6hBr/wAa/HsvxD1+EiU6ecJAzjnHkoWkfn+8cV8/mPiLBK1C85f1/W54uaeJeVYaF6Dc3+H42X4n55fs7fsyfFv/AIKz/ES10zwvo+oeGvh5DKFn1NozmRe+08BmPt8q9zX7IfBv4H/Dv/glV8Hrbwj4MhstQ8biEq0+A4sGYfNK7fxSH/OBU3jP9raDw34Y/wCEa+GGh2ngvw/DH5KywQqlzIg4AULxGMemT9K8SutQkmleSSR5JJDl3clmY+pJ6mvzPHY3F5hW9vi38v0PwviTirF5xV5qukU9F0Xn5v8ALoupo6nqc+oXUlxczPPNM5kkkc5Z2JJJJ7nJrMvLrnhiT6g9arS3/Pf39ap3F4fUDNS6iSsj5/D4G3vMo+N9WNtoM+0gSS4iQdyTXxL+0JrS/Ef9tHSNDTElp4H03fJjotxLg8+4G2vqL4s/EOy8MR3uo30wj03QYHurh85A2rk/yx+NfHX7HmjX/wASPGuq+MNSRvtnivUHuyT1WLcSo+g6fQV8Rxjmaw2ArVX25V6vf8D+xPo2cHSrZnTrTjpF879Fsfa3w307/hH/AAtax8ZMYJ5rC/aC8ULo3w8niDBZL51hUdyOp/QV1Fq4jtkRDwBgV4V+1V4wSXXY7IP8mmQGWTnguwz+gx+dfy7w/hJYvMY373P9EcVNUqUpy6Ip/BNxdfabnk+ddMoyOygD+ea/oI/4JmfA6b4I/si+FrfV/DcHh7xXqEEk+q7rVIr2cG5nktxcMBuLLDIoCud0eSpCkED8Zf8Agkv8GLP4xftZfDPwvqP2b7FJff2jeRXFst1DdpbRPdyQPGxAKyiExnOQA+SGxtP9DVf2DhaKpUIUl0S/I/z244zP63mVWovtSb+V9D8uL1d8TA9xivk7/goF4Fa80HTNdjX59Pc21wR3ifofwbH519cX+0x8jnFeY/GrwbD4z8I6jpk4DR3kLRseuDjgj3B5pYikq1KVF9V/wxw8L5vLK80o42P2Xr6PR/gz5r/Zm8XJqfgqTSZZs3GlNhFJyxiY5BHsDkflXRfEDSotY0S6t2AZJ42Rwe4Iwa+fPD2sXnwd+InmXauj2MjW15Gf4484P6YYfSvoi5mi1O0SWJ1limQMjKeGBGQfxFfyTxhks8vzF1Yqyk7+jW6+/U/0ByvF0sVho1IO6a+9NHw98AfEr/suftUaj4M1VivhP4gOotpC2Es74ZEbZ7bx8hPrt9K/W39kb47an8UdFm8MXxhuPFGhRje8kgjN3bg4SXB5JHAbHfnvX5mft4fAN/G/hYXlgGivrVzJFKpwyODuUg9ue9bv7D37Y+reOYdN1e3uPsHxM8BFY9QjfhL9Pul2UdUlUbX9G59K/XcuxUM9ymFdJOrBWd/LZ/M/hvx98OvqOZyzHDR/d1dfJS6/1/kfqT418EfFu/hlXw9ceCbCRh8r6gZ5gPqEAr51/aS/YW/as/aY+EXiPwTffEr4ODR/FFubS5hGlXcDbNwYASYbacqOcGvrX4D/ALQmiftF+A4tZ0mQQ3MWItQsHYGfTpscow9PRuhFbXivWbi30W7W0cRXTxOkLt0RyCAT+NfGLP8AH4KsoRpwUovrBO3nqfzfQrLDyV4Lmi+q6n89/wCzZ4y1r4M6/wCIPhh4pQ2WveCNSuLZ7cvnZiQiVVPcCQFgR1D5r6k8DfF2B0jzKpzyCG714h/wU7/ZT8eeGPjFd/EW3sL2HXTN5l7LHGSl7jgSKw4J28EH7wxXifw2/aw06dRBqsr6HqKHD7kY27H2PVPofzr+p8jzKhmeCp1lJc1tbdz98yrNMPmGHjKUkpaH6W+G/iAlyFCyEnGT6V+kv/BPe0039nr9kq++IFxbxT+IvFhaaORh8wtlbZDED1Ckgucdcj0r8IfA37QJW1L22qWN6mOsdwrcfnX60/Cj9oyHxP8AsB+AdQgnSawjsre3maA7kidMo4YjoQw5BrzuK6NbD4K9Hq7NroezgeHvrGMpUp6xk/vPbIf2m/El/rUs2p3322C6ykttIAYircFdvTGOMelfl5/wSq+EXg7Vf+CmP7S/wyhF1b+FtL1KTUNHgtJvLFoVuSjIOCNoWTbj/YFfTX7R37YPhH9lT4RXvjDxJqNspihY6dYGVftOqT4+SKNPvEE4y2MAZJr8r/8AgkN+3VpfwL/4KC3vjDxrqcenWvjwXMOoX0ufJt555hKrSN/Cm7I3dBkE8V8nwfhcT+/qttJrTzfkfYcV4LA0HTw9JKMne6VtrNK/zP6CvBP7Dnw3so0knsNQ1BgMMLm9baT9FxXZwfshfCxuD4N0thjAJklyPx3UfDfx/YeL/DCapY31nd6Y0Xni6t50mhKYyXDoSCMc5zXm3wL/AOClPw++Plrqs/h6PXI7HS7yS0F3fW628d0EJBljyxOzjgtjjtXbOtibNuT03PzejlWJxDl7CDfLv5ep+WXxY/aM8KfsG/8ABaf9oCytNH1fULa90qz0zRNF0tTLJcXJS1l8sux+VFHmEsc4r174C/BPxp+378W7Dxj8WpV0zw5oEiz6T4UsJW+y2Tf89JH/AOWk5H8XRe2K/Pj9sH9rbwxq/wDwW48bfEm11BLvwjNrxtXvIv3iNELdbd5Fx1UOpOR1A4r9gf2W/wBoH4e2XwbTWtO8V+Hr7T7S1a7lNrfxO77V3EBd2dxxgD1xXfmKqxnGpCOrSu9z7PLsYqWBkqKvWT5V3St0/FHuHg/9mX4faQ0Ri8K6W+w53TIZTgc/xE1+EP8AwT2+F37Qvx2+Pfxqm/Z1fwhamHVfP1mPWpII0MT3VyYFj8xT0w+cY7V+tXw5/wCCqHhPxh+x54r+LHiCxj+H+l6cl7DplpqepQve6kUjIiZYlwQzuQAnP1Ir4Y/4NnPEf/CLaJ8XvEF0THJ4h1SytUJ/5aFFlkfH4yivKx+cYzK8sxGMo/GuVK68/wDgn5rx/h1DLJ0cdTU7tXjJXT23X9amV+0p/wAEv/25viDpFj428XTfDa0ufhhFPrthe6XqscN1b+WvmPs2KdxxGCFPU19m/wDBKP46/F/9v39j+TxT8Sbvw3aWt+8un6bc6bbMl5fCP5JJ5gW2L83ACjnBPFfXGp6/B4o8JX2m3itNZ6nayWsy5wWjkQqw/Imvz1+FnwQ/a1/4J3+FtR8D/Bi1+HnxD+HiXk15o66wxg1HTllYsYmG9QwBPXPP6V+dQ4nlxDhpYfNZU4TTVm1ypx6q66nleGPGGEypPCrloRj8CStG97vR6XPqH/hnLxcbtNPENrKijyxdGYLGV6biOvTtivHP+C03iD42/sg/sJRa/wDDDx8tpo+k+Xp3iFDZKt8sUzbUltp85VQxCFcbsMCDwa8l8B/8Fev2if2V4r/Sfjp8BfGXifVZrt5rbU9EtTHD5bHiILGjIVXoCGye9R/F3xr+0L/wWr8OWXgQfDe8+B/wduLyG61vWNdLNqGoJG24RwxOFLHIBAC7c4JbAwVw7wjlWRVJYypOModZOSatvaPf8z9p4j8RljsKpYmrCMIptW3btv6+hR/4Jb/s8eDPh7+yn4f8deH0utQ8QfEPT47/AFzVLyUTTmcMweBSPuIkgbjqTySTXvt5MEkb+XpXnWvf8G9eo/C21XVf2cPjh4q8J6zbr5iaF4lm83Tb5gMkeZGMJuPZ42GT1FeM6z+2V4+/ZM+KFv8ADz9pnwNd+Btbm+W28QWse/TNRXOBKpXKshPV4mIHdVr9tyHifK84pr6hWTkvsvSX3H8McScH5lisTVzPD1frCk230ml2s90l2+4+pVu/Utz0wcU+K4GBk5B96wdI1y21S1huLeZJ7edBJHLGwdJFIyGBHUEVP9uKMTuyM9a9ac3F2Z8bTw11yvc2JJElAXAII+bPerGia7qHhS883StR1DTJBzm1uHi/QHBrFj1IkgH5R3qeO8CgsCGx0qFiL7i/s2bd0en6T+1T8QtIi2p4r1GXaOkyxy5/FlJq1L+2b8SR93xGuPQ2UH/xNeSfbBtPp7GmfbATjIwe9TJwb1Q/q1VfadvU9fk/bI+Iz/8AMwqM9/sUP/xNOi/bB+IQXB19W55JtIuf/Ha8hW9Gzrznv0FKdTUN1HSsrU+xMoS2Tf3nsw/a68eyp8+twnBzn7LGP6UN+1p4+kxs1mNc9xaxHP6V47FqigEcjsRmj+0trKckD0rSNOm+hzSo1d7s9hi/ay+IBwW1uIqeu6yhwf0qdP2tvHaNkavAfb7HFg/pXkCagM5LY+vapv7UXB+YY65pyhTStYytVXVnrR/bA8exjjVLVj6mzj/wqMftl/EA/wDMQsfws0ya8kfUw+RuyD0xVWXUdp+UkZ64rLlh2NIqq1e7PZ2/a68eS5/4nES+m21j/wAKYf2uPHkZ41xOOxtYj/SvHBqgA+9UM2rh8ANjHtzV8lPqjaMa+12eyS/tjfEKPI/t9OOwtIgf5VD/AMNh/EPPHiAtn1t48f8AoNePrqW4Z4B9qQaqAcdfQd6dqfY6YKrs2/vPYpP2x/iLkBdfUY/6dYzk/lUf/DZvxHLEf8JAv/gJF/hXj82ogfxcj8M1E2pmMnjI9O9QlB9DTknvzP7z2KT9sP4iSnP/AAkTj1At4x/SlX9r74ghR/xUUpP/AFxj/wAK8bGrEjAJ55pX1TKgk80/Z0+xHLU7s9mX9r3x91/4SGT6mCP/AApf+GxviFCPl8QliPW2iP8A7LXjCarkDvx1FL/awC8cnPQGj2dPsONKd73Z7DJ+2P8AEdV48SOPpbRD/wBlqrdftmfEySPaPFFwB6pbxA/+g15JNrBkz2z+VV5NX3Z+YD8aTp0t7I6IwrW0b+873xP+0R438SQmK/8AFWuXCMMMouTGp/BcVwk90xkaRssznLMTlm+pqCbUd3PGAOKp3OpKrfKcA/nSTivhN6eFk3eRbmuh/Dgiqtxc7ScHv6VQfVVDE7ufTPWqd1rSqGyevTJrKVToejSwTvcuT3m1u2T0rA8Z+MB4csf3Y33cx2QL792PsKpeJPG9vo1v5sz7VHCgcsx9AO9eIftBftEWnwg8Mz6/qQ+06jeHyNK00NlrmQ9FH+yOrH+tcdfEcr5Vuz7jhnhqrjqybj7v5vsea/txfFCbxO+nfCzR5fN1HW2S61qVefIgDBgh92IyfYD1r1/9mrwND4d0CGSKIJFDEIYABgBQMZ/HH614N+zx8LdR1zX77X9fJuvEfiKX7Reyhf8AUAniJfQAYH4Cvrzw5piaXZpBGNsaAKPav558SOIvbzWCov3Y/i+p/p14QcELIsrVSrG1WpZvyXRGtqurQ6JolxeTt5cNtEZHY+wzXyR4s8QTeOvGsUc5/f6tctNIv92JPmP4YAX8RXr37TPxPitYk8OWcm5xiS+Yfw91j/qfwryP9mLwRqnx0+LdumkWrXuo+IbyHQNBtzIkYuJJJRGCGchVDysq5YgADJIFen4WcNznU+t1lZb/ACW33s7vFDiaGXZVOEZe/P3V8938kfrF/wAG7X7Pv9s/Ebxd8Rb20D23hyyTR9NkmsN6NdXB3yyQznhJYoYwjKoLbL3kqDh/1orxv/gn/wDs8az+yl+yN4R8AeILrTL3V9AF2LibTpJJLZ/OvJ512M6Ixwsqg5Ucg9RyfZK/dpu8mfwfjK7q1nM/NLx14Mv/AAN4gvNK1K3ktryykZHV1ID4JG5c9VPUEcEc1wnii2E0T4xypr9B/wBrz9nLTPjF4U/ty30W0u/Gfh61li0u9EKm7W3keJ7i2V8btknkxsUBwzxRnsK+B9at8wuNpBwcCsXoFKVz4Y/bW+HTaTdJ4jij/chhDfYXhUJwsh+hOD7EelYfwA+J2bY+H72QFohusmY/eHUx/h1FfTfxn8I2+vaVc29zAlxb3KNHLE4yHUjBH5V8F+OfDtz8IvHTaJPNKsLnztJvDwZUByFJ/wCeicD3GD618TxjwvDMsNKolr+T6P8AR+R/Tvg/xvywWVYp6r4b9V/L69j6S8XaTD4g0qaCQAiSPaQegr4p+Nfw21n4RfE+Dxp4SzB4h05iZoBny9Rh/iRgOuRxj8eoFfVPwu+KkfjzSTaXbrHqtsMSr0Fwv99f6jt9Kq/Ez4eReLdPZlAW4jyUYd/bFfhuS47FZFjnTqad10f/AAGj9x4jyLB55gZYbERumvmij+yn+1sfEzweMvAeoNpPibTkWPVNLnbJA/ihmT+OJjnD9vY1+iHwB/a48N/tHaULdJF0jxJAB9r0i4fEiNjloyf9Yh7Ec+tfil8QPhLrPgbxmvifwrdzaH4nsmJDxcR3g7q46HI7HrXo3wg/bT0LxtqVtpvi9f8AhCvFto4EdwXMMEr/AN5Jf+WZJ5wTj0NfrNbA4HPKKq0tJr71/mvxP4S8Q/CPFZXUcoq9PpJa/Jn7Pa94cs9btXt760t7yBuGjnjDqfwNfOHxv/4JIfAT4+XE1xq3ga20/UJ+Te6RM9lOD6/L8p/EV5t4A/bT+IXw5hgjv5YPGOjlR5bzkLcFcdVlXh/xr2Twn/wUY8BasI01n+0/DtwcBvtVszRA/wC+uRj61848jzTAy58NJ6dYt/kfiUsvzHBSvRv8j5J+I/8AwbReDtUmkl8IfEzxHoxblIdUsIr1E9t6GNsfhXLaN/wb7fGj4e2FzY+F/j3pmn6fdNmSGEX9okvuyIxUmv0v8M/HPwp4ygWfSPEWk3sbDjy7hSfy61vQ+MrGJcteWmD3Mq/413UuK+IcOuSU3L1jf/gnRR4vzvDv3ajuu61+8/MjwT/wbc6t4i8QRX3xI+MNzrqr95LK2keQj+75kzEgfQV7Lqn/AAb5fBC68OGxH/CQ29ztwt7DdhZkOOuCCp+hFfap8faYpI/tGxI/67p/jSP4604rxeWbEHBAuEx/OvNxPEWe1pKXNKKXRKyMK/FOb4iftKlWS9NP+H+Z+dn/ABD4aj4RE0Pgr49+M9AtJsgwNAyqQex8mVAfyrFt/wDg3o+I8VjLYRftEXUGl3QKz28VjcokqnqComwc+hr9LU8YWjjieEk9CJF/xqVfF9uR/r4h/wBtBWz4t4jiuXnb9Yp/oehDjfOYR5Y1Xr5L/I+D/hn/AMG53wo8JeD/ALD4l1rW/E2pyPvlvkItMf7KKCcD65NR6t/wbgfB+4lZtP8AFfj7Sg3OyK6icD/vpK++V8U28oGZ4t3++tMfxRZoebiAD3kArh/1i4g53UdWd35fpY86PE2ac7l7V6nwL4f/AODbz4RQ6tFPq/jH4ia7axNn7LLcwwo/tuVNw/Aivsf9n/8AY3+Hf7M3hKDRfCGgRabYwEsFZ2kZmPViTyWPcnmuvPjGyU4F1b+/71eP1qO48fafEx/060+XsZ0HPr1rlx2Z5xjY+zxMpyXboc2MzbHYxWxE3JHp/wALfCPhzxTc3cGua6miiFVMKs6xCUHqQzccenWsjx7Y6X4Q8WfYtG1mLXrTy97zxgEQtn7hYfKx78fjXm118R9OmbDXlk46D/SEP9amtvHmnqOLm2AHTEi4rhlgpOioeys++pLq05YdUY0bSX2tbnaw6nMqALI6g9gSK1fFTeGfAXw70zxFr/i3TrJ9Q1C2s1t3bLJ5k6xkt3G1WLEkYAHJrzpPHlkzFft1opPbzVzSS+JdOu1O+4spAwwdzqQajC4Hkl++p8y7a/ePBOFOpz16XOu2qPfPjZ4L0z4W6Bb3+k+IYr+W5nWKO2MiO0inq6lOwHJPSvIP2hfhf4G/bc+A1/8ADf4raJ/bGiXrFrTUIwBfaHPjC3Vs55V1PJHRhkEEGsax8Q6TpkQEEul26kYxGUT+VTH4gWMWCby1K+gkB/rXRKM6GJWKwMHTcdrXZ6KzKpCuq2FhyeW5+THw1vfF3/BN79rLUv2ePiPqI1HSZmWbwjrXIhvYJCTCVz0SQAjbn5JAV6V9S2utCdBksrDqPSvPv+DhHwxofxs/Z78OeItJu7eXxt8ObhpQ9u4M/wBgkILAkc4Rwrj0wa82/Zd/aaX4r/BXw/r13IWvJrf7NqBU423UXyv/AN9cN/wKv6LyTOpZll1PEVlaez9VodOfcL0sXThmeFhZy+KP97q/mfS0WqCPOTnJ+lTLrG5SMYA6nOa88tfiJbSxhhOgBHXdgmpf+FjWaNzdR/gwNdqq2PkpcOV0tYv7jvf7X3MARjNH2/aB97aenNcbafEKwndV+1Q/MefnFaH/AAmFntBWaJgexYUe17nn4jJKqVlB/cdVb3Hnjj61XuroxsRnAHU1i2fje2RSPOi+pYVU1DxzaGTLTwHA5w4pSxETyKeQYr2l+V29DpYtRLkcgjFWE1IFAdx47CuLj8Z2BPN1ABk4y4FWj41sI4y32uAevzihV9Nz0P7GqbSg/uOsbV/LIBz+HSmvqwYnn8q49/H2mjdi+h+pccUsXxC0oY/06E/8DzU/WGzKeRVX9h/cdiurspyWwfehtS54J/Lg1yH/AAn+mZz9rhOfRqSX4gaei8XMJ/4GKSrMqGQ1P5H9x1MmplMhQcjg5qFtSZ+hIrlT8QNPB5uIQBzywyaZJ8QtOC/8fcGfTeK0+sGyyOr/ACP7jrl1ArznOaH1XZ15yMn1rjB8QdO6/bbfnsJBikf4gWAH/H9B9N4/zij2zLjklT+R/cdbJq5Zhjof880w6tufIcDHJ9K46bx1ZAEi5t8H/poM1Gnj6y6C4iHPHzgZqfbNMJZFU3UWdq+oEjII29uefrTBqR3Fg3tnNch/wnVmOPtUAIPdxQfG1qXBW4iPfAcVft77CWR1kr8rOzGp7AMucn3pk+p7clTyelcini62bJ8+MEdt1LL4tg2YE0YIPdu1HtWP+x6i1cTom1lgMdfUHOKbLrG0Dd0z3rlrvxfaxJgzx4I4+cVn3fjy2ZCTPHxzy1LnZ0Qyeo9eVnY3XiIJ3HWs+88SLIeo4GK8/wBa+J9haRHdcxj1AbOK5bUfjhEz7LHTtT1KU8BY4tqf99NgUpVNLs9LCcO16jtCDZ6vca9tYcn6elc14v8Aija6E/2dQ91fSD5II+T9T6D6151qHifxTrVtJNdzWPhrTUUmR0kDyqO+6RsKv4V4x46/ay0/w9eS6P4Csz4q12TImvZCTaQN03Mx5kI/Ae9c0665XKPTr0XzPvMl4DrV6kYOLk3bRa3PVPi78atL+Fmjtrnii8UzPn7HYQtmW5bskS/Xqx4FeF+F9N1z45/EFfGfiiDZdN+70nTVGYtNh7YB/iPUnrk5qp4M+EOp+N/F41/xPdyeIPEEzZV3GYLX0VF6AD8q+nPhb8Lho8Sz3KBpsZG7nbX5TxbxnSw9KVHCyvJ7v9F5H9oeFnhFHBOGOzCKuto9vN+a6I6D4TeBl8N6YhZczy/MzHrWv8UPiLb/AA08MtPlZNRnBS0hJ+8394j+6O9S+J/GGn/Dvw7Jf3rhI0GyOMffmfsqj1/lXyl8bfjS4iuNc1RzLPMfKtbVDksf4Y0Ht3NfmHDWQV85xntqibhf732X6n9AZpmFHL8PKpNpKKu32RifErxPeeINTXRbWd5Na15meebdlreEnMkx98cD3NfqZ/wbkfsnX3iP9pBPH50zVLfwl8OtMntLDUIykdtNqMsS24tm3AmTFtPPIwjwUYQliA6q/wCX3wV8IXNnbyatqf7zXNYIe4bHMCfwxL6BR19/pX9PX/BK/wCF4+EH/BPL4TaQL37eLnQk1nzPJ8nZ9vd77ytu5s+X9p2bs/Ns3YXO0f1Nl+Wxy/Cqkl7z3/y+R/EPiRxdUzbFOcfgV4xXl1fqz6AooorY/Jwr48/bq/Zifw5dXnjbRBENJuip1G0VH8yG4eRy1xvLEFHLIuwKuxhnLB8J9h1W1nR7XxBpNzYXsEdzZ3kTQzROMrIjDBU/UGlJXRcJuLufjz450pbmB1IJJFfK/wC1H8Frb4geHpbG4MkMkbefa3Kf6y1lHR1/zyOK/QT9qv8AZ+vvgT46uLCWKWbTLndLpt23IuIs9Cem9cgMMDnBxhhn5q+IvhhdQt5B5eeKKU+V6nv4LFTpTjVpOzWqaPzm0nxFqnhvxN/Y+qsNO8Saa3mQyocJeoOBJGe+e4r3z4ZfFuDx3Zi0u/LttXhGGjzhZh/eT39qoftEfAm18a6YI5Vlt7m3Yy2l3GP31q3qD6eo7187Xms3/grWk0nxKv2G9DYtNSjJFtfAdCG/gk9ia+E4s4Lo46Dq0VZ+W6/zX5H9ScCeJ9PEU44fGu1TbXaX/BPpvxr4GtvEcTLMihz0YcGvEfir+zbBrUDLeWSXsQzhsYdfoetdf4F/aGe1gSz16OSVE+VL1PmYj/bHf6ivVNOls/EWnpcWs0V3buMh423A1+Ny/tHJqvvJpLZ9Pkz9jqYfB5jSaSTvunr+B8YaT4A8cfCC5LeB/GGp2Nupz/Z14/mW/wBNjZX9Aa7PS/2zvHPg+IJ4t8CW2qxrw11pzGHf7lfmX+VfQuu/DCx1SRnMQVz3x0rl9X+DCq5MEsqj26EfSvq8B4hTso4hKXqtfvR+Y5x4L5Pi5OpCnyN/y7fcebad+358N7583+k+IdGnPDf6OHAP1Rs/pWpB+218JLxSJfEeqwqOga1nH8qvaz8HUkfdNZ29wfVoFcn8xXO6h8C7GR9zaDp7Z55s0PP5V9HR42y+avKDXoz4DF+AiTvSqL5xNv8A4bL+DGP+RmvWJ/6c5+P0oX9tj4OxvhfEl+APSzn4rmm+A+mr10LTR/25J/hQnwJ0snjQtPJ9rFD/AErq/wBbsuf2Zfejz14EVv54/czrIf24vg+pGfFWqj6WlxUr/t2fCGPIHirWDn/p1ua5iL4EaZ/0ALD/AMAU/wAKnX4DaY6ZOgaZgd/sUfP6Vi+LctW0Jf8AgSKXgPN7zj9zNmb9ur4TSIAnijWfxt7nAqJf24fhMPmbxLqjEf8ATrcE/wAqz1+Amlf9C/pg9xZR/wCFLJ8ANPWM40HTx/25oP6Uv9cst6wl96H/AMQFe7nH7mX2/bn+EZGW8Q6vgdhZTnNMf9uL4PFj/wAT3VW9zp0xqkvwJslBxo1kvqPssf8AhSn4G2Z/5g9kfY2icfpS/wBcst6Rl/4EbR8BXb+JH7maEf7dHwgjcMmtaqD0yNPmFPf9vD4UgDGvayOf4bOfFZafBOwGQ2h2LAetmn+FL/woyxYf8gHTv/ANP8Kznxfltvgl/wCBI1XgQ+tRfczVX9vD4UL117WT7/Y5qlX9vb4RY+bXdXP1spqyLb4AWZJ/4klhz/06J/hVyP8AZ7tY0B/sTTz7fZE/wrL/AFuytfYf3opeBDe1SP3Mfcft4/COVsrreqKQOv2OYf1pw/by+F6rhfEesYPb7PMB/Omr8ArLeP8AiQaeT/16xkfyq/afs8WM5/5F3TSfQ2cY/wDZazlxhlNtacvvQ4+BM0/4kfuZRn/be+EmoaPqVpc6neTwanbvbTq1lId6spXkn614B+xN+0L4c+CV54i0XxHd3K6Fd3K3NjJHC0gDDKkkdRlQv5V9RWP7OOnoMtoWlLx902sf+FXbn9nbR5EBbw/pDOBgZs4yB+lXhvEXLMPCVKFOVn5o7H4GVHDlVdfczMtv22/gpBEoOvTn1/0CU/0qV/24fgdIgB1m4OO/9my/4VHdfs6aSj8eHdDYj/pwjP8ASs+b9nDSx8y+GdEPqPsMf+Fax8Qcta0jP/wJHO/AqrH/AJexfyZd/wCG3PgYZf8AkOTpj/qHTD+lMu/25/gZCcLrmoSED+DTpsfyrOm/Zw0vnHhrRx9LKP8AwqnJ+zjpyOSvh7Rx6f6HHn/0GtVx5lvaf3ox/wCIGV7354/dI0Jf28PgjH01XWDn0sJB/Wqp/br+Cm841LWCCe+nyH+tRRfs+2UTDPh/SSD2+xRn/wBlqb/hn/T9oH9g6UPXNjH/APE0f695bvyy/wDAkJeBNZ/8vY/cxY/25vgk3/L/AKsPrp0lTf8ADcfwPCZOpamvt/Z8mTVc/s6WLrxomkgD/pzTn9KqXn7O9jgj+xdKwP8ApzQf0o/17y19J/eh/wDECai/5eR+5l5/28PgcmALvWJCOpXT5Of1ph/bu+B+Plm1n2zp78frWM37P2nRkkaJpZYf9OicfpQPgXZAYGhaV9fsSf4VceNsveqU/wDwJC/4gZPrUj9zNeT9u74KucfaNZI/7BkmB+tMH7cHwWc8X2rJ9dNl/pWcPgXa450TTR9LRAP5VFJ8C7Hkf2NYnPPFsn+FV/rrl38sv/AkaR8C5/Zqx+5/5m3/AMNtfBUD/kLax/4Lpaa/7cHwXP8AzFNYb/uGS1hH4D2hTI0Sy+v2ZD/SmH4GWmOdHsB/26L/AIVS40y/+WX/AIEv8ipeBdX/AJ+x+5/5mtP+2x8G3YbdS1b8dNkH9aj/AOG0fg51Op6nj0/s+Q5rL/4UXYZ/5BFic/8ATqn+FJ/woiwU5/sewP1tVx/Kn/rnly3jL/wJGP8AxAyqv+XsfuZqn9tD4LoR/wATDVT7jTJang/bZ+DCDnU9V/8ABbLXOyfAvT3I3aNpxwf+fZP8KD8C9OjPGjWGT6Wyg/yprjXLv5Zfehf8QQqrT2kfuZ0zftv/AAXYD/iY6rn30+QU1f2zPgxKDnW9RjJ7fYJRmucj+CNiAf8AiT2Y/wC3Zf8ACkf4J6eemk2LEdAbZf8ACmuNMCnpGX/gSB+B9R71I/czpR+2Z8HBLxrl7j1+xy1YX9sj4MMP+RgnBHraT/4VyR+BOnuP+QLp5J7/AGZAR+lJJ8ANOkBH9jWKg/8ATsv+FWuNcD2l/wCBIF4GVHtUh9zOv/4a2+D87Hy/EqJn+/azL+pWoNU/as+FMcJ2eIYZTx9yKQ5/SuQl/Z100nK6Np4J9LZadB+zfY4GNI08f9u6ih8bZfvaX3oS8Cq17OrH7ixrf7bnw40hT9hh1jV5ugSC02BvxYiuavv2vvHPjBfJ8JeC4NJgb7t1qJMpA9cfKv8AOu20n9n2G2ZfLs7aEg9UhUfrXUaZ8EPus7EgdQe1cWI4/wAJBfuoa/3m3+B7eXeBtCMl9YqNryVvzufP1/8AD/xb8U5Vl8aeJdQ1ONHyLOB9kKH2UYUfgPxr1H4X/AFLK3ihs7RLS2BBwFwWPv3Jr1fRfhvZaa+5oi7AY+YdT611tmsGk2rSsYbaKIZZmIUDHv0r4LO+N8XjP3cZX8lovuR+v8P8DZdliToUkn36/eyh4F+HNn4Zt1by43lYgksM1pePfiHpnwy0pZrxy88g/dWqn95Ke2B2Hua87+I/7S8GjKbLw+qXt44Ia8YZhg/3R/E36fWvCvH3xRh0C5e81a8n1DUrs5WIt5k8zHsB2H6VyZLwXjMyqqti7pPp1f8Akj1Mz4jwmApv3l7u76L/ADOn+K/xdfURP4g8QXSwW1qm2KFT+7iB6IgPVj696848B+GL/wCIHiGLxNrkZiQL/wASuwYZ+zIf+WjD++evtWl8J/g94q/aK8dx+ToGs+KdatLdryy8N6Lp02p3MEIz+9+zwq0kjcHGFPIwOeK/WD/glz/wQF8X/EjxVpnjb486FbeG/A1viaLwdqcKz6n4jVl3L9qjVylpbEFd0MoaeTMkckVvtBk/ovIciw+V0VzJKS2S6f8ABP5T8RfEaWZVHhqMrUov5yfd+XZfqebf8Egv+CYGufti/E/w34o8S+G9SPwY8qTUbnWftItINaCcRW1s4/eTCSQ/PJEAixxTDzY5TEG/f6mW9vHaQJFEiRRRKEREAVUAGAAB0Ap9elVqyqO7Pw7E4qdeV5dAooorI5gooooA5X4y/B/SPjj4Du9B1iLMU43Qzoo820kH3ZEJ6EdD6gkHgmvzr/ag/Yu8UfAmWWee2fV9CbJTVbSJjEi5AAlHPlMdy8MSCThWbBx+n1NmhS4heORFkjcFWVhkMD1BHpUyjc2o15U3ofgh8RPCIuo3zHkc9q+fPi78IrXxBp1xaXlnHc28y/PDIMj6j0Pv1r93fjn/AMEtPh58Vmku9Ga98Hakwmb/AEIiazlkkdW3PA/ICYYKkTxqA5BBAUL8R/Fb/gjx8ZLC8iisNF0XxEJYBI8um6tEsUTkkGPNz5LkjGc7MYI5zkDWlJxep7GHx8d07P7j8cNf+GOvfC13OkeZrekJk/Ypm/0m3HpG/wDEPY80vw8+MAg1Bm0XVZ9Nvkb97aSny5AfRkbr+VfpX4o/4IqftC6gXMHw9ViScY13TBn87ivj/wDal/YI8SfDHWvsXxH8A6z4fvGmmt7a6vLN7cXLQsFkNvcAbJ0UsvzxsykOpBIYE8uPyLCY1NStd+V0/kfqPDniZjMDy06kvaRXS+v3kfhb9p6WKNU1qyV8cGe2G0/Uof6Guy0X4x+GPFBVYNXt4Zcf6u4Bib8zx+tfLl/8DfEnhIltC8Qm7tlORZ6opfH+yJBz+eKoyeKvE3hmMDVvCE08a/el0+USj67ea/N8y8K4SbnQVr/yv9GftmUeMOArxSrS5H2kv1X6n2hFbW94u9JIplYDDI4YH6YqVdIh6FFwfUV8W2Xx60W0f/STrWlS9xJbOpU/hWzH+1BocUe1fEt4p92kBH4V8jiPDfHQlyxk/wDwFn2VHjvK6q5lVj96/U+uX0C2ckbFPqDmon8OQwnAQKfUcGvkyP8Aae093Pl+KL0Z75kP9KQ/tQWQ/wCZovvqTJ/hWK8PMyS+L8GaS4vyt/8AL2P3o+rW0VAxO3IPc1MulRp1Ax6dq+SJf2nrAkZ8T3hz7y8fpTf+Gm9LGN3ii9PtmX/CqXh9mG1/wZD4vyq38aP/AIEj6+XTIgnCqPag2CbMEex9q+QX/aZ0rA/4qi+P/Apf8Kb/AMNMaUw/5Gi6P+80v+FP/iHeYd//ACVkLjHK7/xo/wDgS/zPsD+y41YAnHv1zUb6ajPgZPv618fSftF6YQf+KluW+jS1Ef2iNMQ/8jHffnJVLw7x3Vv/AMBYnxjlv/P2P/gSPsT+xN+QeB3x1qQaOIvvfNjt3r42h/aQ0sH/AJGO8/F5KnT9pDTFBx4lnXcc582QUPw+xvV/gy1xflj19rH/AMCX+Z9jR6UqOfl79RUy2axgdz/Kvjn/AIaW05UGPFdwPYSycUq/tMaYAc+KLrH+/Kf6Vj/xD3HvZ/8AkrNf9b8sW9WP/gS/zPsaO3iyMDbj2xV+GFFjyScdOOor4uX9pjSWwT4nugR3Hnf4VLH+1HpUSYHii99vnl5qZeHOO7/+SsS4xyv/AJ+x/wDAl/mfaJVYzhctupNm/OTgHrXxb/w1Np6nH/CW3o9t8ozTk/ak0xwVbxXdn6yS1j/xDjG9/wDyVj/1vy7pUj/4Ev8AM+0RZIDkEkelRm1Rcgpj+lfGo/ad0vbj/hKrof8AbSU0D9qHSxx/wlF4Qf8AblNNeHOO3v8Agxri/LutSP8A4Ev8z7GktUCnnPPY1XeyV2AIyPpXx5N+07psgI/4SW++n73/AAqBP2kdMJP/ABUl4M+rS1a8Oce9b/8AkrF/rlle3tY/+BI+zDpMf90ZpklhEhAIHHH+TXx0P2jdMYZ/4SW5GR08ySl/4aK0lRz4mmIP/TWSj/iHeOW7f/gLKXFWWvVVo/8AgSPsSazTyyAce/eqk1hGxwTnP0r5Df8AaS0hcA+Jpz/21kNN/wCGktHkJH/CSXHHcNKc/pVR8PMd3f8A4CyJcWZb1qx/8CX+Z9eHSrdm5wD68ZqCXS0UnG1gPYV8kD9ofSGGF8QXbe+Zf8KY/wC0JpgOV8Q3IPoGlH9K1j4fY5P4n/4CzH/WrLd/ax/8CX+Z9dS6XGctxk+gqKPSYpG5XoeuM4r5KX9oXTmGD4gvcjr80ppP+GhtM5/4n2oZHcGarXh5jntL8GaLi7LYv+JH70fYP9iKE+7SDQlZQSR6fNzXx4f2g9MGT/bupfnNUUn7Q+m8f8T/AFEfjLirXhzj7fF/5KzOXGuWPR1F/wCBI+w5vD0acYXpziqlzo6BQNvH05FfIw/aP00f8zHqA+rS1KP2kNJc/N4iu8j1aXNH/EPMevtfgxx4xyt71I/+BL/M+sf7GjLZGM/rSnRkI5Ug9jivkwftG6SX+XxDeZH+1JzSn9o7S3wT4ivM9svLTXh9j/5vwY/9cMr/AOfkf/AkfWP9hRk9M49O9K2gxlM7F2/SvkuL9o/S16eI7rGf78o/pT3/AGltP7eJrsD08ySj/iH2Pt8X4MX+t2V/8/I/+BI+r20ePHA6e3NINHhIwVBOOh6V8oH9pDTh/wAzNcY75kkx/Kpof2ktLBH/ABU834SPSfAGPX2vwZpDivLH/wAvY/8AgS/zPquPRo4sfKOOOnXNSrpUeDwB69q+V0/aS00DjxXOP+2zimXH7RumzRkHxVMxPbzXNR/qFjn1/Bmq4qyxf8vY/wDgS/zPq8adFEhLFABk8kAVk618QtA8NQ7LrUbZX6+XE3mSfkuf1r5RuPjHper3IijvdR1OZztEcUUsryE9AAOpNfRf7Of/AATA/aQ/ajvQvhP4IeM9N03dDv1XxXEPDliscucSqbrbJOgAJb7OkjAY45Ge6h4bV2067dvJW/Fnl5j4kZTg4OU60I+sr/gjD1/9pZE8yPStO3HHyzXTdPcKOv4mvMPiH8VJ9QX7Rr+sBIEyUiZxHGv0jHU/ma/Vr9nn/g1S1nXLWK5+Mvxci0wP5qT6R4BtNzqP+WTrqN7Gee7IbP2DHrX2h8If+Dfj9kf4O39lfw/CHS/Emq2kaI954mv7vWvtbKMGSSC4la33E8kLEq5PCgcV9vlPBOFwtpcqT77v8T8i4h8c8K708JzVPlyx+7R/gfz1/swfswfGb9vzxlb6H8GPAmraraSXAtrrxJd2zw6TpvGS0s5HlphcnBJdsYVWJAP7a/8ABPv/AINlPgr+zHoFrrfxSWb4x/Ei5Edxe3mpSPHpNhMCxMdrbrtLx4ZVY3Bk3lNwSIN5Y/Rzwv4W0zwR4es9I0XTrDSNJ06JYLSysrdLe3tY1GFSONAFVQOgAAFX6+1oUKdBWoq3n1PwniLjTMc3mvaycYrZJ6GX4L8D6L8N/DNrovh3R9L0HRrFSltYadaR2ttbgkkhI0AVQSSeB1JrUoorQ+RCiiigAooooAKKKKACiiigAooooAKKKKAPIPit/wAE/wD4JfGuz1aPxH8LvBV3Prs5ub6+t9MjstRuJTIJWkN3AEnDs4yzCQFssGyGIPyd+01/wbo/DH4p63pl38OtduvhdBbwNFe2ZtptbgvG3ZSVTNcrJG+Cyt87KwCYVCGL/ohRWkKs4u8WbQxFSHws/Jm5/wCDXGG6XDfGxWHofBuR/wCl1Ubn/g1SsbliT8Z7bP8A2JCn/wBvq/XSitfrdb+Y3WY4hbS/I/IU/wDBqTac7fjbCufTwQP/AJOpU/4NTrdBj/heEf8A4RA/+Tq/Xmil9bq9y/7UxW3P+C/yPyG/4hTrYHP/AAu+PP8A2JI/+TqVv+DU61br8bo//CJH/wAnV+vFFP63W/mF/aeK/n/I/IP/AIhSLbkf8LwiIP8A1JA4/wDJ6j/iFHts/wDJb4iP+xIH/wAnV+vlFH1ut/ML+0sT/N+C/wAj8hR/walWy4x8b4xj/qSBz/5PU/8A4hT7Y/8ANb0/8Iof/J1frvRS+t1e4/7UxX8/4L/I/Ic/8Gp1qSM/G6I4458EA/8At9SH/g1Ks2OT8arY/XwMv/ydX680ULFVe4v7SxP8/wCR+Qv/ABClWoHy/G23BPX/AIocf/J1O/4hTrY9fjbAf+5HH/yfX68UUfW6vcP7RxH834L/ACPyIX/g1Qtl6fG6EfTwQP8A5OpW/wCDVG2fG742xEj/AKkgf/J1frtRT+t1v5hf2jiP5vwX+R+Q4/4NTbRenxsgx7+B1P8A7fUD/g1Msw2R8arb/wAIZf8A5Or9eKKPrlb+YP7RxP8AN+R+Rg/4NVrVWyvxrgX2/wCEIXH/AKXU0/8ABqrbnP8Axe2HJ7/8IQP/AJOr9daKX1qr3H/aWJ/n/I/Ij/iFRgz/AMlwT/wif/u+np/waq2oUg/G2M5/6kof/J1frpRS+s1e4/7TxP8AN+C/yPyJf/g1StnA/wCL3RjH/Ukj/wCTqI/+DVG0Tr8bIm/7kkf/ACdX67UU/rVXuH9p4n+b8F/kfkY3/BqpZsefjTbn6+CF/wDk6m/8QqdqD8vxrgUeg8EDj/yer9daKPrdb+Yn+0cR/N+C/wAj8jF/4NWLZVx/wu5Me3goD/2+pG/4NVbV8Z+NqHHHPgof/J1frpRS+s1e41mWJW0vwX+R+Rf/ABCq2v8A0W2P/wAIkf8AydTD/wAGqFq3/NbkH08FAf8At9X670UvrFTuV/amK/n/ACPyKX/g1UtlA/4veOP+pL/+7qnj/wCDWG3jXH/C7Vb6+Cwf/b6v1uop/WqvcX9p4n+b8F/kfka//Bqzauc/8Lsiyf8AqSR/8nUg/wCDVWzH/Na4v/CKH/ydX650UfWavcX9pYn+b8j8jB/waq2S9PjTB/4RC/8AydR/xCq2ZP8AyWmD/wAIhf8A5Or9c6Kf1qr/ADB/aWJ/n/I/Ilv+DU+yJP8AxeqAf9yQP/k6kX/g1PtFPHxthx6f8IQP/k6v13op/W638wv7RxP8/wCR+Rf/ABCq2mOfjXCfr4IX/wCTqb/xCo2f/Rarf/wh1/8Ak6v12opfW6v8w1mWJX2/yPyI/wCIU2yMsRPxptiglQyj/hBly8YYF1U/bvlYrkBiCFJBKsBtP0R8KP8Ag3G/Zj+HWnTQ6voXiTx1NLM0q3Ot6u0MkAJ4jUWK2y7R0G5Wb1Y9a+76Kl4iq/tMiePxEt5v8vyPKP2a/wBhr4RfsfW8y/Db4f8Ahzwrc3UXkXF/b2/m6hdRBi4jlu5C08iBiSFZyqknAFer0UVk227s5ZScneTuwooopCCiiigAooooAKKKKACiiigAooooAKKKKACiiigAooooAKKKKACiiigAooooAKKKKACiiigAooooAKKKKACiiigAooooAKKKKACiiigAooooAKKKKACiiigAooooAKKKKACiiigAooooAKKKKACiiigAooooAKKKKACiiigAooooAKKKKACiiigAooooAKKKKACiiigAooooAKKKKACiiigAooooAKKKKACiiigAooooAKKKKACiiigAooooAKKKKACiiigAooooAKKKKACiiigAooooAKKKKACiiigAooooAKKKKACiiigAooooAKKKKACiiigAooooAKKKKACiiigAooooAKKKKACiiigAooooAKKKKACiiigAooooAKKKKACiiigAooooAKKKKACiiigAooooAKKKKACiiigAooooAKKKKACiiigAooooAKKKKACiiigAooooAKKKKACiiigAooooAKKKKACiiigAooooAKKKKACiiigAooooAKKKKACiiigAooooAKKKKACiiigD/9k=;opacity=90;" vertex="1" parent="1">
          <mxGeometry x="-430" y="16.69999999999999" width="276.6" height="276.6" as="geometry" />
        </mxCell>
        <mxCell id="84" value="" style="endArrow=classic;html=1;rounded=0;entryX=0;entryY=0.5;entryDx=0;entryDy=0;verticalAlign=middle;" edge="1" parent="1" source="83" target="44">
          <mxGeometry width="50" height="50" relative="1" as="geometry">
            <mxPoint x="-73.4" y="146.6" as="sourcePoint" />
            <mxPoint x="-23.400000000000006" y="96.6" as="targetPoint" />
          </mxGeometry>
        </mxCell>
        <mxCell id="86" value="&lt;b&gt;&lt;font style=&quot;font-size: 13px;&quot;&gt;1. Request to subscribe&lt;/font&gt;&lt;/b&gt;" style="edgeLabel;html=1;align=center;verticalAlign=top;resizable=0;points=[];horizontal=1;" vertex="1" connectable="0" parent="84">
          <mxGeometry x="0.1818" y="-2" relative="1" as="geometry">
            <mxPoint x="12" y="-37" as="offset" />
          </mxGeometry>
        </mxCell>
        <mxCell id="91" value="&lt;b&gt;&lt;font style=&quot;font-size: 14px;&quot;&gt;ansh-notification-service&lt;/font&gt;&lt;/b&gt;" style="text;html=1;strokeColor=none;fillColor=none;align=center;verticalAlign=middle;whiteSpace=wrap;rounded=0;" vertex="1" parent="1">
          <mxGeometry x="840" y="284.25" width="180" height="30" as="geometry" />
        </mxCell>
        <mxCell id="92" value="&lt;b&gt;kafka-ansh&lt;/b&gt;" style="text;html=1;strokeColor=none;fillColor=none;align=center;verticalAlign=middle;whiteSpace=wrap;rounded=0;" vertex="1" parent="1">
          <mxGeometry x="930" y="557" width="80" height="30" as="geometry" />
        </mxCell>
        <mxCell id="93" value="&lt;b&gt;ansh-service&lt;/b&gt;" style="text;html=1;strokeColor=none;fillColor=none;align=center;verticalAlign=middle;whiteSpace=wrap;rounded=0;" vertex="1" parent="1">
          <mxGeometry x="900" y="940" width="90" height="41" as="geometry" />
        </mxCell>
        <mxCell id="94" value="&lt;b&gt;ansh-react-app&lt;/b&gt;" style="text;html=1;strokeColor=none;fillColor=none;align=center;verticalAlign=middle;whiteSpace=wrap;rounded=0;" vertex="1" parent="1">
          <mxGeometry x="910" y="1290" width="90" height="30" as="geometry" />
        </mxCell>
        <mxCell id="95" value="" style="image;aspect=fixed;html=1;points=[];align=center;fontSize=12;image=img/lib/azure2/databases/Azure_Database_PostgreSQL_Server.svg;" vertex="1" parent="1">
          <mxGeometry x="777.5" y="50.40000000000001" width="72.15" height="96.2" as="geometry" />
        </mxCell>
        <mxCell id="98" value="" style="endArrow=classic;html=1;rounded=0;labelBorderColor=default;entryX=0.016;entryY=0.637;entryDx=0;entryDy=0;entryPerimeter=0;" edge="1" parent="1" target="95">
          <mxGeometry width="50" height="50" relative="1" as="geometry">
            <mxPoint x="480" y="112.93999999999997" as="sourcePoint" />
            <mxPoint x="700" y="112.6" as="targetPoint" />
          </mxGeometry>
        </mxCell>
        <mxCell id="99" value="&lt;font size=&quot;1&quot; style=&quot;&quot;&gt;&lt;b style=&quot;font-size: 13px;&quot;&gt;2. Save subscriber&lt;/b&gt;&lt;/font&gt;" style="edgeLabel;html=1;align=center;verticalAlign=middle;resizable=0;points=[];" vertex="1" connectable="0" parent="98">
          <mxGeometry x="-0.3994" y="4" relative="1" as="geometry">
            <mxPoint y="-21" as="offset" />
          </mxGeometry>
        </mxCell>
        <mxCell id="103" value="" style="endArrow=classic;html=1;rounded=0;entryX=0.267;entryY=0.178;entryDx=0;entryDy=0;entryPerimeter=0;exitX=0;exitY=0;exitDx=65;exitDy=238.78976131958493;exitPerimeter=0;" edge="1" parent="1" source="10">
          <mxGeometry width="50" height="50" relative="1" as="geometry">
            <mxPoint x="290" y="263" as="sourcePoint" />
            <mxPoint x="286.7899999999999" y="403.00199999999995" as="targetPoint" />
          </mxGeometry>
        </mxCell>
        <mxCell id="117" value="&lt;font style=&quot;font-size: 13px;&quot;&gt;&lt;b&gt;3. Send subscription request for approval&lt;/b&gt;&lt;/font&gt;" style="edgeLabel;html=1;align=center;verticalAlign=middle;resizable=0;points=[];" vertex="1" connectable="0" parent="103">
          <mxGeometry x="0.2786" y="-1" relative="1" as="geometry">
            <mxPoint x="-145" y="-52" as="offset" />
          </mxGeometry>
        </mxCell>
        <mxCell id="104" value="" style="endArrow=classic;html=1;rounded=0;" edge="1" parent="1" source="34">
          <mxGeometry width="50" height="50" relative="1" as="geometry">
            <mxPoint x="286.3" y="593.5" as="sourcePoint" />
            <mxPoint x="290" y="700" as="targetPoint" />
          </mxGeometry>
        </mxCell>
        <mxCell id="106" value="" style="endArrow=classic;html=1;rounded=0;exitX=0.832;exitY=0.159;exitDx=0;exitDy=0;exitPerimeter=0;entryX=0.5;entryY=0;entryDx=0;entryDy=0;entryPerimeter=0;" edge="1" parent="1" source="68" target="47">
          <mxGeometry width="50" height="50" relative="1" as="geometry">
            <mxPoint x="434.6" y="706.5" as="sourcePoint" />
            <mxPoint x="434.9" y="600" as="targetPoint" />
          </mxGeometry>
        </mxCell>
        <mxCell id="108" value="" style="endArrow=classic;html=1;rounded=0;exitX=0.414;exitY=0.083;exitDx=0;exitDy=0;exitPerimeter=0;verticalAlign=middle;entryX=0.414;entryY=0.083;entryDx=0;entryDy=0;entryPerimeter=0;strokeColor=none;" edge="1" parent="1" source="88">
          <mxGeometry width="50" height="50" relative="1" as="geometry">
            <mxPoint x="434.09000000000003" y="376.5" as="sourcePoint" />
            <mxPoint x="434.39" y="270" as="targetPoint" />
          </mxGeometry>
        </mxCell>
        <mxCell id="109" value="" style="endArrow=classic;html=1;rounded=0;entryX=0.414;entryY=0.913;entryDx=0;entryDy=0;entryPerimeter=0;" edge="1" parent="1">
          <mxGeometry width="50" height="50" relative="1" as="geometry">
            <mxPoint x="435" y="390" as="sourcePoint" />
            <mxPoint x="435" y="250" as="targetPoint" />
          </mxGeometry>
        </mxCell>
        <mxCell id="112" value="" style="image;aspect=fixed;html=1;points=[];align=center;fontSize=12;image=img/lib/azure2/databases/Azure_Database_PostgreSQL_Server.svg;" vertex="1" parent="1">
          <mxGeometry x="720" y="720" width="70" height="93.33" as="geometry" />
        </mxCell>
        <mxCell id="113" value="" style="sketch=0;pointerEvents=1;shadow=0;dashed=0;html=1;strokeColor=none;fillColor=#505050;labelPosition=center;verticalLabelPosition=bottom;verticalAlign=top;outlineConnect=0;align=center;shape=mxgraph.office.users.approver;" vertex="1" parent="1">
          <mxGeometry x="120" y="1192.78" width="59" height="55" as="geometry" />
        </mxCell>
        <mxCell id="114" value="" style="image;aspect=fixed;perimeter=ellipsePerimeter;html=1;align=center;shadow=0;dashed=0;spacingTop=3;image=img/lib/active_directory/list.svg;" vertex="1" parent="1">
          <mxGeometry x="179" y="1142.78" width="40.05" height="57.22" as="geometry" />
        </mxCell>
        <mxCell id="115" value="" style="endArrow=classic;html=1;rounded=0;entryX=0.25;entryY=0;entryDx=0;entryDy=0;" edge="1" parent="1" target="114">
          <mxGeometry width="50" height="50" relative="1" as="geometry">
            <mxPoint x="190" y="860" as="sourcePoint" />
            <mxPoint x="240" y="770" as="targetPoint" />
            <Array as="points">
              <mxPoint x="190" y="950" />
            </Array>
          </mxGeometry>
        </mxCell>
        <mxCell id="120" value="&lt;b&gt;&lt;font style=&quot;font-size: 13px;&quot;&gt;5. Get list of pending subscibers&lt;/font&gt;&lt;/b&gt;" style="edgeLabel;html=1;align=center;verticalAlign=middle;resizable=0;points=[];" vertex="1" connectable="0" parent="115">
          <mxGeometry x="0.2946" y="-2" relative="1" as="geometry">
            <mxPoint x="-108" y="45" as="offset" />
          </mxGeometry>
        </mxCell>
        <mxCell id="45" value="Rest API" style="shape=hexagon;perimeter=hexagonPerimeter2;whiteSpace=wrap;html=1;size=0.25;fillColor=#fff2cc;strokeColor=#d6b656;" vertex="1" parent="1">
          <mxGeometry x="140" y="775.75" width="126" height="88.5" as="geometry" />
        </mxCell>
        <mxCell id="118" value="" style="endArrow=classic;html=1;rounded=0;" edge="1" parent="1" target="112">
          <mxGeometry width="50" height="50" relative="1" as="geometry">
            <mxPoint x="480" y="770" as="sourcePoint" />
            <mxPoint x="530" y="720" as="targetPoint" />
          </mxGeometry>
        </mxCell>
        <mxCell id="119" value="&lt;b&gt;&lt;font style=&quot;font-size: 13px;&quot;&gt;4. Save pending subscriber&lt;/font&gt;&lt;/b&gt;" style="edgeLabel;html=1;align=center;verticalAlign=middle;resizable=0;points=[];" vertex="1" connectable="0" parent="118">
          <mxGeometry x="-0.2439" y="-4" relative="1" as="geometry">
            <mxPoint x="13" y="-23" as="offset" />
          </mxGeometry>
        </mxCell>
        <mxCell id="121" value="" style="endArrow=classic;html=1;rounded=0;entryX=0.25;entryY=0;entryDx=0;entryDy=0;" edge="1" parent="1">
          <mxGeometry width="50" height="50" relative="1" as="geometry">
            <mxPoint x="210" y="1155" as="sourcePoint" />
            <mxPoint x="211" y="870" as="targetPoint" />
            <Array as="points">
              <mxPoint x="211" y="960" />
            </Array>
          </mxGeometry>
        </mxCell>
        <mxCell id="123" value="&lt;b&gt;&lt;font style=&quot;font-size: 13px;&quot;&gt;6. Send approve/reject for pending subscriber&lt;/font&gt;&lt;/b&gt;" style="edgeLabel;html=1;align=center;verticalAlign=middle;resizable=0;points=[];" vertex="1" connectable="0" parent="121">
          <mxGeometry x="0.2" y="1" relative="1" as="geometry">
            <mxPoint x="150" y="107" as="offset" />
          </mxGeometry>
        </mxCell>
        <mxCell id="124" value="&lt;b&gt;&lt;font style=&quot;font-size: 13px;&quot;&gt;7. Remove pending subscriber&lt;/font&gt;&lt;/b&gt;" style="edgeLabel;html=1;align=center;verticalAlign=middle;resizable=0;points=[];" vertex="1" connectable="0" parent="1">
          <mxGeometry x="599.9961500091481" y="790.0022300829249" as="geometry" />
        </mxCell>
        <mxCell id="126" value="&lt;font style=&quot;font-size: 13px;&quot;&gt;&lt;b&gt;8. Send subscription decision back&lt;/b&gt;&lt;/font&gt;" style="edgeLabel;html=1;align=center;verticalAlign=middle;resizable=0;points=[];" vertex="1" connectable="0" parent="1">
          <mxGeometry x="569.9981227674326" y="674.9950479774066" as="geometry" />
        </mxCell>
        <mxCell id="127" value="&lt;font size=&quot;1&quot; style=&quot;&quot;&gt;&lt;b style=&quot;font-size: 13px;&quot;&gt;9. Update approve flag&lt;/b&gt;&lt;/font&gt;" style="edgeLabel;html=1;align=center;verticalAlign=middle;resizable=0;points=[];" vertex="1" connectable="0" parent="1">
          <mxGeometry x="610.0037390726063" y="146.59761853548557" as="geometry">
            <mxPoint x="-24" y="-12" as="offset" />
          </mxGeometry>
        </mxCell>
        <mxCell id="130" value="" style="sketch=0;outlineConnect=0;fontColor=#232F3E;gradientColor=none;fillColor=#232F3D;strokeColor=none;dashed=0;verticalLabelPosition=bottom;verticalAlign=top;align=center;html=1;fontSize=12;fontStyle=0;aspect=fixed;pointerEvents=1;shape=mxgraph.aws4.authenticated_user;" vertex="1" parent="1">
          <mxGeometry x="-350" y="-180" width="78" height="78" as="geometry" />
        </mxCell>
        <mxCell id="131" value="" style="sketch=0;outlineConnect=0;fontColor=#232F3E;gradientColor=none;fillColor=#232F3D;strokeColor=none;dashed=0;verticalLabelPosition=bottom;verticalAlign=top;align=center;html=1;fontSize=12;fontStyle=0;aspect=fixed;pointerEvents=1;shape=mxgraph.aws4.user;" vertex="1" parent="1">
          <mxGeometry x="-400" y="-160" width="78" height="78" as="geometry" />
        </mxCell>
        <mxCell id="133" value="" style="endArrow=classic;html=1;rounded=0;entryX=0.25;entryY=0;entryDx=0;entryDy=0;" edge="1" parent="1" source="131" target="83">
          <mxGeometry width="50" height="50" relative="1" as="geometry">
            <mxPoint x="-440" as="sourcePoint" />
            <mxPoint x="-390" y="-50" as="targetPoint" />
          </mxGeometry>
        </mxCell>
        <mxCell id="134" value="" style="endArrow=classic;html=1;rounded=0;exitX=0;exitY=0;exitDx=195;exitDy=31.21023868041508;exitPerimeter=0;entryX=1.043;entryY=0.256;entryDx=0;entryDy=0;entryPerimeter=0;" edge="1" parent="1" source="10" target="130">
          <mxGeometry width="50" height="50" relative="1" as="geometry">
            <mxPoint x="60" y="-140" as="sourcePoint" />
            <mxPoint x="110" y="-190" as="targetPoint" />
            <Array as="points">
              <mxPoint x="415" y="-160" />
            </Array>
          </mxGeometry>
        </mxCell>
        <mxCell id="135" value="" style="verticalLabelPosition=bottom;html=1;verticalAlign=top;align=center;strokeColor=#2D7600;fillColor=#60a917;shape=mxgraph.azure.message;pointerEvents=1;fontColor=#ffffff;" vertex="1" parent="1">
          <mxGeometry x="-230" y="-217.5" width="50" height="37.5" as="geometry" />
        </mxCell>
        <mxCell id="138" value="&lt;font style=&quot;font-size: 13px;&quot;&gt;&lt;b&gt;10. Send mail with request to accept subscription&lt;/b&gt;&lt;/font&gt;" style="edgeLabel;html=1;align=center;verticalAlign=middle;resizable=0;points=[];" vertex="1" connectable="0" parent="1">
          <mxGeometry x="589.9977800129803" y="0.0017788300868346596" as="geometry" />
        </mxCell>
        <mxCell id="139" value="" style="endArrow=classic;html=1;rounded=0;" edge="1" parent="1">
          <mxGeometry width="50" height="50" relative="1" as="geometry">
            <mxPoint x="-270" y="-140" as="sourcePoint" />
            <mxPoint x="400" y="40" as="targetPoint" />
            <Array as="points">
              <mxPoint x="400" y="-140" />
            </Array>
          </mxGeometry>
        </mxCell>
        <mxCell id="140" value="" style="sketch=0;pointerEvents=1;shadow=0;dashed=0;html=1;strokeColor=none;fillColor=#505050;labelPosition=center;verticalLabelPosition=bottom;verticalAlign=top;outlineConnect=0;align=center;shape=mxgraph.office.concepts.email_approved;" vertex="1" parent="1">
          <mxGeometry x="-230" y="-120" width="56" height="46" as="geometry" />
        </mxCell>
        <mxCell id="142" value="&lt;b&gt;11. Receive accept&lt;/b&gt;" style="text;html=1;strokeColor=none;fillColor=none;align=center;verticalAlign=middle;whiteSpace=wrap;rounded=0;" vertex="1" parent="1">
          <mxGeometry x="209" y="-15" width="191" height="30" as="geometry" />
        </mxCell>
        <mxCell id="143" value="" style="endArrow=classic;html=1;rounded=0;exitX=0;exitY=0;exitDx=260;exitDy=171.2897613195849;exitPerimeter=0;" edge="1" parent="1" target="5">
          <mxGeometry width="50" height="50" relative="1" as="geometry">
            <mxPoint x="480" y="199.99976131958485" as="sourcePoint" />
            <mxPoint x="700" y="200" as="targetPoint" />
          </mxGeometry>
        </mxCell>
        <mxCell id="144" value="&lt;b&gt;12. Store approved and accepted subscribers&lt;/b&gt;" style="text;html=1;strokeColor=none;fillColor=none;align=center;verticalAlign=middle;whiteSpace=wrap;rounded=0;" vertex="1" parent="1">
          <mxGeometry x="480" y="210" width="280" height="30" as="geometry" />
        </mxCell>
      </root>
    </mxGraphModel>
  </diagram>
</mxfile>
